<svg xmlns="http://www.w3.org/2000/svg" viewBox="0 0 490 490"><defs><style>.cls-1,.cls-2,.cls-3{fill:none;stroke-width:10px;}.cls-1,.cls-2,.cls-3,.cls-4{stroke:#fff;}.cls-1,.cls-4{stroke-linejoin:round;}.cls-2,.cls-4{stroke-linecap:round;}.cls-2,.cls-3{stroke-miterlimit:10;}.cls-4{fill:#fff;stroke-width:0.5px;}</style></defs><title>logo-white</title><g id="Calque_2" data-name="Calque 2"><g id="Calque_1-2" data-name="Calque 1"><path class="cls-1" d="M248.92,208.75l20.7-15.59,45.13,59.89-46.06,35.51"/><line class="cls-1" x1="291.37" y1="222.04" x2="314.02" y2="204.97"/><path class="cls-2" d="M405.84,181.61c-.06,1.36-.17,2.72-.33,4.07"/><path class="cls-3" d="M312.8,212.07c-17.38-23.19-12.57-60.73,14.68-76.8,25.87-15.25,60.83-4.61,73.71,23a49.9,49.9,0,0,1,4.65,23.33"/><path class="cls-2" d="M151,208.58h0c-1,2.75-14.73,44,10.77,75.36,22.27,27.41,66.08,36.77,94.77,16.66a54.45,54.45,0,0,0,13.33-75.83c-12-17.12-42.88-26.08-60.66-10.66-12.09,10.49-15.77,30.13-8.53,48.53"/><line class="cls-3" x1="231.56" y1="76.14" x2="231.57" y2="408.45"/><path class="cls-3" d="M231.57,77.08c0-.31,0-.63,0-.94,0-17.66,12.07-32,27-32s27,14.31,27,32a37.58,37.58,0,0,1-1.14,9.23"/><path class="cls-3" d="M231.59,406c0,.31,0,.63,0,.94,0,17.66-12.07,32-27,32s-26.95-14.31-26.95-32a37.58,37.58,0,0,1,1.14-9.23"/><path class="cls-4" d="M174,397c14,13.21,22,21,23.46,22.57.2.21,1,1.13,1.3,1s0-1.11-.18-1.85c-.59-2.62-5.73-25-11.36-30.17a5.93,5.93,0,0,0-3.44-1.76c-4-.41-7.49,4.37-7.8,4.81A11,11,0,0,0,174,397Z"/><path class="cls-4" d="M289.56,84.39c-13.95-13.21-22-21-23.45-22.57-.2-.22-1-1.14-1.3-1s0,1.12.18,1.85c.59,2.63,5.73,25,11.36,30.18a6,6,0,0,0,3.44,1.76c4,.41,7.49-4.38,7.8-4.82A10.85,10.85,0,0,0,289.56,84.39Z"/><circle class="cls-3" cx="245" cy="245" r="240"/></g></g></svg>