<svg xmlns="http://www.w3.org/2000/svg" viewBox="0 0 454.95 495.24"><defs><style>.cls-1{fill:#fff;}</style></defs><g id="Calque_2" data-name="Calque 2"><g id="DESIGNED_BY_FREEPIK" data-name="DESIGNED BY FREEPIK"><path class="cls-1" d="M239.68,410.39c.8,4.45,1.56,8,2,11.51,2.69,19.45,5.28,38.92,8.05,58.36.23,1.63,1.42,4.43,2.27,4.47a123.55,123.55,0,0,0,18.15-.42c1-.1,2.11-3.44,2.17-5.32,0-.73-2.63-1.79-4.2-2.27a13.14,13.14,0,0,0-4-.08c-7.26.15-8.83-1.59-9.47-9a195,195,0,0,0-2.87-22.25c-3.35-16.3-7.16-32.51-10.92-48.72-.4-1.7-1.71-3.18-2.59-4.76-.9,1.58-2.31,3.07-2.62,4.75-4.55,25.31-6.53,50.86-7,76.55-.15,8.36-2.25,10-10.46,8.14-1.61-.37-3.09-1.39-4.7-1.63-3.89-.57-7.88-1.47-11.72-1.11-4.25.41-8.4,2-12.54,3.23-9.48,2.86-19,5.08-29,2.88-1.7-.38-4-.37-5.33.51a9.87,9.87,0,0,0-3.8,5.13c-.21.78,2.28,3.18,3.76,3.42a77.86,77.86,0,0,0,15.79,1.39c12.38-.54,23.61-5.43,34.72-10.4,2.51-1.12,4-1.54,5.58,1.38a7.42,7.42,0,0,0,5.07,3.37c17,1.22,21.49.12,21.43-17.61,0-14.81-1-29.62-1.6-44.42C235.7,421.85,235.31,416.24,239.68,410.39Zm146.37-72.92c-.48,5.86-3.33,8.32-7.66,10.31a105.94,105.94,0,0,0-16.2,9.26c-3.33,2.32-5.54,6.3-10.53,5.58-.56-.08-1.35,1.42-2,2.19.84.59,1.8,1.81,2.51,1.68a57,57,0,0,0,10-2.62c2.52-1,4.73-2.73,7.64-4.49,2,8.55,4.27,16.39,5.61,24.38,1.06,6.35.93,12.9,1.51,19.35a24.69,24.69,0,0,0,1.42,4.84c1.92-1.08,4.75-1.72,5.52-3.34,1-2.17,1-5.2.51-7.68-1.86-9.29-3.73-18.61-6.31-27.72-2.31-8.14-1.87-14.11,6.67-18.71,6.93-3.72,10-11.11,10.59-18.86.17-2.06-2.07-4.49-3.63-6.39-.38-.47-2.72.09-3.7.8-5.32,3.82-10.48,7.87-15.74,11.77-2.1,1.56-4.32,2.95-7.43,5.05C373.82,345.38,379.37,340.79,386.05,337.47ZM274.55,476.28l.55,1.3c3.66,1.47,7.57,2.51,10.91,4.5,7.11,4.23,14.61,5.25,22.61,4.16,6.43-.87,12.86-1.78,19.31-2.5,2.79-.31,5.54-.27,5.22-4.26-.28-3.44-1.72-5.73-5.55-5.62-3.16.1-6.33.09-9.47.45-12.55,1.45-25,3.89-37.66.06C278.84,473.88,276.54,475.59,274.55,476.28Zm91-93.6c.3,5.34-2,11.63,5.47,14.8C370.6,391.64,371,386.1,365.56,382.68Z"/><path d="M162.06,226.8c-1.21-7.51-2.43-14.53-3.37-21.58a8.54,8.54,0,0,1,1.11-4.58c2.74-5.4,5.74-10.67,8.47-16.08.88-1.76,1.13-3.83,1.85-5.69,2.71-7,2.47-6.66-3.47-11.68a30,30,0,0,1-7.51-10.06c-1.7-3.66,1.05-6.41,4.91-5.1a21.3,21.3,0,0,1,7.39,4.79c7.08,6.62,9.84,6.17,13.58-2.89,5.34-13,6.22-26.53,4.92-40.26-.86-9.16-.06-10.37,9.19-11.15,25.77-2.15,50.51,1.41,73.85,13,1.35.67,2.69,1.33,4,2.06,9.92,5.52,10.52,8.19,3.86,17.18-4.88,6.57-5.91,14.35-7.09,22.11-.72,4.73-1.64,9.44-2.56,14.63-8.75-1.64-17.07-3.29-25.3,1,2.5.14,5,.32,7.49.4,8.81.28,17.65.25,26.43.91,3.18.24,6.43,1.73,9.26,3.33,1.59.9,3.58,3.54,3.23,4.8-.55,2-2.63,4-4.57,5-2.11,1.16-4.84,1.13-7.2,1.91-1.44.48-3.8,1.48-3.82,2.29,0,1.73,1.16,3.5,1.9,5.23.11.26.53.38.8.58,7.18,5.3,7.1,5.26,3.15,13.49a7,7,0,0,0-.37,5c.25.67,2.95.84,4.41.56,12.53-2.46,21.79,2.16,28.5,12.69,7.14,11.22,9.85,23.63,9.47,36.7-.2,7,.79,12.88,7.95,16.23,1.33.62,2.5,2.83,2.7,4.44,1.45,11.79,7,21.78,13.36,31.44,3.3,5,6.71,9.93,10,14.92,4.94,7.44,4.37,12.78-2.68,18.21a106.44,106.44,0,0,1-14,8.62c-5.72,3.14-6.38,4.48-4.1,10.72,5.4,14.79,13.47,27.85,25.05,38.62.82.77,2,1.15,4,2.26-9.76,1.91-18.91-1.83-24.08-10.45a137.19,137.19,0,0,1-10.83-24c-2.88-8-3.13-8.86-11.84-8.78-4.56,0-7.39-2.1-8.34-6.34-1.92-8.57-6.66-15.56-12-22.24C292,329.14,285.91,318.37,284,305.6a9.22,9.22,0,0,0-.67-1.77c-5.28,3.26-7.12,7.15-5.46,13.14a45.11,45.11,0,0,0,4.6,10.46c6.36,10.94,13,21.73,19.46,32.59,5,8.41,10.81,16,20.14,20.18,1.59.72,2.57,3.17,3.44,5,1.81,3.84,2.73,8.27,5.17,11.62,4.08,5.59,4.61,11.29,2.62,17.48-2.5,7.74-6.76,9.77-14.51,7.2-4.45-1.47-5.33-.39-4.94,4.59.75,9.77,1.37,19.57,1.6,29.36.14,5.62-2.1,10.43-7.31,13.33-3.83,2.13-6.07,1.37-6.24-2.81-.41-10.44-.79-20.93-.27-31.36.86-17.12,2.45-34.14-4.48-50.63-2-4.66-2.61-10-3.18-15.09s-3.24-7.43-7.88-9c-9.76-3.26-19.58-6.52-29-10.7-10.19-4.52-18.22-12-24.31-22.11-3.21,3.66-5.86,6.81-8.65,9.83a150.39,150.39,0,0,1-35.48,28.19,19.26,19.26,0,0,0-9,10.83c-4.28,12.17-5.4,24.69-4.46,37.44,1.56,21.26,3.33,42.51,4.92,63.77.11,1.47-.59,3-.92,4.51-1.84-.42-4.53-.23-5.36-1.38-2.77-3.82-6-7.89-7-12.32-1.69-7.91-1.95-16.14-2.59-24.25-.28-3.59,0-7.21,0-11.05-5.08.7-9.31,1.69-13.55,1.76-8.55.16-11.28-2.63-11.91-11.19s1.71-16,7.66-22c5.16-5.14,11.29-9.3,16.6-14.31,2.51-2.38,5.2-5.48,5.91-8.68,3.56-16,7.05-31.88,15.15-46.36a5.58,5.58,0,0,0,.12-4.25c-1.55-3.81-3.49-7.48-5.45-11.57-2,8.17-2.86,16.17-5.79,23.35-6.39,15.7-13.77,31-20.86,46.43-1.69,3.69-4.73,5.72-8.92,4.75-4.75-1.11-6.82,1.31-8.81,5.19-3.94,7.68-8.07,15.32-12.75,22.57-4.83,7.46-11.55,12.93-20.44,15-1.39.33-3.06-.55-4.59-.88.62-1.73.75-4.42,1.94-5,14.58-7.44,22.15-20.73,29.35-34.38,3.22-6.11,2.3-9-3.33-13a146.75,146.75,0,0,1-13.06-10.54c-3.17-2.86-6.7-4.06-10.57-2.83-6.92,2.21-13.4,2.39-19.56-3,.72,5.77,3.13,8.6,9.22,10.12,6.61,1.65,13.4,2.58,20,4.16,1.77.43,3.26,2.1,4.88,3.19-2,1.14-3.88,3.16-5.86,3.21a24.08,24.08,0,0,1-9.67-1.94c-3-1.27-5-.91-6,2a61.78,61.78,0,0,0-3.13,12.33c-.35,2.86,1.45,4.78,4.83,3.41,4.12-1.66,5.49.21,4.5,3.94-1.86,7.08-3.5,14.32-6.46,20.95-1,2.27-5.59,3.6-8.72,4-1.63.22-4.42-2.08-5.35-3.92-2.92-5.78-2.52-12-.52-18,2.15-6.47,4.45-12.92,7.16-19.17,1.87-4.31,1.63-6.92-3.12-9-6.39-2.85-10.41-8.23-12.68-14.75-.73-2.12-1.29-4.85-.56-6.78,1-2.76,2.89-5.89,5.3-7.19,1.22-.65,4.54,2.2,6.68,3.78,1.44,1.07,2.39,2.78,3.72,4C92,364,98.87,363,102.9,355.38c6.42-12.05,12.62-24.21,19-36.3a25.42,25.42,0,0,1,3.29-5c4-4.52,6.53-9,5-15.68-.62-2.62,1.44-7.13,3.74-8.91,4.24-3.3,4.85-6.7,3.48-11.31A58.59,58.59,0,0,1,136,251c2.39-13.57,9.21-20.46,22.61-23.31C159.74,227.4,160.86,227.1,162.06,226.8Zm4.83-24.34c-1.49,5.51-.07,10.59,2.61,15.2a150.29,150.29,0,0,0,9.54,14c2.19,3,3.52,5.61-.24,8.59,3.62,1.34,6.94,2.13,9.82,3.71,10.27,5.68,19.52,4.92,28.41-3.07,5.12-4.61,10.89-4.47,17.11-1.2a30.42,30.42,0,0,0,29.25.2c2.58-1.31,4.64-3.63,6.8-5.39l-6-3.34c1.17-1.46,2.35-2.91,3.51-4.39,3.27-4.15,7-8.06,9.64-12.57a11.72,11.72,0,0,0,.46-12l-6.66,2.14c-.25-2.21-.32-3.83-.63-5.4-1.06-5.37-1.86-10.83-3.42-16.06-1.83-6.13-3.56-6.45-8-1.88-2,2-3.33,2.59-5.8.62-6.88-5.47-9.36-5.07-15.44,1.56-1.53,1.66-3.32,3.09-5,4.62-.24-4.28,3.11-9.08-4.1-9.2a56.61,56.61,0,0,0-12.2,1c-.45.09-.06,4.4-.06,8.21-2.51-2.42-4.12-4.16-5.92-5.65-2.52-2.09-4.93-4.52-7.83-5.84-3.67-1.66-6.84-.74-7.84,4-.33,1.56-.94,3.43-2.08,4.37s-3.15,1-4.78,1.4a19.52,19.52,0,0,1,0-4,10,10,0,0,1,1.55-3.64c3-4.39-.57-5.17-3.36-6.74-3.7-2.08-5,.21-5.64,3-1.79,7.26-3.62,14.53-4.91,21.89C174.29,204.31,174.56,204.35,166.89,202.46Zm38.91-56.33c8.94.6,16.37,1.3,23.81,1.46,1.66,0,4.41-1.48,4.88-2.87,2.83-8.52,5.24-17.18,7.61-25.84,1.07-3.9-.69-6.11-4.76-6.3s-8.31-.41-12.47-.45c-12.54-.13-10.08-2.28-13.44,9.9C209.28,129.81,207.73,137.76,205.8,146.13Zm-90.56,202c-2.15,3.2-4.27,5.81-5.69,8.75-.57,1.2-.21,3.9.72,4.62,8.68,6.68,17.22,13.63,26.5,19.4,10.08,6.27,10.47,5.62,13.48-5.75.83-3.16-.33-3.81-2.79-5a118.38,118.38,0,0,1-15.51-8.8C126.37,357.52,121.26,353,115.24,348.16Zm134.63-96c-5.2-1.43-10-2.81-14.79-4-1-.25-2.8-.19-3.15.38-2.92,4.76-6.63,3.89-10.81,2.11a7.59,7.59,0,0,0-4.36-.06c-6.74,1.53-13.43,3.21-20,4.82C205.64,269.53,238.59,268,249.87,252.14Zm65.8,99.61c.07,12.34,1,13,11.19,9.73,1.26-.41,2.5-.88,3.75-1.35a60.66,60.66,0,0,0,24.18-16.24c3.54-3.94.19-6.19-1.9-8.86-1.62-2.08-3.31-2.67-5.4-.71a52.33,52.33,0,0,1-27.17,13.78C318.28,348.48,316.63,351,315.67,351.75ZM164.94,408.53l-.2,0c0-3.3.19-6.62-.11-9.9-.09-1-1.39-2.14-2.42-2.74-.41-.25-1.84.58-2.35,1.27-3.48,4.64-6.86,9.36-10.25,14.07a17.31,17.31,0,0,0-2.43,15.22,6.72,6.72,0,0,0,4.61,4c6,.58,11.41-4.56,12-10.54Zm143.18-28.6c1.61,9.26,3.05,18.57,4.95,27.78.52,2.46,2.25,4.81,3.85,6.89,2.45,3.18,5.34,2.86,6-.91.82-4.58,1.5-9.66.34-14C321.11,391.54,315.5,385.26,308.12,379.93ZM224.3,293.58c2.36-3.48,4.23-6,5.77-8.68.57-1,1-2.8.44-3.62-2.1-3.38-4.58-6.52-7.37-10.39a23.43,23.43,0,0,1-.74,2.91c-.44,1.13-.75,2.67-1.63,3.22-5.86,3.66-6.06,4-2.18,9.79C220,289,221.93,290.79,224.3,293.58ZM272,130.14c-5.69,2.6-7.94,8.5-6.6,16.79C268.05,140.64,271.52,136,272,130.14ZM238,269.67c-6.42-.42-8.19,1.47-6.79,7.15C235.63,276.43,238,274.29,238,269.67ZM191.83,165.83c-.17.73-.35,1.46-.52,2.19l14.83,3.37c.15-.64.31-1.29.46-1.93Zm23.78,108.32.54-1.86-6.82-2.05C210.21,275.24,212.36,276.33,215.61,274.15Z"/><path d="M141.59,67.78,92.82,70.26a96.49,96.49,0,0,1-.61-10.76c0-1,1.77-2.47,3-2.75,2.37-.58,4.9-.48,8-.7-.4-8.48-.77-16.55-1.16-24.85H90.44c-.26-4-.51-7.88-.8-12.3,3.88-.32,7.3-.68,10.72-.86,16.81-.89,33.61-1.85,50.43-2.51a74,74,0,0,1,14.41,1c5.45.87,9.65,4,11.17,9.51s-1.92,9.09-5.87,12.23c-.63.49-1.2,1.07-1.27,1.13l8.91,13.59c1.19-3,2.22-5.63,3.52-8.94l5.72-.26c1.5,7,2.23,13.64-3.69,18.67a15.6,15.6,0,0,1-7.48,3.34,147.15,147.15,0,0,1-15.45,1c-5.83.24-8.54-1.6-10.6-7-.59-1.56-1-3.17-1.53-4.76-1.85-5.82-3.79-7.26-9.76-7.08-2.83.09-5.66.32-8.48.52a6.94,6.94,0,0,0-1.45.47v6h11.88C141.07,59,141.31,63,141.59,67.78Zm-13.73-31c5.56-.31,11-.36,16.27-1.08,1.68-.23,3.1-2.26,4.64-3.47-1.69-1.08-3.35-3-5.07-3.09-5.24-.16-10.5.42-15.84.71Z"/><path d="M80.33,43.94c3,4.11,6.9,7.3,8,11.27,2.43,8.34-3.92,15.35-13.7,16.15-6.63.54-13.29.69-19.94,1L7.87,74.82c-1.62.08-3.26,0-4.56,0-.42-.5-.6-.62-.61-.74-.26-3.8-2-8.6-.3-11.11,1.51-2.23,6.78-1.93,11-2.89-.39-7.71-.79-15.74-1.2-24H.6c-.24-3.52-.84-7-.5-10.3.11-1,2.72-2.49,4.25-2.59,15.78-1,31.57-1.73,47.36-2.55,5.15-.26,10.3-.63,15.46-.77a30.14,30.14,0,0,1,7.42.5c5.57,1.26,10.57,3.7,12.22,9.73,1.6,5.82-1.88,9.79-5.86,13.36C80.46,43.92,79.88,44.27,80.33,43.94Zm-41.42,16c6-.33,11.28-.43,16.52-1,1.47-.17,2.78-1.77,4.16-2.72C58.23,55,56.94,52.9,55.51,52.8c-5.52-.4-11.08-.16-17-.16C38.68,55.75,38.77,57.5,38.91,59.93Zm-1-18.88c5.8-.3,11-.31,16.07-1,1.65-.22,3.08-2.17,4.61-3.32-1.55-1-3.1-2.83-4.67-2.85-5.27-.09-10.55.47-16,.79Z"/><path d="M322.22,44l-3.76-4.76c-1.88,1.5-3.46,2.75-5.19,4.11,3.57,2.57,5.78,9.82,4.27,13.49a4.08,4.08,0,0,1-3,1.79c-11.31.72-22.63,1.24-33.93,1.92-2.65.16-3.41-1-3.68-3.44-1-9.24-1.07-9.24,11.35-10.89-.42-7.94-.84-16-1.27-24.09-2.87,0-5.21-.28-7.47.06-3.66.55-4.64-1.05-4.7-4.4-.17-10.87-1.12-8.69,8.3-9.25,10.65-.64,21.31-1,31.94-1.83,3.79-.29,5.28,1,4.9,4.66a2.85,2.85,0,0,0,0,.5c.56,7.63.56,7.63-6.79,8.94V32.52l18.68-12.63h-10c-.21-4.51-.41-8.57-.63-13.35,6.91-.4,13.33-.78,19.74-1.12,6-.32,12-.48,18-.94,3.14-.24,4.82.63,4.6,4a10.68,10.68,0,0,0,.13,3c1.06,5.07-.95,7.12-6,6.54-6.56-.76-10.71,3.66-15.76,7.57,4.25,5.46,8.12,11.09,12.75,16,1.36,1.42,5,1.24,7.43,1,4.23-.45,6.38.62,5.87,5.25a18.37,18.37,0,0,0,.3,4.48c.34,2.61-.84,3.53-3.37,3.66q-21,1-41.92,2.3c-2.5.15-4.17-.69-3.83-3.2C319.65,51.29,315.78,46.4,322.22,44Z"/><path d="M450.91,0c.39,7.58.76,14.67,1.16,22.36l-18.23.94c-.34-2.93-.64-5.5-1-8.88l-26.89,1.28v5.48h16.16c.2,3.85.41,7.73.64,12l-15.87,1.17v6.09l27.66-1.39V29.47L454,28.41c.39,7.3.89,14.2.94,21.1,0,.68-2.69,1.92-4.19,2-20.46,1.19-40.93,2.23-61.4,3.3-6.29.33-12.58.64-19.49,1-.22-4.54-.41-8.58-.62-12.93l11.55-1.24c-.4-8-.79-15.93-1.2-24.14h-11c-.33-.68-.71-1.11-.73-1.55-.63-14.6-2.68-11.6,10.42-12.37C400.37,2.29,422.51,1.2,444.64.05,446.44,0,448.25,0,450.91,0Z"/><path d="M229.84,62.94c-10.63.28-21-.45-30-7.17-13.33-10-12.9-27.79,1-37A32.49,32.49,0,0,1,208.43,15a82.31,82.31,0,0,1,44.82-2A20.27,20.27,0,0,1,257,14.29c8.64,3.89,15.8,9.35,16.15,19.68.37,10.62-5,18.41-14.15,23.56S239.87,62.8,229.84,62.94Zm1.72-39.29c-6.16-.1-11.82,5.75-12,12.38-.17,7.39,5.73,14.18,12.5,14.39,6.53.2,12.2-5.63,12.25-12.6C244.4,30.48,238.34,23.76,231.56,23.65Z"/><path d="M239.68,410.39c-4.37,5.85-4,11.46-3.73,17.13.64,14.8,1.56,29.61,1.6,44.42.06,17.73-4.44,18.83-21.43,17.61a7.42,7.42,0,0,1-5.07-3.37c-1.62-2.92-3.07-2.5-5.58-1.38-11.11,5-22.34,9.86-34.72,10.4A77.86,77.86,0,0,1,155,493.81c-1.48-.24-4-2.64-3.76-3.42a9.87,9.87,0,0,1,3.8-5.13c1.33-.88,3.63-.89,5.33-.51,10,2.2,19.51,0,29-2.88,4.14-1.24,8.29-2.82,12.54-3.23,3.84-.36,7.83.54,11.72,1.11,1.61.24,3.09,1.26,4.7,1.63,8.21,1.87,10.31.22,10.46-8.14.46-25.69,2.44-51.24,7-76.55.31-1.68,1.72-3.17,2.62-4.75.88,1.58,2.19,3.06,2.59,4.76,3.76,16.21,7.57,32.42,10.92,48.72a195,195,0,0,1,2.87,22.25c.64,7.38,2.21,9.12,9.47,9a13.14,13.14,0,0,1,4,.08c1.57.48,4.23,1.54,4.2,2.27-.06,1.88-1.19,5.22-2.17,5.32a123.55,123.55,0,0,1-18.15.42c-.85,0-2-2.84-2.27-4.47-2.77-19.44-5.36-38.91-8.05-58.36C241.24,418.36,240.48,414.84,239.68,410.39Z"/><path d="M386.05,337.47c-6.68,3.32-12.23,7.91-21.23,5.4,3.11-2.1,5.33-3.49,7.43-5.05,5.26-3.9,10.42-7.95,15.74-11.77,1-.71,3.32-1.27,3.7-.8,1.56,1.9,3.8,4.33,3.63,6.39-.62,7.75-3.66,15.14-10.59,18.86-8.54,4.6-9,10.57-6.67,18.71,2.58,9.11,4.45,18.43,6.31,27.72.5,2.48.53,5.51-.51,7.68-.77,1.62-3.6,2.26-5.52,3.34a24.69,24.69,0,0,1-1.42-4.84c-.58-6.45-.45-13-1.51-19.35-1.34-8-3.6-15.83-5.61-24.38-2.91,1.76-5.12,3.52-7.64,4.49a57,57,0,0,1-10,2.62c-.71.13-1.67-1.09-2.51-1.68.68-.77,1.47-2.27,2-2.19,5,.72,7.2-3.26,10.53-5.58a105.94,105.94,0,0,1,16.2-9.26C382.72,345.79,385.57,343.33,386.05,337.47Z"/><path d="M274.55,476.28c2-.69,4.29-2.4,5.92-1.91,12.62,3.83,25.11,1.39,37.66-.06,3.14-.36,6.31-.35,9.47-.45,3.83-.11,5.27,2.18,5.55,5.62.32,4-2.43,3.95-5.22,4.26-6.45.72-12.88,1.63-19.31,2.5-8,1.09-15.5.07-22.61-4.16-3.34-2-7.25-3-10.91-4.5Z"/><path d="M365.56,382.68c5.47,3.42,5,9,5.47,14.8C363.52,394.31,365.86,388,365.56,382.68Z"/><path class="cls-1" d="M224.3,293.58c-2.37-2.79-4.27-4.63-5.71-6.77-3.88-5.8-3.68-6.13,2.18-9.79.88-.55,1.19-2.09,1.63-3.22a23.43,23.43,0,0,0,.74-2.91c2.79,3.87,5.27,7,7.37,10.39.51.82.13,2.62-.44,3.62C228.53,287.59,226.66,290.1,224.3,293.58Z"/><path class="cls-1" d="M238,269.67c0,4.62-2.39,6.76-6.79,7.15C229.83,271.14,231.6,269.25,238,269.67Z"/><path class="cls-1" d="M191.83,165.83l14.77,3.63c-.15.64-.31,1.29-.46,1.93L191.31,168C191.48,167.29,191.66,166.56,191.83,165.83Z"/><path class="cls-1" d="M215.61,274.15c-3.25,2.18-5.4,1.09-6.28-3.91l6.82,2.05Z"/><path class="cls-1" d="M127.86,36.79V29.86c5.34-.29,10.6-.87,15.84-.71,1.72.05,3.38,2,5.07,3.09-1.54,1.21-3,3.24-4.64,3.47C138.82,36.43,133.42,36.48,127.86,36.79Z"/><path class="cls-1" d="M38.91,59.93c-.14-2.43-.23-4.18-.41-7.29,5.93,0,11.49-.24,17,.16,1.43.1,2.72,2.21,4.08,3.39-1.38,1-2.69,2.55-4.16,2.72C50.19,59.5,44.9,59.6,38.91,59.93Z"/><path class="cls-1" d="M37.92,41.05V34.69c5.46-.32,10.74-.88,16-.79,1.57,0,3.12,1.85,4.67,2.85-1.53,1.15-3,3.1-4.61,3.32C48.9,40.74,43.72,40.75,37.92,41.05Z"/><path d="M218.38,214.16c8.35,4.08,11.26-1.32,13.7-7.5,4.39,2.44,5.28,5.87,4.34,9.89-1,4.45-4.91,7.2-9.53,7.33C220.77,224,219.89,219.54,218.38,214.16Z"/><path d="M209.26,222.09c-1.91,8.44-8.33,12.73-15.71,17.91C195.67,230.14,202.81,226.37,209.26,222.09Z"/><path d="M209.85,198.06c-1.64,1.51-3.15,4.09-4.93,4.28-3.51.38-5.32-2.24-5.21-5.79.1-3.15,1.69-5,5-4.93C208.31,191.68,209.08,194,209.85,198.06Z"/><path d="M254.71,230.52c-6.91,0-11.54-4.06-14.68-12.94l.92-1.08,14.91,12.56Z"/><path d="M254.91,195.1l-6.41,5.31c-1.14-1.67-2.92-3.21-3.27-5-.56-2.94,1-5.57,4.29-5.14C251.05,190.44,252.32,192.66,254.91,195.1Z"/><path d="M141.69,381.9c-2-3.09-3.54-4.81-4.2-6.82-.24-.74,1.5-3,2.5-3.12,3.62-.42,4.11,2.64,4.36,5.21C144.44,378.17,143.21,379.31,141.69,381.9Z"/><path d="M328.19,356.26c-1.92,1.44-3.17,3-3.8,2.75-1.45-.51-2.6-1.88-3.88-2.9,1-1.08,2-3.09,2.92-3C324.77,353.17,326,354.71,328.19,356.26Z"/></g></g></svg>