<svg xmlns="http://www.w3.org/2000/svg" viewBox="0 0 152.12 124.11"><defs><style>.cls-1{isolation:isolate;}.cls-2{fill:#fcba33;}.cls-3,.cls-6{fill:#fed70a;}.cls-3{mix-blend-mode:multiply;}.cls-4{fill:#fff;}.cls-5{fill:#ffee98;}.cls-6{opacity:0.4;mix-blend-mode:screen;}</style></defs><g class="cls-1"><g id="Calque_2" data-name="Calque 2"><g id="DESIGNED_BY_FREEPIK" data-name="DESIGNED BY FREEPIK"><path class="cls-2" d="M146.27,50.52v-32A10.42,10.42,0,0,0,135.85,8.11H61.21L48.74,0H14.47A10.42,10.42,0,0,0,4.05,10.73L5.22,50.52Z"/><polygon class="cls-3" points="18.75 16.6 18.75 81.6 140.33 81.6 140.33 16.74 18.75 16.6"/><polygon class="cls-4" points="14.29 21.06 14.29 86.07 135.28 86.07 135.28 21.2 14.29 21.06"/><path class="cls-5" d="M.3,40.63,10.08,116A7.07,7.07,0,0,0,17.17,122H134.64a7.07,7.07,0,0,0,7.08-6l10.33-75.34A7,7,0,0,0,145,32.84H7.38A7,7,0,0,0,.3,40.63Z"/><path class="cls-2" d="M.06,42.71l9.79,75.35a7.05,7.05,0,0,0,7.08,6H134.4a7.07,7.07,0,0,0,7.08-6l10.34-75.34a7,7,0,0,0-7.09-7.83H7.15A7,7,0,0,0,.06,42.71Z"/><path class="cls-6" d="M144.46,96.4l7.36-53.64a7,7,0,0,0-7.09-7.83H43.7Z"/><polygon class="cls-6" points="29.16 34.93 143.09 106.31 142.38 111.11 24.13 34.93 29.16 34.93"/></g></g></g></svg>