<svg xmlns="http://www.w3.org/2000/svg" viewBox="0 0 2119.74 1140.88"><defs><style>.cls-1{fill:#dde8fd;}.cls-2{fill:#fa7269;}.cls-3{fill:#93b3f4;}.cls-4{fill:#bed2fa;}.cls-5{fill:#fff;}.cls-6{fill:#6d89cf;}.cls-7{fill:#fb8d85;}.cls-8{fill:#3662c1;}.cls-9{fill:#fc9290;}</style></defs><g id="Calque_2" data-name="Calque 2"><g id="Слой_2" data-name="Слой 2"><path class="cls-1" d="M58.25,1137.84c.11.08,1988.59-.23,1988.59-.23s5.75-11.78,13-27.19c5.34-11.43,11.95-26.59,18.81-44.84h0q1.92-5.1,3.86-10.5,2.72-7.59,5.42-15.76c.67-2,1.33-4.07,2-6.13,4-12.42,7.84-25.74,11.41-39.84.25-1,.5-2,.74-3,1.34-5.39,2.62-10.91,3.87-16.52q1-4.68,2-9.44l.13-.66c.24-1.18.48-2.36.71-3.54a583.82,583.82,0,0,0,9.7-72q.46-6.66.77-13.41t.44-13.73a479.06,479.06,0,0,0-6.28-88.49q-3-17.72-7.47-35.63-3.32-13.07-7.55-26.17c-.52-1.63-1.05-3.26-1.61-4.89a417.47,417.47,0,0,0-24.62-58.23c-.88-1.73-1.79-3.48-2.73-5.22A427.22,427.22,0,0,0,2044,600.77q-1.46-2.12-3-4.22-8.3-11.76-17.67-23.35-13.64-16.91-29.7-33.39-22.23-22.8-44.09-41.46-9-7.73-17.92-14.79-7.64-6.06-15.24-11.64c-.28-.22-.58-.43-.87-.64q-17.58-12.91-34.84-23.46c-2.35-1.43-4.69-2.84-7-4.23q-16.95-10-33.56-17.89c-2.42-1.15-4.83-2.28-7.24-3.37-75.76-34.49-146-39-208.12-33.26-48,4.42-91.22,14.95-128.38,22.45q-3.65.75-7.23,1.44c-24.19,4.7-45.67,7.79-64.09,6.59-29.42-1.92-53.4-19.79-79.18-46.15q-2.81-2.88-5.66-5.89c-15-15.87-30.81-34.38-48.75-54.09q-4.9-5.4-10-10.9-10.17-10.87-21.33-22.07c-1.15-1.15-2.31-2.29-3.48-3.44-2.52-2.47-5.09-5-7.7-7.44q-1.73-1.65-3.48-3.29c-8.49-8-17.44-15.92-27-23.83-41-34.1-92.35-67-160.27-92.09l-.09,0a671.68,671.68,0,0,0-95.44-27.2,1005.16,1005.16,0,0,0-122.45-17.66q-15.37-1.27-30.9-2.11-16.65-.88-33.41-1.24-10-.21-20.11-.22c-16.58,0-33.17.37-49.66,1.21q-8.79.45-17.51,1.05c-71.36,5-140.1,18.51-198.1,42.65-40.69,16.92-194,92.64-238.94,220.71-14.21,40.42-17.61,86.06-3.29,136.71,50.69,179.24-26.49,201.54-123,287C-3.62,905.17-45.12,1059,58.25,1137.84Z"/><rect class="cls-2" x="143.59" y="458.61" width="426" height="250.2"/><rect class="cls-3" x="1368.79" y="408.99" width="488.31" height="731.89"/><rect class="cls-3" x="569.55" y="361.76" width="584.19" height="777.3"/><rect class="cls-2" x="546.26" y="101.11" width="835.11" height="379.12"/><polygon class="cls-3" points="990.67 431.22 1429.71 16.12 1868.75 431.22 990.67 431.22"/><path class="cls-2" d="M1904.33,472a16.07,16.07,0,0,1-11-4.29L1429.71,64.34c-147.68,134.46-319.21,264-324.37,267.4a16.12,16.12,0,0,1-18.64-26.3c10.63-8.79,204.11-184.64,332.16-301.25a16.16,16.16,0,0,1,21.82.1l474.61,439.77a16.13,16.13,0,0,1-11,28Z"/><rect class="cls-4" x="861.65" y="361.76" width="584.19" height="777.3"/><polygon class="cls-4" points="861.65 361.76 1153.75 85.59 1445.84 361.76 861.65 361.76"/><path class="cls-3" d="M1238.26,453.34V603.77H1066.65V456.25a86.76,86.76,0,0,1,28.28-64.3,81,81,0,0,1,8.93-7.09,66.82,66.82,0,0,1,9.57-5.92,86.48,86.48,0,0,1,40.42-9.89,81.93,81.93,0,0,1,40.22,10.32,53.41,53.41,0,0,1,9.57,6,78.63,78.63,0,0,1,8.06,6.56A84.08,84.08,0,0,1,1238.26,453.34Z"/><path class="cls-5" d="M1241.11,430.77H1064.49l2.73-7.27A92.27,92.27,0,0,1,1091.31,388a84.91,84.91,0,0,1,9.5-7.55,71.34,71.34,0,0,1,10.15-6.27,92.37,92.37,0,0,1,42.89-10.49,86.81,86.81,0,0,1,42.84,11,58.08,58.08,0,0,1,10.26,6.47,79,79,0,0,1,8.38,6.84,90.41,90.41,0,0,1,23.27,35.63ZM1080.42,420h145.11A80.57,80.57,0,0,0,1208,395.85a69.47,69.47,0,0,0-7.43-6,48.63,48.63,0,0,0-8.86-5.6,76.48,76.48,0,0,0-37.86-9.79,81.61,81.61,0,0,0-37.92,9.28,58.82,58.82,0,0,0-8.83,5.46,74.06,74.06,0,0,0-8.52,6.75A82.08,82.08,0,0,0,1080.42,420Z"/><rect class="cls-3" x="984.78" y="425.43" width="335.37" height="178.3"/><rect class="cls-5" x="1147.09" y="425.42" width="10.75" height="178.31"/><rect class="cls-5" x="988.74" y="480.18" width="324.06" height="5.38"/><rect class="cls-5" x="988.74" y="538.77" width="324.06" height="5.38"/><rect class="cls-5" x="1072.5" y="425.42" width="10.75" height="178.31"/><rect class="cls-5" x="1221.68" y="425.42" width="10.75" height="178.31"/><rect class="cls-5" x="1309.4" y="425.42" width="10.75" height="178.31"/><rect class="cls-5" x="984.78" y="425.42" width="10.75" height="178.31"/><rect class="cls-5" x="984.8" y="592.98" width="335.37" height="10.75"/><rect class="cls-5" x="984.8" y="425.42" width="335.37" height="10.75"/><path class="cls-5" d="M1203.64,385.39,1153,439.05l-49.13-54.19a66.82,66.82,0,0,1,9.57-5.92l39.67,43.76,41-43.33A53.41,53.41,0,0,1,1203.64,385.39Z"/><rect class="cls-3" x="984.78" y="783.14" width="335.37" height="178.3"/><rect class="cls-5" x="1147.09" y="783.14" width="10.75" height="178.31"/><rect class="cls-5" x="988.74" y="837.9" width="324.06" height="5.38"/><rect class="cls-5" x="988.74" y="896.49" width="324.06" height="5.38"/><rect class="cls-5" x="1072.5" y="783.14" width="10.75" height="178.31"/><rect class="cls-5" x="1221.68" y="783.14" width="10.75" height="178.31"/><rect class="cls-5" x="1309.4" y="783.14" width="10.75" height="178.31"/><rect class="cls-5" x="984.78" y="783.14" width="10.75" height="178.31"/><rect class="cls-5" x="984.8" y="950.7" width="335.37" height="10.75"/><rect class="cls-5" x="984.8" y="783.14" width="335.37" height="10.75"/><rect class="cls-6" x="649.39" y="783.14" width="148.63" height="178.3"/><rect class="cls-5" x="788.8" y="783.14" width="9.24" height="178.31"/><rect class="cls-5" x="651.15" y="837.9" width="143.62" height="5.38"/><rect class="cls-5" x="651.15" y="896.49" width="143.62" height="5.38"/><rect class="cls-5" x="718.34" y="783.14" width="9.23" height="178.31"/><rect class="cls-5" x="649.39" y="783.14" width="9.23" height="178.31"/><rect class="cls-5" x="649.4" y="950.7" width="148.63" height="10.75"/><rect class="cls-5" x="649.4" y="783.14" width="148.63" height="10.75"/><rect class="cls-6" x="649.39" y="527.8" width="148.63" height="178.3"/><rect class="cls-5" x="788.8" y="527.79" width="9.24" height="178.31"/><rect class="cls-5" x="651.15" y="582.56" width="143.62" height="5.38"/><rect class="cls-5" x="651.15" y="641.14" width="143.62" height="5.38"/><rect class="cls-5" x="718.34" y="527.79" width="9.23" height="178.31"/><rect class="cls-5" x="649.39" y="527.79" width="9.23" height="178.31"/><rect class="cls-5" x="649.4" y="695.35" width="148.63" height="10.75"/><rect class="cls-5" x="649.4" y="527.79" width="148.63" height="10.75"/><rect class="cls-6" x="1574.64" y="391.03" width="148.63" height="178.3"/><rect class="cls-5" x="1714.04" y="391.03" width="9.24" height="178.31"/><rect class="cls-5" x="1576.39" y="445.79" width="143.62" height="5.38"/><rect class="cls-5" x="1576.39" y="504.38" width="143.62" height="5.38"/><rect class="cls-5" x="1643.59" y="391.03" width="9.23" height="178.31"/><rect class="cls-5" x="1574.64" y="391.03" width="9.24" height="178.31"/><rect class="cls-5" x="1574.65" y="558.59" width="148.63" height="10.75"/><rect class="cls-5" x="1574.65" y="391.03" width="148.63" height="10.75"/><path class="cls-7" d="M820.44,403.92a16.13,16.13,0,0,1-9.71-29c10.64-8.79,204.11-184.65,332.16-301.25a16.15,16.15,0,0,1,21.82.1L1490.85,376a16.13,16.13,0,1,1-21.93,23.66L1150.16,141C1011.82,259.82,834.52,397.78,829.37,401.21A16,16,0,0,1,820.44,403.92Z"/><rect class="cls-4" x="167.43" y="708.85" width="402.12" height="427.29"/><rect class="cls-8" x="1445.88" y="599.68" width="431.59" height="171.6"/><path class="cls-6" d="M1701.54,1093.37H1545.85V907.82a78.3,78.3,0,0,1,78.29-78.3h0a77.4,77.4,0,0,1,77.4,77.4Z"/><path class="cls-8" d="M1686.73,908.91v3.44H1560.61v-2.8A60.53,60.53,0,0,1,1621.15,849h5.7A59.83,59.83,0,0,1,1686.73,908.91Z"/><rect class="cls-8" x="1560.61" y="931.89" width="126.12" height="50.69"/><rect class="cls-8" x="1560.61" y="999.31" width="126.12" height="82.85"/><rect class="cls-6" x="1507.1" y="1090.48" width="233.18" height="16.8"/><rect class="cls-6" x="1487.37" y="1107.28" width="272.64" height="16.8"/><rect class="cls-6" x="1471.17" y="1124.08" width="305.05" height="16.8"/><rect class="cls-3" x="277.44" y="787.33" width="203.2" height="243.77"/><rect class="cls-5" x="468.03" y="787.32" width="12.63" height="243.77"/><rect class="cls-5" x="279.84" y="862.19" width="196.35" height="7.35"/><rect class="cls-5" x="279.84" y="942.29" width="196.35" height="7.35"/><rect class="cls-5" x="371.7" y="787.32" width="12.63" height="243.77"/><rect class="cls-5" x="277.44" y="787.32" width="12.63" height="243.77"/><rect class="cls-5" x="277.46" y="1016.4" width="203.2" height="14.7"/><rect class="cls-5" x="277.46" y="787.32" width="203.2" height="14.7"/><polygon class="cls-7" points="432.5 708.81 143.59 708.81 143.59 458.61 321.32 458.61 432.5 708.81"/><path class="cls-7" d="M773.66,480.22H546.26V101.11h85.48C656.14,168.63,731,367.22,773.66,480.22Z"/><polygon class="cls-6" points="1877.46 599.68 1877.46 771.28 1591.89 771.28 1705.22 599.68 1877.46 599.68"/><path class="cls-9" d="M799.21,79.53h23.67a10.88,10.88,0,0,1,10.88,10.88v92.27a0,0,0,0,1,0,0H788.12a0,0,0,0,1,0,0V90.62A11.09,11.09,0,0,1,799.21,79.53Z"/><polygon class="cls-2" points="777.42 69.8 843.95 69.8 810.94 38.34 777.42 69.8"/><polygon class="cls-2" points="796.9 79.53 793.94 79.53 793.49 68.9 797.55 68.9 796.9 79.53"/><polygon class="cls-2" points="827.4 79.53 824.44 79.53 823.99 68.9 828.05 68.9 827.4 79.53"/><path class="cls-6" d="M1973.25,1135h-55.64c-3-2.53,2.06-8.28,7.33-8.66a32.18,32.18,0,0,1,8.5,1c.76-10.17,5.13-55.89,21.62-54.05,18.53,2.05,0,20.13-5.24,30.84a253.49,253.49,0,0,0-9.85,24.66c1.51.32,3.06.64,4.66.94,2.45-7.55,11.59-32.91,23.21-31.44,13.65,1.73,8.16,11.91-1.51,17.94-7.09,4.44-15.81,10.75-19.95,13.8a59.09,59.09,0,0,0,10.89.87C1966.8,1130.72,1971.45,1133.53,1973.25,1135Z"/><path class="cls-6" d="M569.61,988v148.36l-350.52.1s11.21-39.77,55.36-61.51a101.53,101.53,0,0,1,13.65-5.75,141.8,141.8,0,0,1,18.81-5.07.37.37,0,0,0,.3-.1,63.14,63.14,0,0,0,8.77-2.34c62.38-21,65.21-117.94,244.28-76Q565.08,986.82,569.61,988Z"/><path class="cls-6" d="M300.66,1084.47s-52.54-69.79-76.06-51S300.66,1084.47,300.66,1084.47Z"/><path class="cls-6" d="M316.35,1077.42c0-3.14.78-67.44-21.18-62.74S316.35,1077.42,316.35,1077.42Z"/><path class="cls-6" d="M810.38,1134.66s25.1-53.45,81.56-54.17,87.61-66.59,140.26-63.45,58.92,54.76,96.56,63.45,141.16-10,147.43,57.36Z"/><path class="cls-6" d="M931.93,1080.49c0-.72-40.77-76.22-55.67-63.56S931.93,1080.49,931.93,1080.49Z"/><path class="cls-6" d="M917,1082.91s-36.46-22.35-53.71-16.86S917,1082.91,917,1082.91Z"/><path class="cls-6" d="M1006,1037c.39-2.35-.79-61.56-20.39-54.11S1006,1037,1006,1037Z"/><path class="cls-6" d="M1017.8,1026.05c.79-1.17,12.55-32.93,3.92-32.93s-3.13,31.76-3.13,31.76Z"/></g></g></svg>