<svg xmlns="http://www.w3.org/2000/svg" viewBox="0 0 196.02 218.29"><defs><style>.cls-1{fill:#c2d0ed;}.cls-2{fill:#9bb1dd;}.cls-3{fill:#f1cebe;}.cls-4{fill:#ec938b;}.cls-5{fill:#3e3735;}.cls-6{fill:#3f3430;}.cls-7{fill:#fbfbfb;}.cls-8{fill:#eb7b6e;}.cls-9{fill:#484848;}.cls-10{fill:#755e86;}.cls-11{fill:#4262ab;}.cls-12{isolation:isolate;}.cls-13{fill:#1b3f88;}</style></defs><g id="Calque_2" data-name="Calque 2"><g id="Calque_1-2" data-name="Calque 1"><g id="Calque_2-2" data-name="Calque 2"><g id="Calque_1-2-2" data-name="Calque 1-2"><path class="cls-1" d="M29.82,124.86a4.81,4.81,0,0,0-.24,3.44,3,3,0,0,0,.31.65,4.13,4.13,0,0,0,2.71,1.71,37.57,37.57,0,0,1,4.77-12.25c1.12-1.86-.33-2.07-1.26-2.84-1.24-1-1.75-.23-2.29.72a7.85,7.85,0,0,1-.47.66l-.76,1.46Z"/><path class="cls-2" d="M93.35,177.41A140,140,0,0,1,76.5,196.63a91.15,91.15,0,0,1-22.87,16c-1.3.62-2,.61-3-.63-4-4.93-8.18-9.73-12.27-14.55.54-.85,1.21-.5,1.76-.51a14.22,14.22,0,0,0,13.44-9.53c.47-1.41.87-2.85,1.2-4.3a8.51,8.51,0,0,1,4.62-5.85c3.56-1.87,7-3.95,9.11-7.55a2.14,2.14,0,0,1,1.5-.91,19.87,19.87,0,0,0,10-5.91c.92-1,1.62-1.09,2.65-.08,1.93,1.9,4,3.65,6,5.51a2.19,2.19,0,0,0,3.08.33l.14-.12c1.8-1.3,3.78-2.37,5.61-3.66a2,2,0,0,1,2.82.17l.06.07c1.36,1.23,2.81,2.36,4.1,3.65,1,1,1.66.86,2.45-.14a33.16,33.16,0,0,0,2.82-3.45c.87-1.46,1.59-1.19,2.68-.32a36.23,36.23,0,0,1,12.84,20c2,7.79,1.61,15.29-2.16,22.49-.17.33-.34.59.1.8-.48.68-1.28,1.25-.84,2.28-3.79-.15-7.53.48-11.29.69-2.23.12-4.46.31-6.67.59-1.52.19-2-.41-2.11-1.87a28.25,28.25,0,0,1,3.76-16c.85-1.53.49-2.15-.91-2.69-.44-.17-.84-.44-1.27-.65-1.46-.72-3.54-1.16-1.08-3.28.85-.73-.11-1.14-.7-1.41a52.81,52.81,0,0,0-8.81-3.62c-1.18-.31-1.21-.75-.66-1.66s1.08-2,1.61-3a3.81,3.81,0,0,0,1-3.2Z"/><path class="cls-3" d="M11.47,113.52c4-2.06,11.72-3.49,12.94-3.61a1.48,1.48,0,0,0,.88-.32,2.47,2.47,0,0,0,.62-1.25c1.12-3.64,3.46-7.21,5.59-8.56a14.71,14.71,0,0,0,2.36,11.86c.49.74.2,1.23-.15,1.83a32.71,32.71,0,0,0-3.31,7.63,2,2,0,0,1-.68,1.15,2,2,0,0,1-1.49.25,37.24,37.24,0,0,0-14.63,2.33c-3.14,1.34-4.78,3.11-6.29,2.29a4.78,4.78,0,0,1-1.71-2.41,8.44,8.44,0,0,1-.6-3.22C5.08,118.65,8,115.31,11.47,113.52Zm-3.81,9c3.69-1,7.25-2.38,11.05-2.88.46-.06.55-.6.5-1-.08-.71-.63-.53-1.08-.45a22.78,22.78,0,0,0-10.47,4.28Zm2-5c3.27-.3,6.41-1.44,9.71-1.69a.93.93,0,0,0,.78-1.06,1.21,1.21,0,0,0,0-.18c-.16-.71-.77-.34-1.18-.32a18.57,18.57,0,0,0-9.26,3.24Z"/><path class="cls-3" d="M153.16,105.41a5.62,5.62,0,0,1-.63-1.57,5.41,5.41,0,0,1-.13-1.7l.06-.36a8.32,8.32,0,0,1,2.42-4l.78-.48.87-.38.28-.1a8.12,8.12,0,0,0,4.44-2.74c.25-.26.52-.53.82-.8s.61-.54.91-.77a6.15,6.15,0,0,1-1.23,7.29,21.11,21.11,0,0,0-.75,5.81c.06.1.18.15.28.23a7.67,7.67,0,0,0,10.31-.76c.4-.46,1.1-.87.62-1.87-2.6,2.22-5.41,3.4-8.77,2a11.56,11.56,0,0,0,8-7.9c1.43.79,2.73,1.69,1.93,3.62-.28.69.24.79.54,1.08a3,3,0,0,1,1.16,2.22c-.89,2.22-1.88,4.31-4.36,5.24a7.47,7.47,0,0,1-6.57-.11c.4,1.69,1.53,1.91,2.65,2.16.49.11,1,.32,1,.85s-.42.63-.76.8a11.71,11.71,0,0,1-8.11.75,2.17,2.17,0,0,1-1-.45,4.48,4.48,0,0,1-1.73-3C156.11,110.14,154.25,107.41,153.16,105.41Z"/><path class="cls-1" d="M156.74,113.2a4.89,4.89,0,0,1,.71,3.38,3.29,3.29,0,0,1-.23.69,4.09,4.09,0,0,1-2.44,2.06,38,38,0,0,0-6.4-11.45c-1.37-1.69,0-2.09.85-3,1.09-1.19,1.71-.47,2.38.4.16.21.37.39.55.59l.94,1.32Z"/><path class="cls-3" d="M168.65,93.19a3.15,3.15,0,0,1,1.23,3.34,8.7,8.7,0,0,1-5.57,6.62c-.71.2-1.48.46-2-.28s0-1.33.5-1.92c1.93-2.4,3.07-5,1.76-8.1C165.92,92.93,167.33,92.41,168.65,93.19Z"/><path class="cls-4" d="M31.34,126.54c.79,0,1.24.22,1.28.87a.85.85,0,0,1-.76.92h-.11c-.58,0-1.07-.1-1-.88C30.74,126.91,30.86,126.52,31.34,126.54Z"/><path class="cls-5" d="M119.78,102.26l.33,1.48"/><path class="cls-5" d="M119.21,100.06l-.21-.65Z"/><path class="cls-5" d="M118.52,98.05a.72.72,0,0,1-.33-.77Z"/><path class="cls-5" d="M115.39,92.34l-.4-.52Z"/><path class="cls-5" d="M114.47,91.16l-.35-.39Z"/><path class="cls-5" d="M118.81,98.85l-.19-.43Z"/><path class="cls-5" d="M117.63,96l-.24-.42Z"/><path class="cls-5" d="M117.22,95.2l-.24-.41Z"/><path class="cls-6" d="M159.64,93.59l-.34-.35Z"/><path class="cls-5" d="M116,93.17l-.27-.36Z"/><path class="cls-7" d="M88.77,132.69c.36.14.74.27,1.1.42,3.7,1.55,3.71,1.55,3.43,5.72-.1,1.55-.23,3.09-.37,5,3-1.38,5.74-2.59,8.43-3.93a2.89,2.89,0,0,1,3,0c1.48.82,3.09,1.38,4.61,2.12,1.08.53,1.57.37,1.64-.92.14-2.63.52-5.26.52-7.9a3.46,3.46,0,0,1,2.38-3.5,34.93,34.93,0,0,1,1.34,14.58,51.75,51.75,0,0,1-6.81,21.1c-.24.4-.53.79-.76,1.2-.87,1.56-1.59,1.83-3.09.36-4.76-4.67-4.84-4.59-10.57-1.27C90,167.74,90,167.74,87,164.94c-1.34-1.24-2.65-2.52-4-3.74a1.13,1.13,0,0,1-.36-1.54,1.09,1.09,0,0,1,.13-.17,40.29,40.29,0,0,0,5.89-26.58S88.7,132.83,88.77,132.69Zm14.16,12.43a1.26,1.26,0,0,0,1.3-1.2,1.18,1.18,0,0,0-1-1.34h-.16a1.15,1.15,0,0,0-1.32,1,1.48,1.48,0,0,0,0,.21c-.08.82.41,1.21,1.19,1.39Zm-.83,7.11a1.24,1.24,0,0,0,1.24-1.26v-.06a1.16,1.16,0,0,0-1.12-1.2.74.74,0,0,0-.21,0,1.14,1.14,0,0,0-1.14,1.14v0c0,.8.46,1.22,1.23,1.33Zm-1.87,4.59c-.62.13-1.19.45-1.19,1.27a1.24,1.24,0,0,0,2.48.1h0c.09-.78-.45-1.19-1.29-1.37Z"/><path class="cls-2" d="M82.21,64.32c.74-.13.91.45,1.11.94a68.92,68.92,0,0,0,6,10.58c.64,1,.57,1.47-.55,2a74.93,74.93,0,0,0-9.88,5.57c-.89.58-1.39.42-2-.37-2.66-3.32-5.37-6.6-8.09-9.88-.52-.62-.73-1.06.09-1.62a70.78,70.78,0,0,1,12.93-7.13Z"/><path class="cls-8" d="M109.63,136.14c0,3.9-.21,4.22-3.4,2.51-3-1.62-5.24-.23-7.72.91-3.5,1.6-3.5,1.58-3.45-2.17,0-2.8,0-2.86,2.81-2.43a16.64,16.64,0,0,0,9.67-1.57c2.16-1,2.14-1,2.09,1.33C109.62,135.19,109.63,135.67,109.63,136.14Z"/><path class="cls-2" d="M55.81,83.9l1.19,1c3.11,2.82,5.57,6.2,8.24,9.41a1.16,1.16,0,0,1,0,1.64l-.14.12c-.66.72-1.07.15-1.45-.33-2.56-3.22-5.29-6.29-8.11-9.29a1.25,1.25,0,0,1-.25-1.64A10.36,10.36,0,0,0,55.81,83.9Z"/><path class="cls-9" d="M93.35,177.41l1.89-3.19a3.81,3.81,0,0,1-1,3.2Z"/><path class="cls-3" d="M117.23,98.77c-.14-.3-.24-.54-.31-.69l-.83-1.88-.32-.58a34.69,34.69,0,0,0-2.07-3c-2.09-2.53-3.51-2.53-5.68-.14h-.41a3.65,3.65,0,0,1,.46-2.7c.22-.43,1.36-.67.51-1.4A1.64,1.64,0,0,0,106.7,88c-3.38,1.85-7.23,2.23-10.81,3.46a100.41,100.41,0,0,1-12.17,4.18l-6.2,3.79a14.44,14.44,0,0,0-3.1,2.84,9.07,9.07,0,0,0-2.2,4.13,8.22,8.22,0,0,0,0,2.62,8.1,8.1,0,0,0,.3,1.2v.14a13.4,13.4,0,0,0,1.06,2.5,11,11,0,0,0,.61,1c-1.37,0-2.84-.1-3.46,1.41-.85,2.09-.16,4,1,5.75,1.06,1.55,2.87,2.51,4.39,1.76,2.63-1.31,3.51.35,4.71,1.9a14.83,14.83,0,0,0,1.39,1.47c8.15,8.08,20.27,9.46,29,3.26A11.58,11.58,0,0,0,116,123a32.39,32.39,0,0,1-4.4-.27c-1.16-.23-1.67,0-2.06,1.14-.46,1.43-1.27,2.93-3.08,2.68a3.27,3.27,0,0,0-2.54.79c-6.34,4.25-15.82,1.57-19.1-5.34-.28-.58-.2-.68.37-.62.11-.79.42-.6.88-.22a5,5,0,0,0,3.67,1.39,6.64,6.64,0,0,0,5.71-3.44,37.28,37.28,0,0,1,2.26-3.8,4.43,4.43,0,0,1,5.56-1.7c.62-.25,1.4.08,2-.47l4.83-2.37.39-.08a3,3,0,0,1,2.55,0h.35l5.5,1.36.19-.84a32.7,32.7,0,0,0,0-5.77v-.33l-.69-3-.09-.41m-40.41,7.15c-1.57.23-2.51,1.77-4.1,1.89l-.31-.39h0a1,1,0,0,0,.8-.82h0a7.51,7.51,0,0,1,3.17-2.08c.41.15,1-.19,1.21.43S78.36,108.75,77.93,108.81Zm8.28-5.91c-1.25-2.75-.64-5.23,1.42-6.7,1.84-1.32,3.35-1.29,4.82.08C88.14,97,86.56,98.59,86.21,102.9Zm7,5a2,2,0,1,1,2.15-2.08c-.23,1.31-.86,2.13-2.15,2.05Zm18.8-6.25a1.83,1.83,0,0,1-1.87-1.79,1.48,1.48,0,0,1,0-.21,1.88,1.88,0,0,1,1.75-2,1,1,0,0,1,.25,0,2,2,0,1,1-.18,4Z"/><path class="cls-5" d="M116.53,112.92l-.78-.21Z"/><path class="cls-8" d="M97.38,87a24.37,24.37,0,0,1-5.18-7.56l5.89-2-.19-.64a19.07,19.07,0,0,0-6.1,1.56l-2.56.93-.35.13-.87.36h-.13c-.47.26-1,.52-1.45.77s-1.07.56-1.59.82a52.49,52.49,0,0,0-6.1,4.16,42.58,42.58,0,0,0-7.61,6.57h0l-2.29,2.19-2.53,2.8c-.63.47-1.22,1-.52,1.8a1.6,1.6,0,0,0,.67.38c1.11.29,5.19-3.87,9.56-6a30,30,0,0,1,3.89-1.5,44.91,44.91,0,0,1,5.35-1.44c7.11-1.52,9.58-1.07,15-2.62a43.31,43.31,0,0,0,4.11-1.41,1.37,1.37,0,0,0-.56-.81c-.65-.4-1.57.06-2.26.35A15.56,15.56,0,0,1,97.38,87Z"/><path class="cls-5" d="M108.85,108.61l.18.41Z"/><path class="cls-5" d="M113,110.62h0Z"/><path class="cls-5" d="M118.8,111.51l.23-.33Z"/><path class="cls-5" d="M118.27,102.13l-.09-.41c.07.09.15.18.21.27S118.31,102.08,118.27,102.13Z"/><path class="cls-5" d="M112.87,112.09l-.47-.15Z"/><path class="cls-5" d="M117.7,100.17a.36.36,0,0,1,.08.33"/><path class="cls-5" d="M120.69,112.74l-.43.14Z"/><path class="cls-10" d="M67.36,98.51l.39-.43Z"/><path class="cls-5" d="M107.55,113.1l-.31.17A.33.33,0,0,1,107.55,113.1Z"/><polygon class="cls-10" points="88.02 79.75 87.89 79.8 87.92 79.67 88.02 79.75"/><path class="cls-5" d="M116.09,96.2l-.32-.58Z"/><path class="cls-4" d="M194.76,135.26c-.13,1.1-.81,1.27-1.63,1.07a4.21,4.21,0,0,1-1.95-1.4l-20.87-22.72c-.28-.3-1-.7-.24-1,1-.43,2-1.71,3.26-.4s2.2,2.39,3.28,3.6l16.94,18.88A5,5,0,0,1,194.76,135.26Z"/><path class="cls-4" d="M159,94.49l-1.73.74h0l-.51.31-1.15.4a1.94,1.94,0,0,1-2-.68c-7.2-7.85-14.48-15.7-21.61-23.62a7.74,7.74,0,0,1,9.64-11.93,8.6,8.6,0,0,1,1.3.94c1.1.92,1.41,2.06.51,3.21a2,2,0,0,1-3.2.19,3.5,3.5,0,0,0-4.12-.7c-2.29,1.19-2.53,3.61-.56,5.79,2.53,2.82,5.1,5.61,7.67,8.39,4,4.36,3.21,4,14.5,15.59Z"/><path class="cls-6" d="M156.76,95.56l.51-.31Z"/><path class="cls-11" d="M38.71,114.83a1.92,1.92,0,0,1-.18.31m0,0c-2.47,4.08-3.92,8.61-5.34,13.14-.92,2.94-.92,3.06,1.8,4.37a71,71,0,0,0,28.69,7.5c3.16.11,3.16.07,2.72,3.28a4.17,4.17,0,0,1-.1.6c-2.35,10.32-8.46,17.82-17.44,23.16-.41.25-1,.26-1.25,1,5.12,2.67,10.57,2.48,16.35,2.18-1.64,2.21-3.27,4-5.66,4.78-4,1.32-5.91,4.14-6.42,8.25a14.14,14.14,0,0,1-10.7,11.67c-4.46,1.12-8.32.36-11.26-3.47-.79-1-1.65-2-2.44-3-.53-.68-1-1.23-2-.89s-.7,1.2-.67,1.88a18.92,18.92,0,0,0,8.47,15.22,39,39,0,0,0,8.26,4.34c.67.26,1.55.54.7,1.31-1.4,1.27-.75,2.12.25,3.12.77.76,1.42,1.63,2.14,2.45,2.37,2.72,2.37,2.72,5.71,1.38.19-.08.38-.14.57-.23,15.43-7.84,29.42-17.38,38.69-32.54a1.76,1.76,0,0,1,2.27-1l0,0a47.22,47.22,0,0,1,8.34,3.66c-1.77,2.65-1.77,2.65,1.2,4.12a7.56,7.56,0,0,0,.9.45c1.31.47,1.45,1,.76,2.36-3.14,6-4.61,12.29-3.14,19,1,4.63,1,4.63,5.69,4.67h1.83c1.11.09,2,0,2-1.48,0-.8.28-1.26,1.25-.79,5,2.4,10.24,2.42,15.54,2A15.36,15.36,0,0,0,137,212.52a1.91,1.91,0,0,0,.51-2.37c-.49-.92-1.23-.27-1.8-.17a47.17,47.17,0,0,1-13.37.34c-3.79-.15-7.53.49-11.29.69-2.23.13-4.46.32-6.67.59-1.52.19-2-.4-2.11-1.87a28.09,28.09,0,0,1,3.76-16c.85-1.54.49-2.15-.91-2.69-.44-.17-.84-.44-1.27-.65-1.46-.73-3.54-1.17-1.08-3.28.85-.74-.11-1.14-.71-1.42a53.92,53.92,0,0,0-8.8-3.62c-1.18-.3-1.21-.74-.66-1.66s1.08-2,1.61-3h-.85a139.34,139.34,0,0,1-16.84,19.23,91.15,91.15,0,0,1-22.87,16c-1.3.62-2,.61-3-.63-4-4.93-8.17-9.73-12.26-14.55.54-.84,1.21-.5,1.76-.5a14.22,14.22,0,0,0,13.43-9.55,40.33,40.33,0,0,0,1.2-4.3,8.49,8.49,0,0,1,4.62-5.84c3.56-1.87,7-4,9.11-7.56a2.1,2.1,0,0,1,1.5-.91,20.08,20.08,0,0,0,10-5.9c.92-1,1.62-1.1,2.65-.09,1.92,1.9,4,3.65,6,5.51a2.19,2.19,0,0,0,3.08.33l.13-.11c1.81-1.31,3.79-2.38,5.62-3.66a2,2,0,0,1,2.82.16l.06.07c1.35,1.24,2.81,2.36,4.09,3.66,1,1,1.67.85,2.46-.15a32.14,32.14,0,0,0,2.82-3.45c.87-1.46,1.59-1.19,2.67-.31a36.18,36.18,0,0,1,12.85,19.94c2,7.8,1.61,15.29-2.16,22.5-.17.32-.34.58.1.79,1.33-.66,1.81-2,2.3-3.21C130,193.75,129,183.18,122,173.3c-.52-.74-1.14-1.41-1.78-2.2,2.81-1.18,5.15-2.56,6.44-5.36a10.52,10.52,0,0,1-8.69-7.49c-2.47-7.11-.74-13.75,2.43-20.19.32-.65.9-.73,1.52-.82,2.15-.31,26.45-9.49,30.53-12.61A16.75,16.75,0,0,0,155.2,122a2.92,2.92,0,0,0,.87-1.21,3.19,3.19,0,0,0-.07-2.07c-1.3-4.06-6.35-13-8.9-14a2.27,2.27,0,0,0-1.62-.13,2.2,2.2,0,0,0-.82.63,63.72,63.72,0,0,1-13.44,8.63,22.2,22.2,0,0,1-6.17,2.16l.49-2,.27-1.16a8.21,8.21,0,0,0-.08-3.59c-.19-.68-.37-.9-.57-.93s-.59.34-.91.82a7.49,7.49,0,0,1-1.45,1.18,7.7,7.7,0,0,1-2,.86c0-.93-.08-1.88-.14-2.85,0-.69-.08-1.37-.14-2l-1.08-5.3-.21-.82-.23-.78-.17-.53-.18-.43-.1-.37-.34-.78L117.66,96l-.24-.43-.17-.38-.24-.42-1-1.62-.28-.36-.35-.46-.4-.53-.52-.66-.35-.39c-1.24-1.71-3.09-2.71-4.85-4,1.08-.81,2.09-1.49,3-2.27a9.52,9.52,0,0,0,3.29-4.3c.22-.68.51-1.52-.39-2a1.66,1.66,0,0,0-2,.5,13,13,0,0,0-1.1,1.46,21.3,21.3,0,0,1-3.4,3.76c-1.07.89-1.77.91-2.81-.26A112.3,112.3,0,0,1,91.55,63c-.84-1.53-1.83-2.07-3.39-1.8a23,23,0,0,0-3.35.8,76.46,76.46,0,0,0-14.57,6.68A53.79,53.79,0,0,0,54.35,83c-1.86,2.51-1.69,3.29.51,5.38a92.29,92.29,0,0,1,9.47,11.14c.64.84.6,1.28-.17,2a11.41,11.41,0,0,0-3.39,5.9c-1.4,5.75,1.58,9.18,7.45,8.56.4,0,1.14-.44,1,.35-.25,1.63.37,3.11.8,4.78-10-.88-19.19-3.31-27.52-8.55a13.29,13.29,0,0,0-1.59-.71m74,32.46a51.84,51.84,0,0,1-6.8,21.09c-.24.41-.52.79-.75,1.2-.87,1.56-1.59,1.83-3.09.37-4.76-4.68-4.84-4.6-10.57-1.28-3.58,2.07-3.59,2.08-6.65-.73-1.35-1.24-2.66-2.51-4-3.74a1.13,1.13,0,0,1-.36-1.54,1.09,1.09,0,0,1,.13-.17A40.25,40.25,0,0,0,88.66,133s.07-.12.14-.25c.36.13.74.27,1.1.42,3.7,1.54,3.71,1.54,3.43,5.71-.1,1.55-.23,3.1-.37,5,3-1.38,5.74-2.58,8.43-3.93a2.87,2.87,0,0,1,3,0c1.48.81,3.09,1.37,4.61,2.12,1.08.52,1.57.36,1.64-.92.14-2.64.52-5.27.52-7.9a3.46,3.46,0,0,1,2.38-3.51,35,35,0,0,1,1.34,14.57Zm-19.78-6.91c0-2.8,0-2.86,2.81-2.43a16.71,16.71,0,0,0,9.67-1.56c2.16-1,2.14-1,2.09,1.32v1.42c0,3.9-.21,4.22-3.4,2.52-3-1.62-5.24-.23-7.72.9C95,141.16,95,141.14,95.08,137.41Zm30-25.89a26.59,26.59,0,0,1-1.22,3.1c-.26.54-.47.94-.51,1a11.39,11.39,0,0,1-13.52,5c-1.22-.45-1.65-.11-2.25.78-1.9,2.82-4.2,5.18-7.7,5.92-6.25,1.31-10.9-1.34-14.7-6-.57-.06-.65,0-.37.62,3.28,6.91,12.76,9.58,19.1,5.33a3.33,3.33,0,0,1,2.53-.79c1.82.25,2.63-1.24,3.09-2.68.39-1.18.9-1.36,2.06-1.13a32.39,32.39,0,0,0,4.4.27,11.56,11.56,0,0,1-4.82,6.41c-8.68,6.2-20.81,4.83-28.95-3.25a16.33,16.33,0,0,1-1.4-1.48c-1.19-1.55-2.07-3.21-4.7-1.9-1.52.76-3.33-.2-4.39-1.76-1.18-1.74-1.87-3.65-1-5.74.62-1.51,2.08-1.45,3.46-1.42-.2-.31-.41-.65-.61-1a14.15,14.15,0,0,1-1.07-2.5v-.14a6.29,6.29,0,0,1-.3-1.19c-.48-3.2,1.57-5.87,2.25-6.76a12.3,12.3,0,0,1,3.1-2.83L106.74,88a1.59,1.59,0,0,1,1.87.41c.86.73-.28,1-.5,1.39a3.68,3.68,0,0,0-.46,2.71c.17,0,.36.09.41,0,2.17-2.4,3.58-2.39,5.68.14.78.93,1.38,2,2.07,3l.32.58.83,1.87.3.7c.19.54.35,1,.47,1.39.28.86.42,1.33.54,1.8v.16l.68,3v.33a32.82,32.82,0,0,1,0,5.78l-.23.33a13.12,13.12,0,0,1-2-.2c-3.06-.43-3.59-1.11-5.44-1-1,.08-1.34.32-1.76,0s-.39-.94-1.15-2.85a5.45,5.45,0,0,0-.56-1c-.58-.82-.9-.81-1-.8a.52.52,0,0,0-.27.1c-.19.14-.27.26-.27.37,0,.29.36.44.68.89a2.13,2.13,0,0,1,.36.91,3,3,0,0,1,.2.6,5,5,0,0,1-.08,2.68h0L105,112.41l.24.6a1.68,1.68,0,0,0,1.18.49,1.66,1.66,0,0,0,.81-.27l.31-.16,2.1-1.3a32.09,32.09,0,0,1,3.22.29,7.17,7.17,0,0,1,1.21.23l.84.23.83.16.78.21a5.81,5.81,0,0,0,3.73,0l.43-.14a4.75,4.75,0,0,0,2.78-1.71c.34-.33.61-.63.82-.87s.38-.47.51-.44.28.58.32.85a3.85,3.85,0,0,1,0,1Z"/><path class="cls-11" d="M97.71,115.24a37.28,37.28,0,0,0-2.26,3.8,6.64,6.64,0,0,1-5.71,3.44c2.72,1.23,5.54.15,7.24-3,1.45-2.72,3.26-4.92,6.29-5.9A4.42,4.42,0,0,0,97.71,115.24Z"/><path class="cls-11" d="M86.21,102.9c-1.25-2.75-.64-5.23,1.42-6.7,1.84-1.32,3.35-1.29,4.82.08C88.14,97,86.56,98.59,86.21,102.9Z"/><path class="cls-11" d="M114.18,99.69a1.94,1.94,0,0,1-1.94,1.94H112a1.83,1.83,0,0,1-1.87-1.79,1.48,1.48,0,0,1,0-.21,1.88,1.88,0,0,1,1.75-2,1,1,0,0,1,.25,0,2,2,0,0,1,2,2Z"/><path class="cls-11" d="M95.36,105.8c-.23,1.33-.86,2.15-2.15,2.07a2,2,0,1,1,2.15-2.07Z"/><path class="cls-11" d="M73.83,110.7l-.31-.39c.12-.1.25-.21.38-.34a4.81,4.81,0,0,0,.42-.48,8.19,8.19,0,0,1,1.45-1.24,8.77,8.77,0,0,1,1.74-.92,1.28,1.28,0,0,1,1,.23,1,1,0,0,1,.17.28c.17.6-.34.91-.77,1C76.36,109,75.42,110.58,73.83,110.7Z"/><path class="cls-11" d="M77.44,106.47a30.46,30.46,0,0,0-3.34,1.25c-.2.07-.47.15-.54.06a8.57,8.57,0,0,1,1.5-1.75,10.45,10.45,0,0,1,1.29-.92c.38-.24.9-.59,1.35-.44a.81.81,0,0,1,.43.34C78.31,105.41,78.07,106,77.44,106.47Z"/><path class="cls-4" d="M102.93,145.12c-.78-.18-1.27-.57-1.19-1.39a1.14,1.14,0,0,1,1.13-1.17.69.69,0,0,1,.2,0,1.18,1.18,0,0,1,1.17,1.19.86.86,0,0,1,0,.16A1.26,1.26,0,0,1,102.93,145.12Z"/><path class="cls-4" d="M102.1,152.23c-.77-.11-1.27-.53-1.23-1.33a1.14,1.14,0,0,1,1.1-1.18h0a1.17,1.17,0,0,1,1.32,1,1.48,1.48,0,0,1,0,.21,1.25,1.25,0,0,1-1.18,1.32Z"/><path class="cls-4" d="M100.23,156.82c.84.18,1.38.54,1.29,1.37a1.24,1.24,0,0,1-2.48-.1h0C99,157.27,99.61,157,100.23,156.82Z"/><path class="cls-4" d="M67.7,96.06c.36-.3.91-.76,1.56-1.35,1-1,1.68-1.64,2.25-2.22s1.92-1.76,4.49-4c1.88-1.63,2.48-2.12,3.13-1.93s1,.9,1.38,1.75a7,7,0,0,1,.66,2.1A26.43,26.43,0,0,0,72,94.53a36.58,36.58,0,0,0-3,2.12c-.62.51-.83.64-1.07.6a.69.69,0,0,1-.5-.48A.71.71,0,0,1,67.7,96.06Z"/><path class="cls-1" d="M81.7,96.58C74.79,99.16,69.22,103,68,111a5.16,5.16,0,0,1-1-6c1.27-3,3.68-5,6.32-6.66A51.93,51.93,0,0,1,94.2,91c1.4-.2,2.8-.36,4.21-.54"/><g class="cls-12"><g class="cls-12"><path class="cls-13" d="M13.77,14.4a11.9,11.9,0,0,1,2.5,3,7.45,7.45,0,0,1,.92,3.73,8,8,0,0,1-.59,3A8.47,8.47,0,0,1,15,26.71a8.8,8.8,0,0,1-2.39,1.82,7.73,7.73,0,0,1-2.95.85L0,29.43v-27H8.85a7,7,0,0,1,5,2.1,7,7,0,0,1,1.49,2.23,6.61,6.61,0,0,1,.54,2.65A6.69,6.69,0,0,1,13.77,14.4ZM1.53,3.92V27.85H9.16a6.56,6.56,0,0,0,2.64-.53,6.83,6.83,0,0,0,2.14-1.44,6.76,6.76,0,0,0,1.45-2.13,6.47,6.47,0,0,0,.54-2.62,6.92,6.92,0,0,0-.38-2.29,6.66,6.66,0,0,0-1.09-1.95,6.73,6.73,0,0,0-3.72-2.35,5.57,5.57,0,0,0,2.6-2,5.2,5.2,0,0,0,1-3.18,5.5,5.5,0,0,0-.42-2.13,5.41,5.41,0,0,0-1.18-1.74A5.32,5.32,0,0,0,11,4.34a5.55,5.55,0,0,0-2.14-.42ZM2,14.35V4.41H8.85a4.91,4.91,0,0,1,3.52,1.44,5,5,0,0,1,1.06,1.57,4.87,4.87,0,0,1,.38,1.94,4.91,4.91,0,0,1-1.44,3.51A5.28,5.28,0,0,1,10.79,14a4.6,4.6,0,0,1-1.9.4ZM2,27.4V14.85H8.87a.83.83,0,0,1,.26,0v0a6.14,6.14,0,0,1,4.44,1.84,6.83,6.83,0,0,1,1.33,2,6.27,6.27,0,0,1,.49,2.45,6.13,6.13,0,0,1-.49,2.43,7,7,0,0,1-1.33,2A6.14,6.14,0,0,1,9.13,27.4ZM3.56,5.94v6.88H8.82a3.09,3.09,0,0,0,1.35-.29,3.72,3.72,0,0,0,1.1-.76,3.77,3.77,0,0,0,.75-1.1,3.49,3.49,0,0,0,.27-1.31A3.26,3.26,0,0,0,12,8.08,3.55,3.55,0,0,0,11.27,7a3.75,3.75,0,0,0-1.1-.77,3.24,3.24,0,0,0-1.35-.29Zm0,10.44v9.5H8.84a4.75,4.75,0,0,0,1.83-.37,4.18,4.18,0,0,0,1.52-1,5.38,5.38,0,0,0,1-1.5,4.6,4.6,0,0,0,.38-1.85,4.74,4.74,0,0,0-.38-1.87,5.15,5.15,0,0,0-1-1.51,5,5,0,0,0-1.49-1,4.62,4.62,0,0,0-1.86-.38Z"/><path class="cls-13" d="M20.29,29.43v-27h1.53V29.43Zm3.56-27V29.43H22.32v-27h1.53Z"/><path class="cls-13" d="M41.31,29.43H28.48v-27H41.31V3.92H30v24h11.3ZM32,15.75h7v1.53H30.51V4.41h10.8V5.94H32Zm7,3.6H32v6.53h9.27V27.4H30.51V17.82h8.55Z"/></g><g class="cls-12"><path class="cls-13" d="M64,2.38h1.53V26.91l-18.14-23H47V29.43H45.49v-27h2.66L64,22.5Zm3.6,0V29.43H64.93L49.05,9.27V29.43H47.52V4.9l18.13,23h.41V2.38Z"/></g><g class="cls-12"><path class="cls-13" d="M92.93,2.38,83.25,29.43H80.73l-9.63-27h1.62L81.81,27.9h.36L89.5,7.38l1.81-5Zm-3.83,0h1.62L82,26.86,75.33,8.19,73.26,2.38h1.62L82,22.32Z"/><path class="cls-13" d="M109.35,29.43H96.52v-27h12.83V3.92H98.05v24h11.3Zm-9.27-13.68h7v1.53H98.55V4.41h10.8V5.94h-9.27Zm7,3.6h-7v6.53h9.27V27.4H98.55V17.82h8.55Z"/><path class="cls-13" d="M132,2.38h1.53V26.91l-18.14-23h-.36V29.43h-1.53v-27h2.66L132,22.5Zm3.6,0V29.43H133L117.09,9.27V29.43h-1.53V4.9l18.13,23h.41V2.38Z"/><path class="cls-13" d="M158.53,2.38h1.53V19.75a9.66,9.66,0,0,1-.81,3.92,10.28,10.28,0,0,1-5.4,5.4,9.61,9.61,0,0,1-3.91.81,10.37,10.37,0,0,1-3.87-.74A9.85,9.85,0,0,1,142.78,27v-.05a10.12,10.12,0,0,1-3-7.16V2.38h1.53V19.72a8.37,8.37,0,0,0,.68,3.33,8.84,8.84,0,0,0,1.84,2.76,8.44,8.44,0,0,0,2.75,1.87,8.61,8.61,0,0,0,6.66,0A8.39,8.39,0,0,0,156,25.81a8.86,8.86,0,0,0,1.85-2.76,8.36,8.36,0,0,0,.67-3.33Zm-15.16,0V19.75a6.29,6.29,0,0,0,.52,2.55,6.94,6.94,0,0,0,1.39,2.09,6.64,6.64,0,0,0,2.07,1.42,6.83,6.83,0,0,0,5.18,0,6.64,6.64,0,0,0,2.07-1.42A6.94,6.94,0,0,0,156,22.3a6.29,6.29,0,0,0,.52-2.55V2.38H158V19.75a7.76,7.76,0,0,1-.65,3.15,8.36,8.36,0,0,1-1.76,2.59A8,8,0,0,1,153,27.22a7.68,7.68,0,0,1-3.1.63,7.81,7.81,0,0,1-3.15-.63,8,8,0,0,1-4.32-4.32,7.91,7.91,0,0,1-.63-3.15V2.38Z"/><path class="cls-13" d="M177,29.43H164.16v-27H177V3.92H165.69v24H177Zm-9.27-13.68h7v1.53h-8.55V4.41H177V5.94h-9.27Zm7,3.6h-7v6.53H177V27.4h-10.8V17.82h8.55Z"/><path class="cls-13" d="M193.81,27.31A2.25,2.25,0,0,1,196,29.52a2,2,0,0,1-.66,1.53,2.14,2.14,0,0,1-1.55.63,2.15,2.15,0,0,1-2.16-2.16,2.14,2.14,0,0,1,.63-1.55A2,2,0,0,1,193.81,27.31Zm-.22-3h-1.53V0h1.53Zm.22,4.23a.88.88,0,0,0-.67.29,1,1,0,0,0-.27.7.9.9,0,0,0,.27.67.87.87,0,0,0,.67.27,1,1,0,0,0,.7-.27.88.88,0,0,0,.29-.67,1,1,0,0,0-1-1Zm0,.49a.44.44,0,0,1,.5.5c0,.3-.17.45-.5.45a.4.4,0,0,1-.45-.45C193.36,29.19,193.51,29,193.81,29Zm1.8-29V24.3h-1.53V0Z"/></g></g></g></g></g></g></svg>