<svg xmlns="http://www.w3.org/2000/svg" viewBox="0 0 199.75 224.87"><defs><style>.cls-1{fill:#c2d0ed;}.cls-2{fill:#9bb1dd;}.cls-3{fill:#f1cebe;}.cls-4{fill:#ec938b;}.cls-5{fill:#3e3735;}.cls-6{fill:#3f3430;}.cls-7{fill:#fbfbfb;}.cls-8{fill:#eb7b6e;}.cls-9{fill:#484848;}.cls-10{fill:#755e86;}.cls-11{fill:#4262ab;}.cls-12{font-size:45px;fill:#1b3f88;font-family:Monopoly-Inline, Monopoly;}.cls-13{letter-spacing:-0.01em;}</style></defs><g id="Calque_2" data-name="Calque 2"><g id="Calque_1-2" data-name="Calque 1"><path class="cls-1" d="M29.82,131.45a4.79,4.79,0,0,0-.24,3.44,3,3,0,0,0,.31.65,4.12,4.12,0,0,0,2.71,1.71A37.69,37.69,0,0,1,37.37,125c1.12-1.86-.33-2.07-1.26-2.84-1.24-1-1.75-.23-2.29.72a7.85,7.85,0,0,1-.47.66L32.59,125Z"/><path class="cls-2" d="M93.35,184A139.41,139.41,0,0,1,76.5,203.22a91.09,91.09,0,0,1-22.87,16c-1.3.62-2,.61-3-.63-4-4.93-8.18-9.73-12.27-14.55.54-.85,1.21-.5,1.76-.51A14.21,14.21,0,0,0,53.56,194a43.58,43.58,0,0,0,1.2-4.3,8.52,8.52,0,0,1,4.62-5.85c3.56-1.87,7-3.95,9.11-7.55a2.14,2.14,0,0,1,1.5-.91,19.9,19.9,0,0,0,10-5.91c.92-1,1.62-1.09,2.65-.08,1.93,1.9,4,3.65,6,5.51a2.19,2.19,0,0,0,3.22.21c1.8-1.3,3.78-2.37,5.61-3.66a2,2,0,0,1,2.88.24c1.36,1.23,2.81,2.36,4.1,3.65,1,1,1.66.86,2.45-.14a32.69,32.69,0,0,0,2.82-3.45c.87-1.46,1.59-1.19,2.68-.32a36.23,36.23,0,0,1,12.84,19.95c2,7.79,1.61,15.29-2.16,22.49-.17.33-.34.59.1.8-.48.68-1.28,1.25-.84,2.28-3.79-.15-7.53.48-11.29.69-2.23.12-4.46.31-6.67.59-1.52.19-2-.41-2.11-1.87a28.19,28.19,0,0,1,3.76-16c.85-1.53.49-2.15-.91-2.69-.44-.17-.84-.44-1.27-.65-1.46-.72-3.54-1.16-1.08-3.28.85-.73-.11-1.14-.7-1.41a53.51,53.51,0,0,0-8.81-3.62c-1.18-.31-1.21-.75-.66-1.66s1.08-2,1.61-3a3.79,3.79,0,0,0,1-3.2Z"/><path class="cls-3" d="M11.47,120.11c4-2.06,11.72-3.49,12.94-3.61a1.52,1.52,0,0,0,.88-.32,2.5,2.5,0,0,0,.62-1.25c1.12-3.64,3.46-7.21,5.59-8.56a14.69,14.69,0,0,0,2.36,11.86c.49.74.2,1.23-.15,1.83a32.71,32.71,0,0,0-3.31,7.63,2,2,0,0,1-.68,1.15,2.07,2.07,0,0,1-1.49.25,37.22,37.22,0,0,0-14.63,2.33c-3.14,1.34-4.78,3.11-6.29,2.29A4.79,4.79,0,0,1,5.6,131.3a8.47,8.47,0,0,1-.6-3.22C5.08,125.24,8,121.9,11.47,120.11Zm-3.81,9c3.69-.95,7.25-2.38,11.05-2.88.46-.06.55-.6.5-1-.08-.71-.63-.53-1.08-.45A22.78,22.78,0,0,0,7.66,129.06Zm2-5c3.27-.3,6.41-1.44,9.71-1.69a.93.93,0,0,0,.73-1.24c-.16-.71-.77-.34-1.18-.32A18.63,18.63,0,0,0,9.66,124.1Z"/><path class="cls-3" d="M153.16,112a5.8,5.8,0,0,1-.63-1.57,5.47,5.47,0,0,1-.13-1.7l.06-.36a8.3,8.3,0,0,1,2.42-4l.78-.48.87-.38.28-.1a8.34,8.34,0,0,0,2.44-1,8.24,8.24,0,0,0,2-1.74c.25-.26.52-.53.82-.8s.61-.54.91-.77a6.14,6.14,0,0,1-1.23,7.29,20.83,20.83,0,0,0-.75,5.81c.06.1.18.15.28.23a7.67,7.67,0,0,0,10.31-.76c.4-.46,1.1-.87.62-1.87-2.6,2.22-5.41,3.4-8.77,2a11.56,11.56,0,0,0,8-7.9c1.43.79,2.73,1.69,1.93,3.62-.28.69.24.79.54,1.08a3,3,0,0,1,1.16,2.22c-.89,2.22-1.88,4.31-4.36,5.24a7.44,7.44,0,0,1-6.57-.11c.4,1.69,1.53,1.91,2.65,2.16.49.11.95.32,1,.85s-.42.63-.76.8a11.7,11.7,0,0,1-8.11.75,2.17,2.17,0,0,1-1-.45,4.49,4.49,0,0,1-1.73-3.05C156.11,116.73,154.25,114,153.16,112Z"/><path class="cls-1" d="M156.74,119.79a4.87,4.87,0,0,1,.71,3.38,3.63,3.63,0,0,1-.23.69,4.07,4.07,0,0,1-2.44,2.06,37.94,37.94,0,0,0-6.4-11.45c-1.37-1.69,0-2.09.85-3,1.09-1.19,1.71-.47,2.38.4.16.21.37.39.55.59l.94,1.32Z"/><path class="cls-3" d="M168.65,99.78a3.16,3.16,0,0,1,1.23,3.34,8.7,8.7,0,0,1-5.57,6.62c-.71.2-1.48.46-2-.28s0-1.33.5-1.92c1.93-2.4,3.07-5,1.76-8.1C165.92,99.52,167.33,99,168.65,99.78Z"/><path class="cls-4" d="M31.34,133.13c.79,0,1.24.22,1.28.87a.84.84,0,0,1-.87.92c-.58,0-1.07-.1-1-.88C30.74,133.5,30.86,133.11,31.34,133.13Z"/><path class="cls-5" d="M119.78,108.85l.33,1.48"/><path class="cls-5" d="M119.21,106.65,119,106Z"/><path class="cls-5" d="M118.52,104.64a.72.72,0,0,1-.33-.77Z"/><path class="cls-5" d="M115.39,98.93l-.4-.52Z"/><path class="cls-5" d="M114.47,97.75l-.35-.39Z"/><path class="cls-5" d="M118.81,105.44l-.19-.43Z"/><path class="cls-5" d="M117.63,102.6l-.24-.42Z"/><path class="cls-5" d="M117.22,101.79l-.24-.41Z"/><path class="cls-6" d="M159.64,100.18l-.34-.35Z"/><path class="cls-5" d="M116,99.76l-.27-.36Z"/><path class="cls-7" d="M88.77,139.28c.36.14.74.27,1.1.42,3.7,1.55,3.71,1.55,3.43,5.72-.1,1.55-.23,3.09-.37,5,3-1.38,5.74-2.59,8.43-3.93a2.88,2.88,0,0,1,3,0c1.48.82,3.09,1.38,4.61,2.12,1.08.53,1.57.37,1.64-.92.14-2.63.52-5.26.52-7.9a3.45,3.45,0,0,1,2.38-3.5,34.89,34.89,0,0,1,1.34,14.58,51.8,51.8,0,0,1-6.81,21.1c-.24.4-.53.79-.76,1.2-.87,1.56-1.59,1.83-3.09.36-4.76-4.67-4.84-4.59-10.57-1.27-3.58,2.07-3.59,2.07-6.65-.73-1.34-1.24-2.65-2.52-4-3.74a1.12,1.12,0,0,1-.23-1.71,40.26,40.26,0,0,0,5.89-26.58C88.63,139.48,88.7,139.42,88.77,139.28Zm14.16,12.43a1.27,1.27,0,0,0,1.3-1.2,1.18,1.18,0,0,0-1.16-1.35,1.15,1.15,0,0,0-1.33,1.16C101.66,151.14,102.15,151.53,102.93,151.71Zm-.83,7.11a1.25,1.25,0,0,0,1.24-1.32,1.16,1.16,0,0,0-1.33-1.19,1.14,1.14,0,0,0-1.14,1.18C100.83,158.29,101.33,158.71,102.1,158.82Zm-1.87,4.59c-.62.13-1.19.45-1.19,1.27a1.24,1.24,0,0,0,2.48.1C101.61,164,101.07,163.59,100.23,163.41Z"/><path class="cls-2" d="M82.21,70.91c.74-.13.91.45,1.11.94a69.23,69.23,0,0,0,6,10.58c.64,1,.57,1.47-.55,2A74.92,74.92,0,0,0,78.89,90c-.89.58-1.39.42-2-.37-2.66-3.32-5.37-6.6-8.09-9.88-.52-.62-.73-1.06.09-1.62A70.9,70.9,0,0,1,81.82,71,3,3,0,0,1,82.21,70.91Z"/><path class="cls-8" d="M109.63,142.73c0,3.9-.21,4.22-3.4,2.51-3-1.62-5.24-.23-7.72.91-3.5,1.6-3.5,1.58-3.45-2.17,0-2.8,0-2.86,2.81-2.43a16.69,16.69,0,0,0,9.67-1.57c2.16-1,2.14-1,2.09,1.33C109.62,141.78,109.63,142.26,109.63,142.73Z"/><path class="cls-2" d="M55.81,90.49l1.19,1c3.11,2.82,5.57,6.2,8.24,9.41a1.16,1.16,0,0,1-.12,1.76c-.66.72-1.07.15-1.45-.33-2.56-3.22-5.29-6.29-8.11-9.29a1.25,1.25,0,0,1-.25-1.64C55.48,91.14,55.63,90.84,55.81,90.49Z"/><path class="cls-9" d="M93.35,184l1.89-3.19a3.79,3.79,0,0,1-1,3.2Z"/><path class="cls-3" d="M108.86,115.22h0v0Z"/><path class="cls-3" d="M117.23,105.36c-.14-.3-.24-.54-.31-.69l-.83-1.88-.32-.58a34.85,34.85,0,0,0-2.07-3c-2.09-2.53-3.51-2.53-5.68-.14,0,0-.23,0-.41,0a3.68,3.68,0,0,1,.46-2.7c.22-.43,1.36-.67.51-1.4a1.65,1.65,0,0,0-1.88-.41c-3.38,1.85-7.23,2.23-10.81,3.46a100.41,100.41,0,0,1-12.17,4.18l-6.2,3.79a14.35,14.35,0,0,0-3.1,2.84,9,9,0,0,0-2.2,4.13,8.29,8.29,0,0,0,0,2.62,7.42,7.42,0,0,0,.3,1.2l0,.14a13.57,13.57,0,0,0,1.06,2.5c.2.37.41.71.61,1-1.37,0-2.84-.1-3.46,1.41-.85,2.09-.16,4,1,5.75,1.06,1.55,2.87,2.51,4.39,1.76,2.63-1.31,3.51.35,4.71,1.9a14.83,14.83,0,0,0,1.39,1.47c8.15,8.08,20.27,9.46,29,3.26a11.57,11.57,0,0,0,4.82-6.42,32.09,32.09,0,0,1-4.4-.27c-1.16-.23-1.67-.05-2.06,1.14-.46,1.43-1.27,2.93-3.08,2.68a3.26,3.26,0,0,0-2.54.79c-6.34,4.25-15.82,1.57-19.1-5.34-.28-.58-.2-.68.37-.62.11-.79.42-.6.88-.22a4.93,4.93,0,0,0,3.67,1.39,6.64,6.64,0,0,0,5.71-3.44,36.23,36.23,0,0,1,2.26-3.8,4.43,4.43,0,0,1,5.56-1.7c.62-.25,1.4.08,2-.47l4.83-2.37.39-.08a3,3,0,0,1,2.55,0l.35,0,5.5,1.36.19-.84a32.71,32.71,0,0,0,0-5.77l0-.33-.69-3-.09-.41M77.93,115.4c-1.57.23-2.51,1.77-4.1,1.89l-.31-.39h0a1,1,0,0,0,.8-.82h0A7.47,7.47,0,0,1,77.49,114c.41.15,1-.19,1.21.43S78.36,115.34,77.93,115.4Zm8.28-5.91c-1.25-2.75-.64-5.23,1.42-6.7,1.84-1.32,3.35-1.29,4.82.08C88.14,103.58,86.56,105.18,86.21,109.49Zm7,5a2,2,0,0,1,.09-4,2,2,0,0,1,2.06,1.92C95.13,113.72,94.5,114.54,93.21,114.46Zm18.8-6.25a1.83,1.83,0,0,1-1.86-2,1.88,1.88,0,0,1,2-2,2,2,0,1,1-.18,4Z"/><path class="cls-5" d="M116.53,119.51l-.78-.21Z"/><path class="cls-8" d="M97.38,93.56A24.38,24.38,0,0,1,92.2,86l5.89-2-.19-.64a19.42,19.42,0,0,0-2.72.43,18.77,18.77,0,0,0-3.38,1.13l-2.56.93-.35.13-.87.36-.13,0c-.47.26-1,.52-1.45.77s-1.07.56-1.59.82a53.77,53.77,0,0,0-6.1,4.16,42.93,42.93,0,0,0-7.61,6.57h0l-2.29,2.19-2.53,2.8c-.63.47-1.22,1-.52,1.8a1.48,1.48,0,0,0,.67.38c1.11.29,5.19-3.87,9.56-6a31,31,0,0,1,3.89-1.5,46.17,46.17,0,0,1,5.35-1.44c7.11-1.52,9.58-1.07,15-2.62a43,43,0,0,0,4.11-1.41,1.4,1.4,0,0,0-.56-.81c-.65-.4-1.57.06-2.26.35A15.47,15.47,0,0,1,97.38,93.56Z"/><path class="cls-5" d="M108.85,115.2l.18.41Z"/><path class="cls-5" d="M113,117.21l.35,0-.18,0Z"/><path class="cls-5" d="M118.8,118.1l.23-.33Z"/><path class="cls-5" d="M118.27,108.72l-.09-.41c.07.09.15.18.21.27S118.31,108.67,118.27,108.72Z"/><path class="cls-5" d="M112.87,118.68l-.47-.15Z"/><path class="cls-5" d="M117.7,106.76a.36.36,0,0,1,.08.33"/><path class="cls-5" d="M120.69,119.33l-.43.14Z"/><path class="cls-10" d="M67.36,105.1l.39-.43Z"/><path class="cls-5" d="M107.55,119.69l-.31.17A.34.34,0,0,1,107.55,119.69Z"/><polygon class="cls-10" points="88.02 86.34 87.89 86.39 87.92 86.26 88.02 86.34"/><path class="cls-5" d="M116.09,102.79l-.32-.58Z"/><path class="cls-4" d="M194.76,141.85c-.13,1.1-.81,1.27-1.63,1.07a4.17,4.17,0,0,1-1.95-1.4L170.31,118.8c-.28-.3-1-.7-.24-1,1-.43,2-1.71,3.26-.4s2.2,2.39,3.28,3.6l16.94,18.88A5,5,0,0,1,194.76,141.85Z"/><path class="cls-4" d="M159,101.08l-1.73.74,0,0-.51.31-1.15.4a1.93,1.93,0,0,1-2-.68C146.41,94,139.13,86.15,132,78.23a7.74,7.74,0,0,1,9.64-11.93,9.13,9.13,0,0,1,1.3.94c1.1.92,1.41,2.06.51,3.21s-2.1,1.1-3.2.19a3.51,3.51,0,0,0-4.12-.7c-2.29,1.19-2.53,3.61-.56,5.79,2.53,2.82,5.1,5.61,7.67,8.39,4,4.36,3.21,4,14.5,15.59Z"/><path class="cls-6" d="M156.76,102.15l.51-.31Z"/><path class="cls-11" d="M38.71,121.42a3.49,3.49,0,0,1-.18.31m0,0c-2.47,4.08-3.92,8.61-5.34,13.14-.92,2.94-.92,3.06,1.8,4.37a70.92,70.92,0,0,0,28.69,7.5c3.16.11,3.16.07,2.72,3.28a4.17,4.17,0,0,1-.1.6c-2.35,10.32-8.46,17.82-17.44,23.16-.41.25-1,.26-1.25,1,5.12,2.67,10.57,2.48,16.35,2.18-1.64,2.21-3.27,4-5.66,4.78-4,1.32-5.91,4.14-6.42,8.25a14.14,14.14,0,0,1-10.7,11.67c-4.46,1.12-8.32.36-11.26-3.47-.79-1-1.65-2-2.44-3-.53-.68-1-1.23-2-.89s-.7,1.2-.67,1.88a18.94,18.94,0,0,0,8.47,15.22,39.23,39.23,0,0,0,8.26,4.34c.67.26,1.55.54.7,1.31-1.4,1.27-.75,2.12.25,3.12.77.76,1.42,1.63,2.14,2.45C47,225.34,47,225.34,50.34,224c.19-.08.38-.14.57-.23,15.43-7.84,29.42-17.38,38.69-32.54a1.76,1.76,0,0,1,2.32-1,47.22,47.22,0,0,1,8.34,3.66c-1.77,2.65-1.77,2.65,1.2,4.12a8.39,8.39,0,0,0,.9.45c1.31.47,1.45,1.05.76,2.36-3.14,6-4.61,12.29-3.14,19,1,4.63,1,4.63,5.69,4.67.61,0,1.22,0,1.83,0,1.11.09,2,0,2-1.48,0-.8.28-1.26,1.25-.79,5,2.4,10.24,2.42,15.54,2A15.39,15.39,0,0,0,137,219.11a1.91,1.91,0,0,0,.51-2.37c-.49-.92-1.23-.27-1.8-.17a47.18,47.18,0,0,1-13.37.34c-3.79-.15-7.53.49-11.29.69-2.23.13-4.46.32-6.67.59-1.52.19-2-.4-2.11-1.87a28.16,28.16,0,0,1,3.76-16c.85-1.54.49-2.15-.91-2.69-.44-.17-.84-.44-1.27-.65-1.46-.73-3.54-1.17-1.08-3.28.85-.74-.11-1.14-.71-1.42a53.92,53.92,0,0,0-8.8-3.62c-1.18-.3-1.21-.74-.66-1.66s1.08-2,1.61-3l-.85,0a138.68,138.68,0,0,1-16.84,19.23,91.09,91.09,0,0,1-22.87,16c-1.3.62-2,.61-3-.63-4-4.93-8.17-9.73-12.26-14.55.54-.84,1.21-.5,1.76-.5A14.22,14.22,0,0,0,53.58,194a42.1,42.1,0,0,0,1.2-4.3,8.51,8.51,0,0,1,4.62-5.84c3.56-1.87,7-4,9.11-7.56a2.12,2.12,0,0,1,1.5-.91,20,20,0,0,0,10-5.9c.92-1,1.62-1.1,2.65-.09,1.92,1.9,4,3.65,6,5.51a2.19,2.19,0,0,0,3.21.22c1.81-1.31,3.79-2.38,5.62-3.66a2,2,0,0,1,2.88.23c1.35,1.24,2.81,2.36,4.09,3.66,1,1,1.67.85,2.46-.15a31.71,31.71,0,0,0,2.82-3.45c.87-1.46,1.59-1.19,2.67-.31a36.17,36.17,0,0,1,12.85,19.94c2,7.8,1.61,15.29-2.16,22.5-.17.32-.34.58.1.79,1.33-.66,1.81-2,2.3-3.21,4.51-11.13,3.48-21.7-3.48-31.58-.52-.74-1.14-1.41-1.78-2.2,2.81-1.18,5.15-2.56,6.44-5.36a10.51,10.51,0,0,1-8.69-7.49c-2.47-7.11-.74-13.75,2.43-20.19.32-.65.9-.73,1.52-.82,2.15-.31,26.45-9.49,30.53-12.61a17,17,0,0,0,2.73-2.66,2.83,2.83,0,0,0,.87-1.21,3.22,3.22,0,0,0-.07-2.07c-1.3-4.06-6.35-13-8.9-14a2.3,2.3,0,0,0-1.62-.13,2.23,2.23,0,0,0-.82.63,63.72,63.72,0,0,1-13.44,8.63,21.91,21.91,0,0,1-6.17,2.16l.49-2,.27-1.16a8.15,8.15,0,0,0-.08-3.59c-.19-.68-.37-.9-.57-.93s-.59.34-.91.82a7.25,7.25,0,0,1-1.45,1.18,7.63,7.63,0,0,1-2,.86c0-.93-.08-1.88-.14-2.85,0-.69-.08-1.37-.14-2l-1.08-5.3-.21-.82L119,106l-.17-.53-.18-.43-.1-.37-.34-.78-.55-1.26-.24-.43-.17-.38-.24-.42-1-1.62-.28-.36-.35-.46-.4-.53-.52-.66-.35-.39c-1.24-1.71-3.09-2.71-4.85-4,1.08-.81,2.09-1.49,3-2.27a9.5,9.5,0,0,0,3.29-4.3c.22-.68.51-1.52-.39-2a1.65,1.65,0,0,0-2,.5,12.39,12.39,0,0,0-1.1,1.46,21.26,21.26,0,0,1-3.4,3.76c-1.07.89-1.77.91-2.81-.26a112.15,112.15,0,0,1-14.3-20.69c-.84-1.53-1.83-2.07-3.39-1.8a23.68,23.68,0,0,0-3.35.8,76.46,76.46,0,0,0-14.57,6.68A53.82,53.82,0,0,0,54.35,89.6c-1.86,2.51-1.69,3.29.51,5.38a92.29,92.29,0,0,1,9.47,11.14c.64.84.6,1.28-.17,2a11.4,11.4,0,0,0-3.39,5.9c-1.4,5.75,1.58,9.18,7.45,8.56.4,0,1.14-.44,1,.35-.25,1.63.37,3.11.8,4.78-10-.88-19.19-3.31-27.52-8.55a13.29,13.29,0,0,0-1.59-.71m73.95,32.46A51.82,51.82,0,0,1,108.06,172c-.24.41-.52.79-.75,1.2-.87,1.56-1.59,1.83-3.09.37-4.76-4.68-4.84-4.6-10.57-1.28-3.58,2.07-3.59,2.08-6.65-.73-1.35-1.24-2.66-2.51-4-3.74a1.12,1.12,0,0,1-.23-1.71,40.23,40.23,0,0,0,5.89-26.57c0-.05.07-.12.14-.25.36.13.74.27,1.1.42,3.7,1.54,3.71,1.54,3.43,5.71-.1,1.55-.23,3.1-.37,5,3-1.38,5.74-2.58,8.43-3.93a2.86,2.86,0,0,1,3,.05c1.48.81,3.09,1.37,4.61,2.12,1.08.52,1.57.36,1.64-.92.14-2.64.52-5.27.52-7.9a3.45,3.45,0,0,1,2.38-3.51A35.08,35.08,0,0,1,114.88,150.9ZM95.08,144c0-2.8,0-2.86,2.81-2.43a16.69,16.69,0,0,0,9.67-1.56c2.16-1,2.14-1,2.09,1.32,0,.48,0,.95,0,1.42,0,3.9-.21,4.22-3.4,2.52-3-1.62-5.24-.23-7.72.9C95,147.75,95,147.73,95.08,144Zm30-25.89a25.51,25.51,0,0,1-1.22,3.1c-.26.54-.47.94-.51,1a11.39,11.39,0,0,1-13.52,5c-1.22-.45-1.65-.11-2.25.78-1.9,2.82-4.2,5.18-7.7,5.92-6.25,1.31-10.9-1.34-14.7-6-.57-.06-.65,0-.37.62,3.28,6.91,12.76,9.58,19.1,5.33a3.32,3.32,0,0,1,2.53-.79c1.82.25,2.63-1.24,3.09-2.68.39-1.18.9-1.36,2.06-1.13a32,32,0,0,0,4.4.27,11.52,11.52,0,0,1-4.82,6.41c-8.68,6.2-20.81,4.83-28.95-3.25a16.33,16.33,0,0,1-1.4-1.48c-1.19-1.55-2.07-3.21-4.7-1.9-1.52.76-3.33-.2-4.39-1.76-1.18-1.74-1.87-3.65-1-5.74.62-1.51,2.08-1.45,3.46-1.42-.2-.31-.41-.65-.61-1a14.08,14.08,0,0,1-1.07-2.5l0-.14a6.32,6.32,0,0,1-.3-1.19c-.48-3.2,1.57-5.87,2.25-6.76a12.29,12.29,0,0,1,3.1-2.83l29.18-11.43a1.6,1.6,0,0,1,1.87.41c.86.73-.28,1-.5,1.39a3.66,3.66,0,0,0-.46,2.71c.17,0,.36.09.41,0,2.17-2.4,3.58-2.39,5.68.14.78.93,1.38,2,2.07,3l.32.58.83,1.87.3.7c.19.54.35,1,.47,1.39.28.86.42,1.33.54,1.8a1.23,1.23,0,0,0,0,.16l.68,3,0,.33a32.82,32.82,0,0,1,0,5.78l-.23.33c-.86,0-1.55-.14-2-.2-3.06-.43-3.59-1.11-5.44-1-1,.08-1.34.32-1.76,0s-.39-.94-1.15-2.85a5.29,5.29,0,0,0-.56-1c-.58-.82-.9-.81-1-.8a.5.5,0,0,0-.27.1c-.19.14-.27.26-.27.37,0,.29.36.44.68.89a2.08,2.08,0,0,1,.36.91,3.25,3.25,0,0,1,.2.6,5,5,0,0,1-.08,2.68h0L105,119l.24.6a1.65,1.65,0,0,0,1.18.49,1.6,1.6,0,0,0,.81-.27l.31-.16,2.1-1.3c.26,0,2,.1,3.22.29a7.66,7.66,0,0,1,1.21.23l.84.23.83.16.78.21a5.81,5.81,0,0,0,3.73-.05l.43-.14a4.75,4.75,0,0,0,2.78-1.71c.34-.33.61-.63.82-.87s.38-.47.51-.44.28.58.32.85A3.35,3.35,0,0,1,125.11,118.08Zm-18.3.44h0"/><path class="cls-11" d="M97.71,121.83a36.23,36.23,0,0,0-2.26,3.8,6.64,6.64,0,0,1-5.71,3.44c2.72,1.23,5.54.15,7.24-3,1.45-2.72,3.26-4.92,6.29-5.9A4.43,4.43,0,0,0,97.71,121.83Z"/><path class="cls-11" d="M86.21,109.49c-1.25-2.75-.64-5.23,1.42-6.7,1.84-1.32,3.35-1.29,4.82.08C88.14,103.58,86.56,105.18,86.21,109.49Z"/><path class="cls-11" d="M114.18,106.28a1.94,1.94,0,0,1-2.17,1.93,1.83,1.83,0,0,1-1.86-2,1.88,1.88,0,0,1,2-2A2,2,0,0,1,114.18,106.28Z"/><path class="cls-11" d="M95.36,112.39c-.23,1.33-.86,2.15-2.15,2.07a2,2,0,0,1,.09-4A2,2,0,0,1,95.36,112.39Z"/><path class="cls-11" d="M73.83,117.29l-.31-.39c.12-.1.25-.21.38-.34a4.23,4.23,0,0,0,.42-.48,8.32,8.32,0,0,1,1.45-1.24,8.51,8.51,0,0,1,1.74-.92,1.28,1.28,0,0,1,1,.23.87.87,0,0,1,.17.28c.17.6-.34.91-.77,1C76.36,115.63,75.42,117.17,73.83,117.29Z"/><path class="cls-11" d="M77.44,113.06a29.72,29.72,0,0,0-3.34,1.25c-.2.07-.47.15-.54.06s1-1.3,1.5-1.75a10.12,10.12,0,0,1,1.29-.92c.38-.24.9-.59,1.35-.44a.8.8,0,0,1,.43.34C78.31,112,78.07,112.6,77.44,113.06Z"/><path class="cls-4" d="M102.93,151.71c-.78-.18-1.27-.57-1.19-1.39a1.15,1.15,0,0,1,1.33-1.16,1.18,1.18,0,0,1,1.16,1.35A1.27,1.27,0,0,1,102.93,151.71Z"/><path class="cls-4" d="M102.1,158.82c-.77-.11-1.27-.53-1.23-1.33a1.14,1.14,0,0,1,1.14-1.18,1.16,1.16,0,0,1,1.33,1.19A1.25,1.25,0,0,1,102.1,158.82Z"/><path class="cls-4" d="M100.23,163.41c.84.18,1.38.54,1.29,1.37a1.24,1.24,0,0,1-2.48-.1C99,163.86,99.61,163.54,100.23,163.41Z"/><path class="cls-4" d="M67.7,102.65c.36-.3.91-.76,1.56-1.35,1-1,1.68-1.64,2.25-2.22s1.92-1.76,4.49-4c1.88-1.63,2.48-2.12,3.13-1.93s1,.9,1.38,1.75A7.24,7.24,0,0,1,81.17,97a26.43,26.43,0,0,0-9.2,4.12c-1,.7-2.1,1.34-3,2.12-.62.51-.83.64-1.07.6a.68.68,0,0,1-.5-.48A.72.72,0,0,1,67.7,102.65Z"/><path class="cls-1" d="M81.7,103.17c-6.91,2.58-12.48,6.44-13.7,14.43a5.16,5.16,0,0,1-1-6c1.27-3,3.68-5,6.32-6.66A51.88,51.88,0,0,1,94.2,97.59c1.4-.2,2.8-.36,4.21-.54"/><text class="cls-12" transform="translate(0 36.02)">BIE<tspan class="cls-13" x="45.49" y="0">N</tspan><tspan x="71.1" y="0">VENUE !</tspan></text></g></g></svg>