<svg xmlns="http://www.w3.org/2000/svg" viewBox="0 0 205.97 55.5"><defs><style>.cls-1{fill:#3662C1;}.cls-2{font-size:12px;fill:#f6f6f6;font-family:Cocogoose;}.cls-3{letter-spacing:-0.07em;}</style></defs><g id="Calque_2" data-name="Calque 2"><g id="Calque_1-2" data-name="Calque 1"><path class="cls-1" d="M112.17,11.93a13,13,0,0,1,1.74.75c2.46,1.55,5,3.06,7.31,4.76a4.12,4.12,0,0,0,5.34-.42c.37-.44,0-2.91-.5-3.4-2.33-2.23-4.68-4.43-7-6.67a3.91,3.91,0,0,1-.94-4.65A4.1,4.1,0,0,1,122.32,0,2.68,2.68,0,0,1,124,.68a2.67,2.67,0,0,1,.51,1.95c-.08.36-1,.57-1.57.76-.21.06-.52-.2-.75-.16s-.82.17-1,.42a1,1,0,0,0,.12,1q3.92,3.75,7.91,7.42c.2.18.71.12,1.05,0a3.33,3.33,0,0,1,4.1,2.23,10.51,10.51,0,0,1,.48,2.41,1.43,1.43,0,0,0,1.48,1.48c.48,0,1,0,1.44,0H201c3.59,0,5,1.39,5,4.94V50.87c0,3.07-1.61,4.63-4.71,4.63H4.67C1.72,55.5,0,53.83,0,50.91q0-14,0-28.07c0-3,1.63-4.59,4.62-4.59q32.79,0,65.57,0c4.1,0,8.2,0,12.3,0a2.79,2.79,0,0,0,2.34-.87,9.82,9.82,0,0,1,1.19-1c.83-.68,1.7-1.14,1.57-2.64-.09-1.05.74-2.3,1.43-3.27A17.31,17.31,0,0,1,100.56,3c2.19-.38,2.77,0,3.91,1.85a48.62,48.62,0,0,0,3.91,5.36c1.23,1.44,2,1.31,3.14-.15.11-.14.18-.32.32-.41.48-.32,1.21-1,1.43-.83.9.57.24,1.29-.13,1.89A11.09,11.09,0,0,1,112.17,11.93Zm-14,3.67,9.38-3c-2,.68-2.66-1.09-3.84-2.12l.82-.52c-4.16.13-10.22,5-11.85,9.6l2-2.12ZM137,19.23c1.16,1.42,2.22,2.24,4.06,2.23,19.84-.07,39.69,0,59.54,0,2.23,0,2.23,0,2.23,2.27V50.07c0,2.18,0,2.2-2.17,2.2H5.35c-2,0-2.15-.11-2.15-2.13V23.77c0-2.3,0-2.35,2.33-2.35H73.2c2.23,0,2.23,0,2.74-2.19-.44,0-.86-.07-1.28-.07q-34.81,0-69.63,0c-2.93,0-4.06,1.11-4.06,4V50.45c0,3,1.14,4.11,4.11,4.11H201c2.91,0,4-1.12,4-4q0-13.64,0-27.28c0-3-1.05-4.09-4.08-4.09q-31.2,0-62.42,0C138.06,19.16,137.6,19.2,137,19.23Zm-35.33-2.62a7,7,0,0,0-1.08.67,38.73,38.73,0,0,0-4.38,4.2c-1.18,1.49-.83,2.37.62,3.21-1.36,1-1.56,1.47-1.06,2.35.65,1.16,1.79,1.41,3.54.77,1.7,2.68,6.07,4.56,9.39,4a7.26,7.26,0,0,0,5.69-4.27c-1.66-.42-2.76.49-3.83,1.26a6.9,6.9,0,0,1-5.12,1.52,4.61,4.61,0,0,1-4.23-3.82c2.16,1.74,3.21,1.56,4.63-.79.85-1.41,2-2.06,3.24-1.77a11.24,11.24,0,0,0-2.31,2c-.89,1.32-1.72,2.57-3.72,2.55a5.27,5.27,0,0,0,7.51-1,1.6,1.6,0,0,1,2-.84,4.28,4.28,0,0,0,5.16-4,4.52,4.52,0,0,1-4.12.52,6.06,6.06,0,0,0-2.48.28l-1.33.22-.28-.36c1.81-.8.74-1.68.32-2.65.53.11,1.12.24,1.32.59,1,1.71,2.69,1,4.14,1.57a10.72,10.72,0,0,0-2.81-7.47c-.36-.4-1.21-.36-1.84-.53-.11,0-.22-.09-.42-.17l.84-1.23a8.64,8.64,0,0,0-1.72,0c-1.51.39-3,.88-4.51,1.28-3.83,1-7.57,2.23-10.34,5.23a9.22,9.22,0,0,0-1.89,3.34A2,2,0,0,0,94,25.93c0-1.06-.32-2.27.06-3.18C95.41,19.39,98.34,17.74,101.63,16.61ZM94.22,34c-.52-.06-1.25-.11-2-.21-1.78-.24-1.78-.24-2,1.57-.93,7.65,4.46,14.09,12.3,14.68,7.07.53,13.43-5.38,13.6-12.72a10.8,10.8,0,0,0-1.35-5.76c-1.05,2.83-2.07,5.5-3,8.2a9.55,9.55,0,0,1-3.64,5,8.91,8.91,0,0,1-13.89-6.12A33.47,33.47,0,0,1,94.22,34Zm19-3.06a9.24,9.24,0,0,1-6.09,1.83,48.06,48.06,0,0,1-5.86-1.38c-.32,2.73-.67,5.69-1,8.64a1.31,1.31,0,0,0,.23.72c1,1.5,2.06,1.83,3.6.93,1-.57,1.69-.64,2.48.25a7.27,7.27,0,0,0,1.43,1C110.51,39.16,112.51,35.36,113.24,31ZM102.77,9.42c-.92-1.54-1.83-3.1-2.79-4.63a1,1,0,0,0-.84-.32A15.63,15.63,0,0,0,93,7.92c1.46,1.55,2.83,3,4.13,4.39Zm-27.34,13a15.65,15.65,0,0,0-6.37,3.89,1.68,1.68,0,0,0-.44,1.05A2.22,2.22,0,0,0,69,28.76c.17.18.84,0,1.25-.18,2.22-.74,4.4-1.58,6.64-2.23,1.15-.33,2.52-2,2.09-3.11a39,39,0,0,0-1.76-3.66c-1,1.44-.74,3-.88,4.56Zm3.15-3.28c0,1.78.38,2.25,1.81,2.27,1,0,2.08,0,3.12,0,.64,0,1.45.09,1.89-.24C87,20,88.47,18.57,90,17.26c-1.35-1.7-1.36-1.71-2.95-.47-.65.51-1.21,1.14-1.9,1.58a4.46,4.46,0,0,1-2,.75C81.69,19.23,80.17,19.15,78.58,19.15Zm33.52-6.26-.36.51,8.76,7.81,2.31-1.66c-.83-.54-1.58-1-2.28-1.49-1.34-1-2.59-2-4-2.91S113.58,13.63,112.1,12.89Zm16.3.63.25-.58c-.52-.45-1.06-.89-1.57-1.36-2.18-2.07-4.36-4.13-6.51-6.22A1.74,1.74,0,0,1,120.24,3a1.86,1.86,0,0,1,2.31-.68,3.21,3.21,0,0,0,1.13-.12c-.27-.34-.48-.82-.84-1a2.9,2.9,0,0,0-3.6,1,3.06,3.06,0,0,0,.4,3.93q3.66,3.53,7.43,7C127.38,13.37,128,13.38,128.4,13.52Zm5.39,5.14-.13.54q4.84,4.55,9.72,9.06c.17.16.59.06.9.08-.08-.33,0-.78-.24-1-3-2.86-6.09-5.71-9.18-8.52C134.64,18.64,134.16,18.72,133.79,18.66Zm-4.19-2.08.52.28,1.34-1a8.12,8.12,0,0,1-.92,1.73,2.08,2.08,0,0,0-.09.81c.27,0,.61,0,.8-.12a15.08,15.08,0,0,0,1.21-1.19l.15.12L132,18.73c1.91-.59,2.26-1.44,1.72-3.85a3.3,3.3,0,0,0-2.45-2ZM131,20c-.74-1.17-1.69-2.07-1.84-3.08s.5-2.1.8-3.12c-1.92-.15-2.83.93-2.18,2.85.1.29-.1.71,0,1a16.72,16.72,0,0,0,1.68,2.9C129.58,20.63,130.53,20.13,131,20ZM92.41,17.82c.65-1.05-1.19-3.57-3.23-4.55C88.74,14.28,89.14,14.85,92.41,17.82Zm33.28,1.46c.67.93,1.27,1.82,1.94,2.66.16.2.54.23.81.34.06-.34.28-.76.16-1-.42-.75-1-1.41-1.45-2.13S126.19,18.42,125.69,19.28ZM79.43,27.17c1.17-1.35,1.6-3,.91-3.55C79.2,25.25,78.89,26.47,79.43,27.17ZM134,21.33c-1.06-1.65-2-1.65-3.19,0Z"/><path class="cls-1" d="M94.77,17.48c0-.24-.17-.59-.07-.71,1-1.1,2-2.16,3-3.29.77.71,1.29,1.27.5,2.12Z"/><path class="cls-1" d="M103.87,16.68l-2.32,2.2a2,2,0,0,1,1-2.17C102.91,16.51,103.46,16.68,103.87,16.68Z"/><circle class="cls-1" cx="103.28" cy="21.52" r="0.69"/><circle class="cls-1" cx="111.85" cy="19.07" r="0.69"/><path class="cls-1" d="M111.71,32.67c-.41,1.11-.83,2.22-1.35,3.64-2.11-2.7-4.25-1.48-6.63-.12l.46-3.12.4-.12.57,1.64c1.59-1,3.27-1.61,4.73.24l1.39-2.4Z"/><path class="cls-1" d="M106.84,37.81c-.29-.43-.6-.69-.56-.85a4.51,4.51,0,0,1,.59-1c.21.2.62.43.6.59A5,5,0,0,1,106.84,37.81Z"/><path class="cls-1" d="M106.74,39l-1.08.75c-.14-.23-.45-.54-.38-.67a4.06,4.06,0,0,1,.73-.9Z"/><text class="cls-2" transform="translate(11.53 41.56)">M<tspan class="cls-3" x="11.53" y="0">A</tspan><tspan x="19.92" y="0">CRON’s</tspan></text><text class="cls-2" transform="translate(139.84 41.56)">HOUSES</text></g></g></svg>