<svg xmlns="http://www.w3.org/2000/svg" viewBox="0 0 213.97 80.9"><defs><style>.cls-1{fill:#fff;}.cls-2,.cls-3{isolation:isolate;}.cls-3{font-size:14px;fill:#3662C1;font-family:Cocogoose;}.cls-4{letter-spacing:-0.07em;}.cls-5{fill:none;stroke:#fff;stroke-miterlimit:10;}.cls-6{fill:#3662C1;}</style></defs><g id="Calque_2" data-name="Calque 2"><g id="Calque_1-2" data-name="Calque 1"><g id="Calque_2-2" data-name="Calque 2"><g id="Calque_1-2-2" data-name="Calque 1-2"><path class="cls-1" d="M1,49.18v-26c0-2.89,1.17-4,4.21-4l22.41,0V18.3l-22.83,0c-3.11,0-4.8,1.59-4.8,4.59V49m1,.89v-.74m2.4,6.19v21.2a.85.85,0,0,0,.85.85H209.81a.85.85,0,0,0,.85-.85V55.36c2.17-.47,3.31-2,3.31-4.46V23.16c0-3.55-1.47-4.94-5.2-4.94H141.5a1.47,1.47,0,0,1-1.44-1.48,9.92,9.92,0,0,0-.49-2.41,3.48,3.48,0,0,0-4.26-2.23c-.36.12-.89.18-1.09,0-2.77-2.45-5.5-4.92-8.22-7.42a1,1,0,0,1-.12-1c.18-.25.8-.38,1-.42s.56.22.77.16c.6-.19,1.55-.4,1.63-.76A2.59,2.59,0,0,0,128.8.71,2.93,2.93,0,0,0,127.05,0a4.3,4.3,0,0,0-4.36,2.3,3.81,3.81,0,0,0,1,4.65c2.41,2.24,4.85,4.44,7.27,6.67.52.49.91,3,.52,3.4a4.38,4.38,0,0,1-5.54.42c-2.4-1.7-5-3.21-7.59-4.76a15,15,0,0,0-1.81-.75,11.89,11.89,0,0,0,1-1.22c.38-.6,1.07-1.32.13-1.89-.23-.17-1,.51-1.49.83-.14.09-.21.27-.33.41-1.18,1.46-2,1.59-3.26.15a49,49,0,0,1-4.06-5.36C107.33,3,106.72,2.65,104.45,3a18,18,0,0,0-12,7.47c-.71,1-1.58,2.22-1.48,3.27.13,1.5-.77,2-1.63,2.64a10,10,0,0,0-1.24,1,2.94,2.94,0,0,1-2.43.87H36.63v.91H77.55c.43,0,.87.07,1.33.07-.53,2.19-.53,2.19-2.85,2.19H5.74c-2.42,0-2.42.05-2.42,2.35V50.17M0,49V50M140.08,18.84c3.2,2.81,6.41,5.66,9.53,8.52.25.22.17.67.25,1-.32,0-.76.08-.94-.08q-5.05-4.52-10.09-9.06l.13-.54h0C139.35,18.75,139.85,18.67,140.08,18.84ZM83.45,23.65c.71.55.27,2.2-1,3.55C81.94,26.5,82.26,25.28,83.45,23.65Zm14.43,15a8.71,8.71,0,0,0,1.56,3.85,9.47,9.47,0,0,0,12.87,2.27,9.58,9.58,0,0,0,3.78-5c1-2.7,2-5.37,3.12-8.2a10.51,10.51,0,0,1,1.4,5.76,13.31,13.31,0,0,1-14.13,12.72c-8.14-.59-13.74-7-12.77-14.68.23-1.81.23-1.81,2.08-1.57.78.1,1.53.15,2.07.21A34.21,34.21,0,0,0,97.88,38.67Zm6.27,1.39c.34-3,.7-5.91,1-8.64a52.43,52.43,0,0,0,6.08,1.38A9.88,9.88,0,0,0,117.6,31l0,.06c-.76,4.36-2.84,8.16-5.43,11.93a7.19,7.19,0,0,1-1.49-1c-.82-.89-1.54-.82-2.57-.25-1.6.9-2.7.57-3.74-.93A1.24,1.24,0,0,1,104.15,40.06Zm31.72-18.7c1.23-1.65,2.21-1.65,3.31,0Zm.48-8.45a3.41,3.41,0,0,1,2.54,2c.56,2.41.2,3.26-1.79,3.85l.64-1.53-.16-.12a14.06,14.06,0,0,1-1.25,1.19,1.84,1.84,0,0,1-.84.12,2,2,0,0,1,.1-.81,7.89,7.89,0,0,0,.95-1.73l-1.39,1-.54-.28Zm-1.36.92c-.32,1-1,2.11-.84,3.12s1.15,1.91,1.92,3.08a11.78,11.78,0,0,1-1.6.55,16.81,16.81,0,0,1-1.75-2.9c-.1-.29.11-.71,0-1C132.05,14.76,133,13.68,135,13.83ZM124.27,6.16a3,3,0,0,1-.42-3.93,3.09,3.09,0,0,1,3.74-1c.37.18.59.66.87,1a3.31,3.31,0,0,1-1.17.12,2,2,0,0,0-2.4.68,1.71,1.71,0,0,0,.34,2.35c2.24,2.09,4.5,4.15,6.76,6.22.53.47,1.09.91,1.63,1.36l-.25.58h0a5.78,5.78,0,0,1-1.39-.39Q128.07,9.7,124.27,6.16Zm7.8,13c.46.72,1.07,1.38,1.5,2.13.13.24-.1.66-.16,1-.28-.11-.68-.14-.84-.34-.7-.84-1.32-1.73-2-2.66C131.07,18.45,131.6,18.46,132.07,19.18Zm-15.64-6.27h0A47.84,47.84,0,0,1,121,15.17c1.46.91,2.76,1.91,4.15,2.91.73.49,1.51,1,2.37,1.49l-2.4,1.66-9.1-7.81ZM103,4.5a1.1,1.1,0,0,1,.88.32c1,1.53,1.94,3.09,2.89,4.63l-5.85,2.89L96.6,8A16.4,16.4,0,0,1,103,4.5Zm5.6,5.49-.85.52c1.23,1,1.91,2.8,4,2.12l-9.74,3-3.63,1.84-2.08,2.12C98,15,104.25,10.12,108.57,10ZM98.14,20c2.88-3,6.77-4.23,10.74-5.23,1.57-.4,3.12-.89,4.69-1.28a8.82,8.82,0,0,1,1.78,0l-.87,1.23c.21.08.32.17.44.17.65.17,1.54.13,1.91.53a10.53,10.53,0,0,1,2.92,7.47c-1.51-.57-3.26.14-4.3-1.57-.21-.35-.82-.48-1.37-.59.43,1,1.54,1.85-.34,2.65l.3.36,1.38-.22A6.57,6.57,0,0,1,118,23.2a4.84,4.84,0,0,0,4.28-.52,4.06,4.06,0,0,1-.09.7,4.44,4.44,0,0,1-5.27,3.3,1.68,1.68,0,0,0-2.07.84l-.12.14a5.6,5.6,0,0,1-7.68.86c2.07,0,2.93-1.23,3.86-2.55a11.55,11.55,0,0,1,2.4-2c-1.29-.29-2.48.36-3.37,1.77-1.47,2.35-2.56,2.53-4.81.79a4.73,4.73,0,0,0,4.4,3.82,7.39,7.39,0,0,0,5.32-1.52c1.11-.77,2.25-1.68,4-1.26a7.5,7.5,0,0,1-5.91,4.27c-3.44.56-8-1.32-9.75-4-1.82.64-3,.39-3.68-.77-.52-.88-.31-1.35,1.1-2.35-1.5-.84-1.87-1.72-.64-3.21a39.39,39.39,0,0,1,4.55-4.2,7.9,7.9,0,0,1,1.12-.67h0c-3.42,1.13-6.46,2.78-7.86,6.14-.4.91-.06,2.12-.06,3.18a1.12,1.12,0,0,1-.26-.08,2,2,0,0,1-1.2-2.58A9.12,9.12,0,0,1,98.14,20ZM92.63,13.3c2.12,1,4,3.5,3.35,4.55C92.59,14.88,92.17,14.31,92.63,13.3Zm-6.26,5.85a4.67,4.67,0,0,0,2.07-.75c.72-.44,1.3-1.07,2-1.58,1.65-1.24,1.66-1.23,3.06.47C91.89,18.6,90.36,20,88.7,21.2a3.73,3.73,0,0,1-2,.24H83.5c-1.48,0-1.88-.49-1.88-2.26C83.27,19.18,84.85,19.26,86.37,19.15ZM71.73,26.34a16.37,16.37,0,0,1,6.62-3.89l.94,1.72c.15-1.56-.12-3.12.92-4.56A38.94,38.94,0,0,1,82,23.27c.45,1.11-1,2.78-2.17,3.11-2.32.65-4.59,1.49-6.89,2.23-.43.18-1.13.36-1.3.18a2.19,2.19,0,0,1-.4-1.4A1.68,1.68,0,0,1,71.73,26.34Zm141.2,22.6v1.65c0,2.17-.65,3.34-2.27,3.79V50.92c0-.24,0-.5,0-.82V23.76c0-2.27,0-2.27-2.31-2.27-20.62,0-41.24-.07-61.85,0a5,5,0,0,1-4.21-2.23,14.45,14.45,0,0,1,1.56,0h64.83c3.15,0,4.24,1.09,4.24,4.09V48.94"/><path class="cls-1" d="M100.23,17.51c0-.24-.17-.59-.07-.71,1-1.1,2.08-2.16,3.12-3.29.8.71,1.34,1.27.52,2.12Z"/><path class="cls-1" d="M109.69,16.71l-2.41,2.2a2,2,0,0,1,1-2.17C108.69,16.54,109.26,16.71,109.69,16.71Z"/><ellipse class="cls-1" cx="109.07" cy="21.55" rx="0.72" ry="0.69"/><ellipse class="cls-1" cx="117.97" cy="19.1" rx="0.72" ry="0.69"/><path class="cls-1" d="M117.83,32.7c-.43,1.11-.86,2.22-1.4,3.64-2.2-2.7-4.42-1.48-6.89-.12L110,33.1l.41-.12.59,1.64c1.66-1,3.4-1.61,4.92.24l1.44-2.4Z"/><path class="cls-1" d="M113.11,38.18c-.29-.43-.6-.69-.56-.85a4.61,4.61,0,0,1,.59-1c.21.2.62.43.6.59A4.8,4.8,0,0,1,113.11,38.18Z"/><path class="cls-1" d="M113,39.37l-1.08.75c-.14-.23-.45-.54-.38-.67a4.5,4.5,0,0,1,.73-.9Z"/><g class="cls-2"><text class="cls-3" transform="translate(27.97 68.36)">MONOPO<tspan class="cls-4" x="70.13" y="0">L</tspan><tspan x="77.45" y="0">Y</tspan></text><text class="cls-2"/></g><text class="cls-3" transform="translate(120.95 68.36)">HOUSES</text><path class="cls-5" d="M98.14,47.76H.51V75.9A4.49,4.49,0,0,0,5,80.4H208.93a4.5,4.5,0,0,0,4.51-4.5V47.75H116.58l-.15.17a1.41,1.41,0,0,1-.24.2"/><rect class="cls-6" x="210.68" y="45.94" width="2.25" height="9.65"/><rect class="cls-6" x="1.01" y="46.41" width="2.31" height="9.65"/></g></g></g></g></svg>