<svg xmlns="http://www.w3.org/2000/svg" viewBox="0 0 454.48 87.97"><defs><style>.cls-1{fill:#fff;}.cls-2{fill:#3662C1;}.cls-3{font-size:46.51px;fill:#3662C1;font-family:Monopoly-Inline, Monopoly;}.cls-4{letter-spacing:-0.01em;}.cls-5{letter-spacing:0em;}.cls-6{letter-spacing:-0.01em;}.cls-7{letter-spacing:-0.16em;}.cls-8{letter-spacing:0em;}.cls-9{letter-spacing:-0.02em;}.cls-10{letter-spacing:-0.02em;}</style></defs><g id="Calque_2" data-name="Calque 2"><g id="Calque_1-2" data-name="Calque 1"><path class="cls-1" d="M57.08,77.36,45.58,75l-3.22,8,1.06-.07c3.74-.31,7.47-.79,11.23-.16a.69.69,0,0,0,.55-.29A13.65,13.65,0,0,0,57.08,77.36Zm9.13-4.19c.25,5.32-1,9.9-6,12.86a4.2,4.2,0,0,0,2.17-.52,12.29,12.29,0,0,0,3.82-5.6A10,10,0,0,0,66.21,73.17ZM54.42,85.54l-.07-.16c-2,.27-4,.58-6,.79a17.87,17.87,0,0,1-6.19-.07c-1.34-.33-1.6-.72-1.44-2.13-.3.29-.57.5-.79.76-.7.82-.55,1.47.49,1.8a9.4,9.4,0,0,0,2,.37,46.34,46.34,0,0,0,10.25-.7A8.42,8.42,0,0,0,54.42,85.54ZM63.37,52.8c.84,1.14,4.26,1.37,5.3.75Zm5-3.39c-.28.42-.61.68-.59.91s.39.44.61.66c.22-.23.59-.44.63-.7S68.72,49.8,68.4,49.41ZM17.61,52.54c.23-.31.49-.51.48-.69s-.28-.36-.43-.54c-.18.18-.46.33-.52.55S17.39,52.23,17.61,52.54Z"/><path class="cls-2" d="M44,54.17c-.44,1.16-.81,2.35-1.33,3.47-1.93,4.16-5.32,6.21-9.82,6.57l-1.44.11c3.28-5.92,4-11.93,1.36-18.15-1.61,1.16-3.12,2.41-4.78,3.39-2,1.2-4.18,2.21-6.3,3.24-.68.33-1.48.62-2.05-.36l-2.36,1.73-1.5-2-1.33,1.49c.19.52.46,1.25.73,2L25.89,85.06c.07.2.14.4.2.6a1.63,1.63,0,0,1-1,2.22A1.7,1.7,0,0,1,23,86.73c-.59-1.51-1.14-3-1.69-4.56q-5-13.69-10-27.41a.81.81,0,0,0-.79-.63,16.36,16.36,0,0,1-2-.38c.33,1.09.47,2.12-.73,2.71-1,.49-1.77.21-2.61-.82L3.81,56.72l-.1-.1a8.34,8.34,0,0,0,.82-1.06,3.3,3.3,0,0,0,.39-1.22A6.68,6.68,0,0,1,1.5,56.49L4.38,54.3l-1.85-.62L.13,56.22,0,56.11l2-2.73-.9-1c.08-.1.13-.19.18-.2A3,3,0,0,0,4,49.83c.56-1.6,1.51-2.1,3.23-2a16.75,16.75,0,0,0,4.58-.86c.39-.09.69-.56,1-.81l4.48,7.15L19.11,52a24.38,24.38,0,0,1-5-7.31c1.23-.52,2.43-1,3.61-1.53A47.12,47.12,0,0,0,31.47,34a1.63,1.63,0,0,1,1-.37c.66-.06,1.32,0,2.13,0-.2-.26-.31-.41-.44-.55a13.58,13.58,0,0,1-3.46-6.9,1.54,1.54,0,0,0-.43-.79A4.42,4.42,0,0,1,29.93,20c.09-.1.18-.25.29-.27,1.08-.22,1.19-1.21,1.59-2s.74-1.34,1-1.81a36.31,36.31,0,0,1-3-2.21,2.8,2.8,0,0,1-.73-3.22,2.47,2.47,0,0,1,2.65-1.53c1.27,0,2.53.28,4,.46.36-1.09.84-2.32,1.18-3.59.42-1.56.76-3.15,1.08-4.74a1.12,1.12,0,0,1,1.19-1A25,25,0,0,1,49.86,1.93,23.52,23.52,0,0,1,57,5.66a1.5,1.5,0,0,1,.54,2.16c-.34.78-.75,1.53-1.14,2.28-1.24,2.37-1.4,5-1.82,7.69,1.51,0,2.93,0,4.35,0,.44,0,1-.14,1,.41a1.22,1.22,0,0,1-.8.87,23.06,23.06,0,0,1-3,.27c-.42,0-.84,0-1.28-.06.91,4.87.9,5.1-.52,10.1l.94-.31a5.63,5.63,0,0,0,1.08.68,116.62,116.62,0,0,1,15.23,5.68c1.64.74,2.05,1.42,1.61,3.16-.88,3.4-1.87,6.76-2.85,10.13a.84.84,0,0,1-.59.47,6.56,6.56,0,0,1-3.73-.61c-1.41-.66-2.77-1.45-4.19-2.2L61,47.75a13,13,0,0,0,7,3.66c-2.88.28-5.22-1-7.37-2.8-.16,4.91,2.44,7.56,7.6,7a5.79,5.79,0,0,1-4.94.49l2.31,3a14.08,14.08,0,0,1-7.39-6.31,12.78,12.78,0,0,0,2.65,4.57,1.32,1.32,0,0,1,.36.75,20.77,20.77,0,0,1-1,7.08c-.18.55-.47.89-1.06.85a29.47,29.47,0,0,1-4.11-.36,4.87,4.87,0,0,1-3.81-3.63,2.52,2.52,0,0,0,1.21,3.36,9.6,9.6,0,0,0,4.69,1.14c2,.06,4.09,0,6.23,0,.25.52.48.53,3.27,0,.88,1.57,1,5,.14,5.83,0-.35-.08-.62-.11-.89-.12-1.13-.25-2.27-.37-3.4,0-.48-.3-.61-.76-.54-.68.11-1.37.18-2.11.26a18.94,18.94,0,0,1-2.25,6.68,1.11,1.11,0,0,0,0,.8,8.49,8.49,0,0,1,.1,4.84c-.3-1.33-.59-2.65-.84-3.79a8.17,8.17,0,0,1-1.82.28,46.24,46.24,0,0,1-13-2.52c-3.43-1.3-6-3.4-6.8-7.19a13.84,13.84,0,0,1-.24-1.57,2.67,2.67,0,0,1,1.28-3c1.82-1.1,2.7-3,3.31-5,.31-1,.45-2.12.67-3.19.53.23,1.07.41,1.57.68,1.12.58,2.23,1.19,3.36,1.8l2.82-3.71,3.05,2.36c.61-.89,1.14-1.75,1.74-2.56a2.46,2.46,0,0,0,.26-3.16,2.74,2.74,0,0,1-.32-.81c-.91-3.27-1.79-6.54-2.73-9.8-.48-1.68-1-3.33-1.62-5-.07-.19-.38-.31-.57-.46a7.35,7.35,0,0,0-.34.76c0,.08.05.2.06.3.2,1.23.4,2.45.6,3.74-1.16-.29-2.22-.53-3.26-.85a.88.88,0,0,0-1,.3c-.84.84-1.71,1.65-2.6,2.5a27.5,27.5,0,0,1-1.55-2.45,1.59,1.59,0,0,0-2-.88l.52.93a19.2,19.2,0,0,1,2.51,12.95C44.28,51.91,44.16,53,44,54.17Zm9.28-24.83.3-.18a13.12,13.12,0,0,0,.58-9.62.8.8,0,0,0-.5-.41,33.11,33.11,0,0,1-9.43-3.56,2.71,2.71,0,0,0-2.9.17,7.66,7.66,0,0,0-.66.45L40.53,16l1.8-1.42c-3-2.48-7.22-1.62-9.14,2.18l1.73.54c-.9,0-1.76-.16-2.5.68.45.13.81.21,1.14.34s.63.32.95.48c-.55,0-1-.07-1.54-.06A3.6,3.6,0,0,0,32,19c.13.28.25.56.38.83a3.59,3.59,0,0,0,.21.35c-1.68-.31-2.38,0-2.62,1.46a6.27,6.27,0,0,0,.16,2.51c.27,1,1,1.27,2,.85l.55-.19c-.27.43-.36.73-.57.89a2.64,2.64,0,0,1-.77.31C33.24,35.68,43.56,39,50,33.67A5.79,5.79,0,0,1,46.17,31c-1.51.46-2.93.94-4.38,1.29-.31.07-.77-.31-1.11-.54s-.42-.56-.69-.68a4.92,4.92,0,0,1-2.86-4,3,3,0,0,1,.41-2.6,11.42,11.42,0,0,0,0,2.74c.79,3,4.51,4.71,7.79,3.27a1.14,1.14,0,0,1,1.69.45,4.53,4.53,0,0,0,7,.52,9.8,9.8,0,0,0,1-1.59,2.93,2.93,0,0,1-3.24-1.13c-.52-.6-1-1.27-1.44-1.91a1.43,1.43,0,0,0-2.15-.49,1.5,1.5,0,0,1-2-.2,2.07,2.07,0,0,0-2.17-.63,29.52,29.52,0,0,0-3,.95c-1.73.63-3-.2-3.06-2,1.1,1.71,1.48,1.81,3.44,1a10.07,10.07,0,0,1,2.13-.65c1-.15,2.1-.33,3,.58A1.05,1.05,0,0,0,48.43,25a13,13,0,0,0,.23-1.88l.12,0,.28,2.23a3.2,3.2,0,0,1,2.16,1.56C51.85,27.74,52.59,28.53,53.28,29.34ZM1.68,52.42a5,5,0,0,0,5.85.74A1.65,1.65,0,0,1,9,53.07a5.39,5.39,0,0,0,6.22-1.62l-2.58-4.39A14.21,14.21,0,0,1,6,48.56a.66.66,0,0,0-.52.22c-.51.79-1,1.59-1.54,2.52l2.44-1A12.85,12.85,0,0,1,1.68,52.42ZM51.31,10.76l2.28-6.34A18.77,18.77,0,0,0,47.24,2L45.32,8.34Zm-15-1.29c3.5,1.81,6.91,3.62,10.37,5.34,1.79.9,3.66,1.65,5.51,2.44a7,7,0,0,0,1.12.27c-.84-.52-1.71-.89-2.56-1.32a.79.79,0,0,1-.39-.57c.14-1.14.35-2.28.55-3.49l1.43.58a25.85,25.85,0,0,0-14-4.65C36.8,8,36.8,8.05,36.33,9.47ZM61.47,46l-.2-.15c0-1.43,1.28-2.43,1.57-3.8l-.76-.46.42-.67-2.35-.59a31.82,31.82,0,0,0,.26,7.29ZM37.3,7.3a6.3,6.3,0,0,0,.87,0c.22,0,.58-.13.63-.28C39.4,5,40,3,40.54,1c-1.46-.24-1.5-.22-1.73,1,0,.06,0,.11,0,.16C38.29,3.78,37.81,5.48,37.3,7.3Z"/><path class="cls-2" d="M57.08,77.36a13.65,13.65,0,0,1-1.88,5.08.69.69,0,0,1-.55.29c-3.76-.63-7.49-.15-11.23.16L42.36,83l3.22-8Z"/><path class="cls-2" d="M66.21,73.17a10,10,0,0,1,0,6.74,12.29,12.29,0,0,1-3.82,5.6,4.2,4.2,0,0,1-2.17.52C65.19,83.07,66.46,78.49,66.21,73.17Z"/><path class="cls-2" d="M54.42,85.54a8.42,8.42,0,0,1-1.7.66,46.34,46.34,0,0,1-10.25.7,9.4,9.4,0,0,1-2-.37c-1-.33-1.19-1-.49-1.8.22-.26.49-.47.79-.76-.16,1.41.1,1.8,1.44,2.13a17.87,17.87,0,0,0,6.19.07c2-.21,4-.52,6-.79Z"/><path class="cls-2" d="M63.37,52.8l5.3.75C67.63,54.17,64.21,53.94,63.37,52.8Z"/><path class="cls-2" d="M68.4,49.41c.32.39.69.66.65.87s-.41.47-.63.7c-.22-.22-.59-.42-.61-.66S68.12,49.83,68.4,49.41Z"/><path class="cls-2" d="M17.61,52.54c-.22-.31-.5-.54-.47-.68s.34-.37.52-.55c.15.18.42.36.43.54S17.84,52.23,17.61,52.54Z"/><path class="cls-2" d="M51.41,20.71c.24.35.62.66.69,1,.11.54-.29.9-.84.92a.8.8,0,0,1-.93-.92c.06-.37.45-.69.7-1Z"/><path class="cls-2" d="M39.49,33.26c.59,1,1.42.69,2.23.4l.06.28a12.47,12.47,0,0,1-2,.42c-.15,0-.34-.62-.51-1Z"/><path class="cls-2" d="M44.69,19.87l-2-.36C43.33,18.88,44,19,44.69,19.87Z"/><path class="cls-2" d="M50.29,44.5c.26.45.57.73.52,1s-.4.42-.63.62c-.2-.23-.56-.45-.57-.69S50,44.91,50.29,44.5Z"/><path class="cls-2" d="M48.93,39.66c.3.46.63.74.59,1a.93.93,0,0,1-.67.57c-.14,0-.53-.38-.53-.59S48.62,40.11,48.93,39.66Z"/><path class="cls-2" d="M52.18,50.06c-.43.31-.7.66-.93.64s-.52-.4-.59-.67.37-.53.58-.54S51.75,49.78,52.18,50.06Z"/><path class="cls-2" d="M43.84,12.31,38.05,9.67c.12-1.17.14-1.27,1.31-1.09,1.79.27,3.56.69,5.43,1.07Z"/><text class="cls-3" transform="translate(97.62 56.92)"><tspan class="cls-4">M</tspan><tspan class="cls-5" x="30.37" y="0">O</tspan><tspan class="cls-4" x="62.88" y="0">N</tspan><tspan x="89.58" y="0">O</tspan><tspan class="cls-6" x="122.08" y="0">P</tspan><tspan x="141.25" y="0">O</tspan><tspan class="cls-7" x="173.75" y="0">L</tspan><tspan class="cls-8" x="184.45" y="0">Y </tspan><tspan class="cls-6" x="223.24" y="0">H</tspan><tspan x="243.24" y="0">O</tspan><tspan class="cls-9" x="275.75" y="0">U</tspan><tspan class="cls-8" x="300.16" y="0">S</tspan><tspan class="cls-10" x="320.25" y="0">E</tspan><tspan x="336.77" y="0">S</tspan></text></g></g></svg>