<svg xmlns="http://www.w3.org/2000/svg" viewBox="0 0 450.99 87.88"><defs><style>.cls-1{fill:#fff;}.cls-2{fill:#3b61ab;}.cls-3{isolation:isolate;}.cls-4{fill:#3662C1;}</style></defs><g id="Calque_2" data-name="Calque 2"><g id="Calque_1-2" data-name="Calque 1"><g id="Calque_2-2" data-name="Calque 2"><g id="Calque_1-2-2" data-name="Calque 1-2"><path class="cls-1" d="M57.08,77.3l-11.5-2.36-3.22,8,1.06-.07c3.74-.31,7.47-.79,11.23-.16a.71.71,0,0,0,.55-.29A13.82,13.82,0,0,0,57.08,77.3Zm9.13-4.19c.25,5.32-1,9.9-6,12.86a4.3,4.3,0,0,0,2.17-.52,12.27,12.27,0,0,0,3.82-5.6A10,10,0,0,0,66.21,73.11ZM54.42,85.48l-.07-.16c-2,.27-4,.58-6,.79A17.87,17.87,0,0,1,42.16,86c-1.34-.33-1.6-.72-1.44-2.13-.3.29-.57.5-.79.76-.7.82-.55,1.47.49,1.8a9.66,9.66,0,0,0,2,.37,46.34,46.34,0,0,0,10.25-.7A9,9,0,0,0,54.42,85.48Zm8.95-32.74c.84,1.14,4.26,1.37,5.3.75Zm5-3.39c-.28.42-.61.68-.59.91s.39.44.61.66c.22-.23.59-.44.63-.7s-.3-.48-.62-.87ZM17.61,52.48c.23-.31.49-.51.48-.69s-.28-.36-.43-.54c-.18.18-.46.33-.52.55S17.39,52.17,17.61,52.48Z"/><path class="cls-2" d="M44,54.11c-.44,1.16-.81,2.35-1.33,3.47-1.93,4.16-5.32,6.21-9.82,6.57l-1.44.11c3.28-5.92,4-11.93,1.36-18.15-1.61,1.16-3.12,2.41-4.78,3.39-2,1.2-4.18,2.21-6.3,3.24-.68.33-1.48.62-2.05-.36l-2.36,1.73-1.5-2L14.45,53.6c.19.52.46,1.25.73,2L25.89,85c.07.2.14.4.2.6a1.63,1.63,0,0,1-.82,2.15l-.18.07A1.71,1.71,0,0,1,23,86.67c-.59-1.51-1.14-3-1.69-4.56q-5-13.69-10-27.41a.8.8,0,0,0-.79-.63,17.18,17.18,0,0,1-2-.38c.33,1.09.47,2.12-.73,2.71-1,.49-1.77.21-2.61-.82L3.81,56.66l-.1-.1a8.34,8.34,0,0,0,.82-1.06,3.29,3.29,0,0,0,.39-1.22A6.73,6.73,0,0,1,1.5,56.43l2.88-2.19-1.85-.62L.13,56.16,0,56.05l2-2.73-.9-1c.08-.1.13-.19.18-.2A3,3,0,0,0,4,49.77c.56-1.6,1.51-2.1,3.23-2a16.63,16.63,0,0,0,4.58-.86c.39-.09.69-.56,1-.81l4.48,7.15,1.82-1.31a24.43,24.43,0,0,1-5-7.31c1.23-.52,2.43-1,3.61-1.53a47.1,47.1,0,0,0,13.75-9.16,1.64,1.64,0,0,1,1-.37c.66-.06,1.32,0,2.13,0-.2-.26-.31-.41-.44-.55a13.58,13.58,0,0,1-3.46-6.9,1.5,1.5,0,0,0-.43-.79,4.41,4.41,0,0,1-.34-5.39c.09-.1.18-.25.29-.27,1.08-.22,1.19-1.21,1.59-2s.74-1.34,1-1.81a36.19,36.19,0,0,1-3-2.21,2.8,2.8,0,0,1-.73-3.22A2.46,2.46,0,0,1,31.73,8.9a34.62,34.62,0,0,1,4,.46c.36-1.09.84-2.32,1.18-3.59C37.33,4.21,37.67,2.62,38,1a1.12,1.12,0,0,1,1.19-1A24.87,24.87,0,0,1,49.86,1.87,23.32,23.32,0,0,1,57,5.6a1.5,1.5,0,0,1,.62,2l-.08.13c-.34.78-.75,1.53-1.14,2.28-1.24,2.37-1.4,5-1.82,7.69h4.35c.44,0,1-.14,1,.41a1.21,1.21,0,0,1-.8.87,25.14,25.14,0,0,1-3,.27,9.29,9.29,0,0,1-1.28-.06c.91,4.87.9,5.1-.52,10.1l.94-.31a5.77,5.77,0,0,0,1.08.68,116.62,116.62,0,0,1,15.23,5.68c1.64.74,2,1.42,1.61,3.16-.88,3.4-1.87,6.76-2.85,10.13a.85.85,0,0,1-.59.47A6.58,6.58,0,0,1,66,48.52c-1.41-.66-2.77-1.45-4.19-2.2L61,47.69a13,13,0,0,0,7,3.66c-2.88.28-5.22-1-7.37-2.8-.16,4.91,2.44,7.56,7.6,7a5.77,5.77,0,0,1-4.94.49l2.31,3a14.13,14.13,0,0,1-7.39-6.31,12.87,12.87,0,0,0,2.65,4.57,1.32,1.32,0,0,1,.36.75,20.75,20.75,0,0,1-1,7.08c-.18.55-.47.89-1.06.85a31.37,31.37,0,0,1-4.11-.36A4.87,4.87,0,0,1,51.24,62a2.51,2.51,0,0,0,1.2,3.35h0a9.71,9.71,0,0,0,4.69,1.14c2,.06,4.09,0,6.23,0,.25.52.48.53,3.27,0,.88,1.57,1,5,.14,5.83a6.75,6.75,0,0,0-.11-.89c-.12-1.13-.25-2.27-.37-3.4,0-.48-.3-.61-.76-.54-.68.11-1.37.18-2.11.26a19.07,19.07,0,0,1-2.25,6.68,1.1,1.1,0,0,0,0,.8,8.48,8.48,0,0,1,.1,4.84c-.3-1.33-.59-2.65-.84-3.79a8.52,8.52,0,0,1-1.82.28,46.16,46.16,0,0,1-13-2.52c-3.43-1.3-6-3.4-6.8-7.19a13.84,13.84,0,0,1-.24-1.57,2.67,2.67,0,0,1,1.28-3c1.82-1.1,2.7-3,3.31-5,.31-1,.45-2.12.67-3.19.53.23,1.07.41,1.57.68,1.12.58,2.23,1.19,3.36,1.8l2.82-3.71,3,2.36c.61-.89,1.14-1.75,1.74-2.56a2.47,2.47,0,0,0,.26-3.16,2.69,2.69,0,0,1-.32-.81c-.91-3.27-1.79-6.54-2.73-9.8-.48-1.68-1-3.33-1.62-5-.07-.19-.38-.31-.57-.46a7.35,7.35,0,0,0-.34.76c0,.08,0,.2.06.3.2,1.23.4,2.45.6,3.74-1.16-.29-2.22-.53-3.26-.85a.88.88,0,0,0-1,.3c-.84.84-1.71,1.65-2.6,2.5a27.28,27.28,0,0,1-1.55-2.45,1.58,1.58,0,0,0-2-.88l.52.93a19.19,19.19,0,0,1,2.51,12.95C44.28,51.85,44.16,52.94,44,54.11Zm9.28-24.83.3-.18a13.13,13.13,0,0,0,.58-9.62.79.79,0,0,0-.5-.41,33.11,33.11,0,0,1-9.43-3.56,2.7,2.7,0,0,0-2.9.17,7.66,7.66,0,0,0-.66.45l-.14-.19,1.8-1.42c-3-2.48-7.22-1.62-9.14,2.18l1.73.54c-.9,0-1.76-.16-2.5.68.45.13.81.21,1.14.34s.63.32.95.48c-.55,0-1-.07-1.54-.06a3.67,3.67,0,0,0-1,.26c.13.28.25.56.38.83a2.5,2.5,0,0,0,.21.35c-1.68-.31-2.38,0-2.62,1.46a6.25,6.25,0,0,0,.16,2.51c.27,1,1,1.27,2,.85l.55-.19c-.27.43-.36.73-.57.89a2.7,2.7,0,0,1-.77.31c1.9,9.67,12.22,13,18.66,7.66a5.8,5.8,0,0,1-3.83-2.67c-1.51.46-2.93.94-4.38,1.29-.31.07-.77-.31-1.11-.54s-.42-.56-.69-.68a4.92,4.92,0,0,1-2.86-4,3,3,0,0,1,.41-2.6,11.42,11.42,0,0,0,0,2.74c.79,3,4.51,4.71,7.79,3.27a1.15,1.15,0,0,1,1.59.27,1.62,1.62,0,0,1,.1.18A4.52,4.52,0,0,0,53.33,32a4.3,4.3,0,0,0,.69-.59,10.11,10.11,0,0,0,1-1.59,2.94,2.94,0,0,1-3.24-1.13,21.7,21.7,0,0,1-1.44-1.91,1.43,1.43,0,0,0-1.92-.64,1.14,1.14,0,0,0-.23.15,1.51,1.51,0,0,1-2-.2A2.07,2.07,0,0,0,44,25.44a28.25,28.25,0,0,0-3,.95c-1.73.63-3-.2-3.06-2,1.1,1.71,1.48,1.81,3.44,1a9.89,9.89,0,0,1,2.13-.65c1-.15,2.1-.33,3,.58A1,1,0,0,0,48,25.6a1,1,0,0,0,.44-.66,13.22,13.22,0,0,0,.23-1.88h.12l.28,2.23a3.2,3.2,0,0,1,2.16,1.56C51.85,27.68,52.59,28.47,53.28,29.28ZM1.68,52.36a5,5,0,0,0,5.85.74A1.65,1.65,0,0,1,9,53a5.4,5.4,0,0,0,6.22-1.62L12.64,47A14.29,14.29,0,0,1,6,48.5a.64.64,0,0,0-.52.22c-.51.79-1,1.59-1.54,2.52l2.44-1A12.82,12.82,0,0,1,1.68,52.36ZM51.31,10.7l2.28-6.34a18.58,18.58,0,0,0-6.35-2.42L45.32,8.28Zm-15-1.29c3.5,1.81,6.91,3.62,10.37,5.34,1.79.9,3.66,1.65,5.51,2.44a7.3,7.3,0,0,0,1.12.27c-.84-.52-1.71-.89-2.56-1.32a.8.8,0,0,1-.39-.57c.14-1.14.35-2.28.55-3.49l1.43.58A25.86,25.86,0,0,0,38.34,8c-1.54-.07-1.54,0-2,1.4ZM61.47,45.94l-.2-.15c0-1.43,1.28-2.43,1.57-3.8l-.76-.46.42-.67-2.35-.59a31.76,31.76,0,0,0,.26,7.29ZM37.3,7.24a6.31,6.31,0,0,0,.87,0c.22,0,.58-.13.63-.28.6-2,1.2-4,1.74-6-1.46-.24-1.5-.22-1.73,1V2.1C38.29,3.72,37.81,5.42,37.3,7.24Z"/><path class="cls-2" d="M57.08,77.3a13.64,13.64,0,0,1-1.88,5.08.71.71,0,0,1-.55.29c-3.76-.63-7.49-.15-11.23.16l-1.06.11,3.22-8Z"/><path class="cls-2" d="M66.21,73.11a10,10,0,0,1,0,6.74,12.27,12.27,0,0,1-3.82,5.6,4.3,4.3,0,0,1-2.17.52C65.19,83,66.46,78.43,66.21,73.11Z"/><path class="cls-2" d="M54.42,85.48a8.55,8.55,0,0,1-1.7.66,46.34,46.34,0,0,1-10.25.7,9.66,9.66,0,0,1-2-.37c-1-.33-1.19-1-.49-1.8.22-.26.49-.47.79-.76-.16,1.41.1,1.8,1.44,2.13a17.87,17.87,0,0,0,6.19.07c2-.21,4-.52,6-.79Z"/><path class="cls-2" d="M63.37,52.74l5.3.75C67.63,54.11,64.21,53.88,63.37,52.74Z"/><path class="cls-2" d="M68.4,49.35c.32.39.69.66.65.87s-.41.47-.63.7c-.22-.22-.59-.42-.61-.66S68.12,49.77,68.4,49.35Z"/><path class="cls-2" d="M17.61,52.48c-.22-.31-.5-.54-.47-.68s.34-.37.52-.55c.15.18.42.36.43.54S17.84,52.17,17.61,52.48Z"/><path class="cls-2" d="M51.41,20.65c.24.35.62.66.69,1,.11.54-.29.9-.84.92a.8.8,0,0,1-.93-.65.82.82,0,0,1,0-.27c.06-.37.45-.69.7-1Z"/><path class="cls-2" d="M39.49,33.2c.59,1,1.42.69,2.23.4l.06.28a13.4,13.4,0,0,1-2,.42c-.15,0-.34-.62-.51-1Z"/><path class="cls-2" d="M44.69,19.81l-2-.36C43.33,18.82,44,18.94,44.69,19.81Z"/><path class="cls-2" d="M50.29,44.44c.26.45.57.73.52,1s-.4.42-.63.62c-.2-.23-.56-.45-.57-.69S50,44.85,50.29,44.44Z"/><path class="cls-2" d="M48.93,39.6c.3.46.63.74.59,1a.94.94,0,0,1-.67.57.9.9,0,0,1-.53-.59C48.32,40.37,48.62,40.05,48.93,39.6Z"/><path class="cls-2" d="M52.18,50c-.43.31-.7.66-.93.64s-.52-.4-.59-.67.37-.53.58-.54S51.75,49.72,52.18,50Z"/><path class="cls-2" d="M43.84,12.25,38.05,9.61c.12-1.17.14-1.27,1.31-1.09,1.79.27,3.56.69,5.43,1.07Z"/><g class="cls-3"><g class="cls-3"><path class="cls-4" d="M121.48,28.91h2.6v28H122.5V30.44h-.37l-11.3,11.4L99.57,30.44H99.2V56.86H97.62V28.91h2.6L110.83,39.6Zm-1.12,28V35.18l-9.53,9.63-9.54-9.63V56.86H99.71V31.37l11.12,11.21,11.11-11.21V56.86Z"/></g><g class="cls-3"><path class="cls-4" d="M132.22,32.63a14.9,14.9,0,0,1,4.7-3.14,14.15,14.15,0,0,1,5.54-1.1,13.77,13.77,0,0,1,5.62,1.17,14.56,14.56,0,0,1,4.61,3.16,15.37,15.37,0,0,1,3.09,4.6,13.7,13.7,0,0,1,1.14,5.54,13.92,13.92,0,0,1-1.14,5.6,14.67,14.67,0,0,1-7.72,7.72,14.23,14.23,0,0,1-11.16,0,15.05,15.05,0,0,1-4.61-3.09,14.82,14.82,0,0,1-3.14-4.58A13.86,13.86,0,0,1,128,42.86a14.18,14.18,0,0,1,1.09-5.54A15,15,0,0,1,132.22,32.63Zm1.12,1.11a12.65,12.65,0,0,0-2.79,4.15,12.78,12.78,0,0,0-1,5,12.41,12.41,0,0,0,1,5,13.44,13.44,0,0,0,2.8,4.11,13.29,13.29,0,0,0,4.09,2.78,12.64,12.64,0,0,0,10,0,13.21,13.21,0,0,0,6.88-6.89,12.25,12.25,0,0,0,1-5,12.06,12.06,0,0,0-1-5,13.53,13.53,0,0,0-2.76-4.09,13.1,13.1,0,0,0-4.1-2.78,12.37,12.37,0,0,0-5-1,12.74,12.74,0,0,0-9.12,3.76Zm9.12-3.25a11.55,11.55,0,0,1,4.76,1,13.22,13.22,0,0,1,4,2.67,12.44,12.44,0,0,1,2.67,3.93,12.1,12.1,0,0,1,0,9.54,12.53,12.53,0,0,1-6.63,6.62,12.07,12.07,0,0,1-9.53,0,12.53,12.53,0,0,1-6.63-6.62,12.1,12.1,0,0,1,0-9.54,12.55,12.55,0,0,1,2.65-3.93,13,13,0,0,1,3.93-2.67A11.69,11.69,0,0,1,142.46,30.49Zm0,1.58a10.46,10.46,0,0,0-4.21.86,10.89,10.89,0,0,0-3.45,2.35,11.22,11.22,0,0,0-2.3,3.44,10.35,10.35,0,0,0-.84,4.14,10.5,10.5,0,0,0,.86,4.21,11.12,11.12,0,0,0,2.33,3.44,10.71,10.71,0,0,0,3.44,2.3,10.75,10.75,0,0,0,8.33,0,10.71,10.71,0,0,0,3.44-2.3,10.93,10.93,0,0,0,2.32-3.44,10.34,10.34,0,0,0,.87-4.21,10,10,0,0,0-.87-4.14,11.28,11.28,0,0,0-2.32-3.44,11,11,0,0,0-3.42-2.35A10.32,10.32,0,0,0,142.46,32.07Z"/></g><g class="cls-3"><path class="cls-4" d="M179.62,28.91h1.58V54.25L162.45,30.44h-.37V56.86H160.5V28.91h2.74L179.62,49.7Zm3.72,0v28h-2.75L164.17,36V56.86h-1.58V31.51l18.75,23.77h.41V28.91Z"/></g><g class="cls-3"><path class="cls-4" d="M191.43,32.63a14.9,14.9,0,0,1,4.7-3.14,14.15,14.15,0,0,1,5.54-1.1,13.77,13.77,0,0,1,5.62,1.17,14.56,14.56,0,0,1,4.61,3.16,15.37,15.37,0,0,1,3.09,4.6,13.7,13.7,0,0,1,1.14,5.54,13.92,13.92,0,0,1-1.14,5.6,14.67,14.67,0,0,1-7.72,7.72,14.23,14.23,0,0,1-11.16,0,14.72,14.72,0,0,1-7.75-7.67,13.86,13.86,0,0,1-1.16-5.65,14.18,14.18,0,0,1,1.09-5.54A15,15,0,0,1,191.43,32.63Zm1.12,1.11a12.65,12.65,0,0,0-2.79,4.15,12.78,12.78,0,0,0-1,5,12.41,12.41,0,0,0,1,5,13.44,13.44,0,0,0,2.8,4.11,13.29,13.29,0,0,0,4.09,2.78,12.64,12.64,0,0,0,9.95,0,13.21,13.21,0,0,0,6.88-6.89,12.25,12.25,0,0,0,1-5,12.06,12.06,0,0,0-1-5,13.53,13.53,0,0,0-2.76-4.09,13.1,13.1,0,0,0-4.1-2.78,12.37,12.37,0,0,0-5-1,12.74,12.74,0,0,0-9.12,3.76Zm9.12-3.25a11.55,11.55,0,0,1,4.76,1,13.22,13.22,0,0,1,4,2.67,12.44,12.44,0,0,1,2.67,3.93,12.1,12.1,0,0,1,0,9.54,12.53,12.53,0,0,1-6.63,6.62,12.07,12.07,0,0,1-9.53,0,12.53,12.53,0,0,1-6.63-6.62,12.1,12.1,0,0,1,0-9.54,12.55,12.55,0,0,1,2.65-3.93,13,13,0,0,1,3.93-2.67A11.69,11.69,0,0,1,201.67,30.49Zm0,1.58a10.46,10.46,0,0,0-4.21.86A10.89,10.89,0,0,0,194,35.28a11.22,11.22,0,0,0-2.3,3.44,10.35,10.35,0,0,0-.84,4.14,10.5,10.5,0,0,0,.86,4.21,11.12,11.12,0,0,0,2.33,3.44,10.71,10.71,0,0,0,3.44,2.3,10.75,10.75,0,0,0,8.33,0,10.71,10.71,0,0,0,3.44-2.3,10.93,10.93,0,0,0,2.32-3.44,10.34,10.34,0,0,0,.87-4.21,10,10,0,0,0-.87-4.14,11.28,11.28,0,0,0-2.32-3.44,11,11,0,0,0-3.42-2.35A10.32,10.32,0,0,0,201.67,32.07Z"/></g><g class="cls-3"><path class="cls-4" d="M223.37,47.18v9.68h-1.58V45.6h5.49a7.22,7.22,0,0,0,2.91-.6,7.66,7.66,0,0,0,4-4,7.31,7.31,0,0,0,.61-2.92,7.1,7.1,0,0,0-.61-2.86,8,8,0,0,0-4-4.08,7.07,7.07,0,0,0-2.91-.62h-6V56.86H219.7V28.91h7.58a8.68,8.68,0,0,1,3.51.72,9.53,9.53,0,0,1,2.91,2,9.39,9.39,0,0,1,2,2.91,8.92,8.92,0,0,1,0,7,9.27,9.27,0,0,1-2,2.91,9.8,9.8,0,0,1-2.91,2,8.38,8.38,0,0,1-3.51.74ZM221.79,31h5.49a6.45,6.45,0,0,1,2.72.58,7.46,7.46,0,0,1,2.23,1.54,7.23,7.23,0,0,1,1.52,2.23A6.62,6.62,0,0,1,234.3,38a6.7,6.7,0,0,1-.55,2.68,7.35,7.35,0,0,1-1.52,2.23A7.44,7.44,0,0,1,230,44.46a6.46,6.46,0,0,1-2.72.59h-5.49Zm1.58,1.58V43.46h3.91a4.9,4.9,0,0,0,2.09-.44,5.73,5.73,0,0,0,1.72-1.16,5.24,5.24,0,0,0,1.19-1.72,5.1,5.1,0,0,0,.44-2.12,4.93,4.93,0,0,0-.44-2.09A5.84,5.84,0,0,0,229.37,33a5.05,5.05,0,0,0-2.09-.44Z"/></g><g class="cls-3"><path class="cls-4" d="M243.1,32.63a14.9,14.9,0,0,1,4.7-3.14,14.14,14.14,0,0,1,5.53-1.1A13.78,13.78,0,0,1,259,29.56a14.56,14.56,0,0,1,4.61,3.16,15.37,15.37,0,0,1,3.09,4.6,13.7,13.7,0,0,1,1.14,5.54,13.92,13.92,0,0,1-1.14,5.6,14.67,14.67,0,0,1-7.72,7.72,13.93,13.93,0,0,1-5.61,1.14,13.78,13.78,0,0,1-5.55-1.14A14.72,14.72,0,0,1,240,48.51a13.86,13.86,0,0,1-1.16-5.65A14.18,14.18,0,0,1,240,37.32,15,15,0,0,1,243.1,32.63Zm1.12,1.11a12.65,12.65,0,0,0-2.79,4.15,12.78,12.78,0,0,0-1,5,12.41,12.41,0,0,0,1,5,13.18,13.18,0,0,0,6.89,6.89,12.64,12.64,0,0,0,9.95,0,13.21,13.21,0,0,0,6.88-6.89,12.25,12.25,0,0,0,1-5,12.06,12.06,0,0,0-1-5,13.53,13.53,0,0,0-2.76-4.09,13.1,13.1,0,0,0-4.1-2.78,12.39,12.39,0,0,0-5-1,12.74,12.74,0,0,0-9.11,3.76Zm9.11-3.25a11.56,11.56,0,0,1,4.77,1,13,13,0,0,1,3.95,2.67,12.3,12.3,0,0,1,2.68,3.93,12.1,12.1,0,0,1,0,9.54,12.62,12.62,0,0,1-6.63,6.62,12.07,12.07,0,0,1-9.53,0,12.53,12.53,0,0,1-6.63-6.62,12.1,12.1,0,0,1,0-9.54,12.55,12.55,0,0,1,2.65-3.93,13,13,0,0,1,3.93-2.67A11.68,11.68,0,0,1,253.33,30.49Zm0,1.58a10.53,10.53,0,0,0-4.21.86,11,11,0,0,0-3.44,2.35,11.22,11.22,0,0,0-2.3,3.44,10.35,10.35,0,0,0-.84,4.14,10.5,10.5,0,0,0,.86,4.21,11.12,11.12,0,0,0,2.33,3.44,10.71,10.71,0,0,0,3.44,2.3,10.75,10.75,0,0,0,8.33,0,10.74,10.74,0,0,0,5.76-5.74,10.33,10.33,0,0,0,.86-4.21,10,10,0,0,0-.86-4.14,11.28,11.28,0,0,0-2.32-3.44,11,11,0,0,0-3.42-2.35A10.33,10.33,0,0,0,253.33,32.07Z"/></g><g class="cls-3"><path class="cls-4" d="M285.46,56.86H271.37V28.91H273V55.28h12.51Zm0-2.09h-12V28.91H275V53.18h10.42v1.59Z"/></g><g class="cls-3"><path class="cls-4" d="M292.4,56.86V43.79L282.07,28.91H284l10,14.37V56.86Zm-5.86-27.95.79,1.07,6.93,10L302,28.91h1.9l-9.62,13.81-7.54-10.84-2.09-3Zm9.58,24.27v3.68h-1.58V43.28l7.16-10.37,2.83-4h1.91l-2.79,3.95-7.53,10.93Z"/></g><g class="cls-3"><path class="cls-4" d="M321.7,56.86h-.84V28.91h1.58v28Zm2-27.95h.83V42.77h8.66V28.91h1.58V44.35H323V28.91Zm10.32,28h-.83V46.49h-8.66V56.86H323v-12h11.82v12Zm2.84-27.95v28h-1.58V28.91h1.58Z"/></g><g class="cls-3"><path class="cls-4" d="M345.09,32.63a14.9,14.9,0,0,1,4.7-3.14,14.15,14.15,0,0,1,5.54-1.1A13.77,13.77,0,0,1,361,29.56a14.56,14.56,0,0,1,4.61,3.16,15.37,15.37,0,0,1,3.09,4.6,13.7,13.7,0,0,1,1.14,5.54,13.92,13.92,0,0,1-1.14,5.6,14.67,14.67,0,0,1-7.72,7.72,14.23,14.23,0,0,1-11.16,0A14.72,14.72,0,0,1,342,48.51a13.86,13.86,0,0,1-1.16-5.65A14.18,14.18,0,0,1,342,37.32,15,15,0,0,1,345.09,32.63Zm1.12,1.11a12.65,12.65,0,0,0-2.79,4.15,12.78,12.78,0,0,0-1,5,12.41,12.41,0,0,0,1,5,13.18,13.18,0,0,0,6.89,6.89,12.64,12.64,0,0,0,9.95,0,13.21,13.21,0,0,0,6.88-6.89,12.25,12.25,0,0,0,1-5,12.06,12.06,0,0,0-1-5,13.53,13.53,0,0,0-2.76-4.09,13.1,13.1,0,0,0-4.1-2.78,12.37,12.37,0,0,0-5-1,12.74,12.74,0,0,0-9.12,3.76Zm9.12-3.25a11.55,11.55,0,0,1,4.76,1,13,13,0,0,1,4,2.67,12.3,12.3,0,0,1,2.68,3.93,12.1,12.1,0,0,1,0,9.54,12.62,12.62,0,0,1-6.63,6.62,12.07,12.07,0,0,1-9.53,0,12.53,12.53,0,0,1-6.63-6.62,12.1,12.1,0,0,1,0-9.54,12.55,12.55,0,0,1,2.65-3.93,13,13,0,0,1,3.93-2.67A11.69,11.69,0,0,1,355.33,30.49Zm0,1.58a10.46,10.46,0,0,0-4.21.86,10.89,10.89,0,0,0-3.45,2.35,11.22,11.22,0,0,0-2.3,3.44,10.35,10.35,0,0,0-.84,4.14,10.5,10.5,0,0,0,.86,4.21,11.12,11.12,0,0,0,2.33,3.44,10.71,10.71,0,0,0,3.44,2.3,10.75,10.75,0,0,0,8.33,0,10.74,10.74,0,0,0,5.76-5.74,10.34,10.34,0,0,0,.87-4.21,10,10,0,0,0-.87-4.14,11.28,11.28,0,0,0-2.32-3.44,11,11,0,0,0-3.42-2.35A10.32,10.32,0,0,0,355.33,32.07Z"/></g><g class="cls-3"><path class="cls-4" d="M392.72,28.91h1.58v18a10,10,0,0,1-.84,4,10.67,10.67,0,0,1-5.58,5.58,10.09,10.09,0,0,1-4.05.83,10.69,10.69,0,0,1-4-.76,10.23,10.23,0,0,1-3.39-2.26v0a10.44,10.44,0,0,1-2.28-3.39,10.3,10.3,0,0,1-.79-4V28.91H375V46.83a8.49,8.49,0,0,0,.7,3.43,9,9,0,0,0,1.91,2.86,8.83,8.83,0,0,0,2.83,1.93,8.95,8.95,0,0,0,6.89,0,8.83,8.83,0,0,0,2.83-1.93A9,9,0,0,0,392,50.26a8.49,8.49,0,0,0,.7-3.43Zm-15.68,0v18a6.52,6.52,0,0,0,.54,2.63A7.29,7.29,0,0,0,379,51.65a6.7,6.7,0,0,0,4.81,2,6.7,6.7,0,0,0,4.82-2,7.29,7.29,0,0,0,1.44-2.16,6.51,6.51,0,0,0,.53-2.63V28.91h1.59v18a8,8,0,0,1-.68,3.25,8.62,8.62,0,0,1-1.81,2.68,8.37,8.37,0,0,1-9.14,1.79,8.35,8.35,0,0,1-5.12-7.72V28.91Z"/></g><g class="cls-3"><path class="cls-4" d="M408.57,33.32a4.2,4.2,0,0,0-1.19-.9,3,3,0,0,0-1.46-.35,3.47,3.47,0,0,0-3.4,3.39,3.08,3.08,0,0,0,.42,1.66,4.32,4.32,0,0,0,1.1,1.16,8.3,8.3,0,0,0,1.46.84l1.54.67c1,.46,2,.94,2.88,1.42a9.83,9.83,0,0,1,2.35,1.72,7.42,7.42,0,0,1,1.56,2.35,9.19,9.19,0,0,1-.14,6.63,9.51,9.51,0,0,1-1.89,2.81A8.77,8.77,0,0,1,409,56.63a8.65,8.65,0,0,1-3.46.69A8.4,8.4,0,0,1,401,56.07a9.51,9.51,0,0,1-3.23-3.35l1.4-.79a6.83,6.83,0,0,0,2.67,2.79,7.22,7.22,0,0,0,3.7,1,6.86,6.86,0,0,0,2.81-.58,7,7,0,0,0,2.3-1.58,7.88,7.88,0,0,0,1.56-2.29,6.74,6.74,0,0,0,.58-2.79,5.84,5.84,0,0,0-.88-3.37A7.93,7.93,0,0,0,409.73,43a17.19,17.19,0,0,0-2.86-1.51A26.28,26.28,0,0,1,404,40.1a7.92,7.92,0,0,1-2.18-1.81,4.31,4.31,0,0,1-.89-2.84,4.62,4.62,0,0,1,.4-1.92A5,5,0,0,1,402.43,32,5.33,5.33,0,0,1,404,30.88a4.69,4.69,0,0,1,1.88-.39A4.28,4.28,0,0,1,408,31a7.85,7.85,0,0,1,1.77,1.35ZM401,51l0,.09A4.46,4.46,0,0,0,403,53a5.29,5.29,0,0,0,2.58.68,5,5,0,0,0,2-.42,5.18,5.18,0,0,0,1.65-1.12,5.09,5.09,0,0,0,1.49-3.58,4,4,0,0,0-.88-2.69,8,8,0,0,0-2.19-1.77,26.28,26.28,0,0,0-2.86-1.4,15.89,15.89,0,0,1-2.86-1.53,8.08,8.08,0,0,1-2.19-2.21,6.14,6.14,0,0,1-.88-3.47,7.07,7.07,0,0,1,2.09-5A7.59,7.59,0,0,1,403.2,29a6.85,6.85,0,0,1,5.79.17A7.41,7.41,0,0,1,411.41,31l-1.21,1a10.54,10.54,0,0,0-1.95-1.49,4.67,4.67,0,0,0-2.33-.55,5.1,5.1,0,0,0-2.12.44,5.69,5.69,0,0,0-1.74,1.18,5.77,5.77,0,0,0-1.19,1.75,5.25,5.25,0,0,0-.44,2.11,4.82,4.82,0,0,0,.88,3,7.84,7.84,0,0,0,2.19,1.93,19.54,19.54,0,0,0,2.86,1.42,17.08,17.08,0,0,1,2.86,1.47,8.22,8.22,0,0,1,2.19,2,5.33,5.33,0,0,1,.88,3.21,6.51,6.51,0,0,1-.53,2.61,6.79,6.79,0,0,1-1.47,2.11,7.13,7.13,0,0,1-2.16,1.45,6.51,6.51,0,0,1-2.58.53,6.89,6.89,0,0,1-3.47-.95,6,6,0,0,1-2.44-2.58Z"/></g><g class="cls-3"><path class="cls-4" d="M431.12,56.86H417.87V28.91h13.25v1.58H419.45V55.28h11.67Zm-9.58-14.14h7.26V44.3H420V31h11.16v1.58h-9.58Zm7.26,3.72h-7.26v6.74h9.58v1.59H420V44.86h8.84Z"/></g><g class="cls-3"><path class="cls-4" d="M445.18,33.32a4.2,4.2,0,0,0-1.19-.9,3,3,0,0,0-1.46-.35,3.27,3.27,0,0,0-2.37,1,3.2,3.2,0,0,0-1,2.39,3.08,3.08,0,0,0,.42,1.66,4.32,4.32,0,0,0,1.1,1.16,8.3,8.3,0,0,0,1.46.84l1.54.67c1,.46,2,.94,2.88,1.42a9.83,9.83,0,0,1,2.35,1.72,7.42,7.42,0,0,1,1.56,2.35,9.19,9.19,0,0,1-.14,6.63,9.51,9.51,0,0,1-1.89,2.81,8.77,8.77,0,0,1-2.79,1.91,8.65,8.65,0,0,1-3.46.69,8.4,8.4,0,0,1-4.54-1.25,9.51,9.51,0,0,1-3.23-3.35l1.4-.79a6.89,6.89,0,0,0,2.67,2.79,7.19,7.19,0,0,0,3.7,1,6.86,6.86,0,0,0,2.81-.58,7.1,7.1,0,0,0,2.3-1.58,7.88,7.88,0,0,0,1.56-2.29,6.74,6.74,0,0,0,.58-2.79,5.84,5.84,0,0,0-.88-3.37A7.93,7.93,0,0,0,446.34,43a17.19,17.19,0,0,0-2.86-1.51,26.28,26.28,0,0,1-2.86-1.39,7.92,7.92,0,0,1-2.18-1.81,4.31,4.31,0,0,1-.89-2.84,4.62,4.62,0,0,1,.4-1.92A5,5,0,0,1,439,32a5.33,5.33,0,0,1,1.61-1.07,4.69,4.69,0,0,1,1.88-.39,4.28,4.28,0,0,1,2.09.51,7.85,7.85,0,0,1,1.77,1.35ZM437.65,51l0,.09A4.46,4.46,0,0,0,439.58,53a5.29,5.29,0,0,0,2.58.68,5,5,0,0,0,2-.42,5.18,5.18,0,0,0,1.65-1.12,5.09,5.09,0,0,0,1.49-3.58,4,4,0,0,0-.88-2.69,8,8,0,0,0-2.19-1.77,26.28,26.28,0,0,0-2.86-1.4,15.89,15.89,0,0,1-2.86-1.53,8.08,8.08,0,0,1-2.19-2.21,6.14,6.14,0,0,1-.88-3.47,7.07,7.07,0,0,1,2.09-5A7.59,7.59,0,0,1,439.81,29a6.85,6.85,0,0,1,5.79.17A7.41,7.41,0,0,1,448,31l-1.21,1a10.27,10.27,0,0,0-2-1.49,4.6,4.6,0,0,0-2.32-.55,5.13,5.13,0,0,0-2.12.44,5.69,5.69,0,0,0-1.74,1.18,5.77,5.77,0,0,0-1.19,1.75,5.25,5.25,0,0,0-.44,2.11,4.76,4.76,0,0,0,.88,3,7.84,7.84,0,0,0,2.19,1.93A19.54,19.54,0,0,0,443,41.81a17.08,17.08,0,0,1,2.86,1.47,8.22,8.22,0,0,1,2.19,2,5.33,5.33,0,0,1,.88,3.21,6.51,6.51,0,0,1-.53,2.61,6.79,6.79,0,0,1-1.47,2.11,7.13,7.13,0,0,1-2.16,1.45,6.51,6.51,0,0,1-2.58.53,6.89,6.89,0,0,1-3.47-.95,6,6,0,0,1-2.44-2.58Z"/></g></g></g></g></g></g></svg>