<svg xmlns="http://www.w3.org/2000/svg" viewBox="0 0 201.66 223.72"><defs><style>.cls-1{fill:#f6f6f6;}</style></defs><g id="Calque_2" data-name="Calque 2"><g id="Calque_1-2" data-name="Calque 1"><path class="cls-1" d="M82.08,208.77c0,2.43,0,4.57,0,6.7-.11,5.39-3,8.23-8.46,8.23q-32.55,0-65.11,0c-5.43,0-8.34-2.83-8.48-8.23,0-1.58,0-3.16,0-4.74,0-6,1.71-8.2,7.28-9.62-1-4.15-2.4-8.24-3-12.43a39.83,39.83,0,0,1,3.93-25c.6-1.15,1-2-.16-3.26-3.32-3.42-3.84-7.48-2.38-12A754.51,754.51,0,0,0,25.53,74.92C28,63.63,30.08,52.29,32.31,41c1-5.29,4.88-9,10.22-9.32,1.74-.1,2.23-.83,2.6-2.24Q47.36,21,49.7,12.57C53,.56,67.08-4,76.52,4.07a127.09,127.09,0,0,0,40.16,23.62c8.5,3,12.46,10.86,10.43,19.85-.56,2.48-.5,4.06,1.75,5.85a9.72,9.72,0,0,1,3.33,10.34c-.59,2.5-1.42,5-1.88,7.48a4,4,0,0,0,.73,3,11.67,11.67,0,0,1,3.2,8.39c-.06,2.33,0,4.66,0,7-.14,5.94-3.94,10.24-9.87,10.93a2.76,2.76,0,0,0-2.79,2.45c-1,4.2-2.21,8.35-3.42,12.49a2.16,2.16,0,0,0,.78,2.72,11.16,11.16,0,0,1,4.22,9.18c0,2.25.17,4.51-.07,6.73a64.91,64.91,0,0,1-1.42,6.64c2,1.29,4.06,2.69,7.11.91a8.35,8.35,0,0,1,8.2.15,53.22,53.22,0,0,1,9.54,6.26c1.67,1.47,2.3,4.1,3.47,6.16a6.35,6.35,0,0,0,1.68,2.16c1.37.92,2.92,1.58,4.37,2.38,2.65,1.48,5,2.37,8.44,1.32,6.8-2.06,17.79,5.2,19.77,12.12a4,4,0,0,0,1.78,2.14c7.83,4.68,11.7,11.54,11.58,20.66,0,1.16.06,2.33,0,3.49a6.61,6.61,0,0,0,2,5.72c2.82,2.77,2.76,14-.07,16.77a9.2,9.2,0,0,1-5.62,2.62c-25.62.17-51.23.15-76.85.07a14.21,14.21,0,0,1-11.39-5.77,17.67,17.67,0,0,1-2.24-3c-2.56-5.21-6.6-7.06-12.31-6.2C88.27,209.12,85.33,208.77,82.08,208.77ZM122.53,70.92c.74-2.71,1.46-5.26,2.11-7.83.78-3.06-.23-4.7-3.37-5.45q-37.8-9.07-75.6-18.12c-4.1-1-5.34-.05-6.23,4-4.82,22.07-9.35,44.2-14.68,66.15-3.34,13.78-7.9,27.27-11.93,40.89-.93,3.14-.43,4.48,2.23,5.68,9.61,4.35,19.21,8.73,28.85,13,6.82,3,11.59,1.39,15.91-4.65,3.33-4.65,7.09-9,10.82-13.35,1.69-2,3.74-3.64,6.1-5.89-1.57,0-2.53,0-3.49,0a10.57,10.57,0,0,1-10.23-7,64,64,0,0,1-2.86-8.76,12.25,12.25,0,0,1-.16-5.15c1.07-5.6,5.46-8.84,11.87-8.87,12,0,24,0,35.94,0,.9,0,2.43-.26,2.59-.75,1.42-4.53,2.61-9.14,4-14.08-6,0-11.45,0-16.93,0-4.82,0-9.65.09-14.45-.26-4.37-.31-7.33-2.91-8.88-7-.88-2.33-1.67-4.7-2.43-7.07C68.93,77.84,74,70.94,83,70.92q17.22,0,34.44,0ZM16.4,165.15a3.32,3.32,0,0,0-.6.45,5,5,0,0,0-.54.84c-5.59,11.12-5.56,22.17.36,33.18.84,1.56,2,1.68,3.47,1.68q84.09,0,168.18,0c.87,0,1.75-.08,2.58-.12,1.24-10.38-1.42-17.33-7.65-20-1.45,2.27-2.9,4.6-4.4,6.88-3.3,5-7.48,6.69-13.28,5.31-1.93-.46-3.86-1-5.78-1.49-9.19-2.47-12.21-10-7.28-18,1.37-2.25,2.78-4.46,4.25-6.81l-7.83-4.12c-.56.81-1,1.47-1.48,2.16-4,6.31-8,12.64-12,18.94a10.86,10.86,0,0,1-11.78,5.15,72.17,72.17,0,0,1-8.69-2.18,11.09,11.09,0,0,1-6.32-16.34c1.09-1.86,2.29-3.67,3.44-5.49,3.35-5.33,6.71-10.65,10.33-16.39-3.06-1.23-5.73-3-8.53-3.26-5.36-.49-10.82.2-16.2-.2-4.74-.35-8.47,1.23-12.15,3.92a77.68,77.68,0,0,0-19.17,20.43c-5.25,8-14,10.72-22.91,7.16-4.32-1.72-8.5-3.79-12.74-5.7ZM51.79,33.22l67,16.08c3.06-8.1.88-12.36-6.73-15.45a144.59,144.59,0,0,1-20.39-9.76c-6.93-4.18-13.27-9.37-19.75-14.27C66.53,5.75,59.19,7.5,57.23,13.74S53.65,26.5,51.79,33.22Zm50.85,45.19c-6.64,0-13.28,0-19.92,0-3.5,0-5,2.08-4,5.39.61,2,1.44,3.9,2,5.89.71,2.61,2.39,3.56,5,3.53,5.22,0,10.46,0,15.69,0,7,0,13.94,0,20.92-.06,3.22,0,4.34-1.2,4.4-4.38,0-1.91,0-3.82,0-5.72,0-3.46-1.18-4.63-4.64-4.64C115.59,78.39,109.12,78.41,102.64,78.41ZM91.35,123.13c-6.49,0-13,0-19.46,0-4,0-5.37,2-4.17,5.84.64,2.06,1.37,4.09,2.06,6.14a3.76,3.76,0,0,0,4,2.78c1.92,0,3.83,0,5.74,0q15.73,0,31.45,0c3.42,0,4.61-1.28,4.67-4.7,0-1.66,0-3.32,0-5,0-3.88-1.15-5.06-5-5.08C104.16,123.11,97.76,123.13,91.35,123.13Zm17.27,85.77c2.54,5.16,6.08,7.47,11.81,7.41,23.51-.25,47-.11,70.53-.12.88,0,1.75-.08,2.68-.12V208.9ZM125,182.1c.82-.54,2.3-1,3-2,4.77-7.29,9.4-14.68,14-22.07a3.35,3.35,0,0,0-.91-4.85,66.28,66.28,0,0,0-6.7-4.3,3.36,3.36,0,0,0-4.81,1.18q-7.8,12.15-15.45,24.41a3.43,3.43,0,0,0,1.86,5.29C118.7,180.63,121.55,181.22,125,182.1Zm-50.5,26.78H7.73V216H74.46ZM168,186.63c.88-.58,2.3-1.08,3-2.08a88.41,88.41,0,0,0,5.08-8c1.39-2.37.85-4.33-1.5-5.69-2-1.16-4.08-2.25-6.17-3.25a3.53,3.53,0,0,0-4.84,1.21c-2.25,3.39-4.46,6.82-6.51,10.33a3.3,3.3,0,0,0,1.74,4.93C161.68,185.07,164.61,185.7,168,186.63Z"/><path class="cls-1" d="M56,149.19a11.2,11.2,0,0,1-22.39-.07,11.2,11.2,0,1,1,22.39.07Zm-11.22-3.74a3.73,3.73,0,0,0-3.61,3.66,3.64,3.64,0,1,0,7.27-.05A3.71,3.71,0,0,0,44.75,145.45Z"/></g></g></svg>