<svg xmlns="http://www.w3.org/2000/svg" viewBox="0 0 264.06 188.74"><defs><style>.cls-1{fill:#f6f6f6;}</style></defs><g id="Calque_2" data-name="Calque 2"><g id="Calque_1-2" data-name="Calque 1"><path class="cls-1" d="M131.5,188.7a229.94,229.94,0,0,1-33-1.74c-8.54-1.07-17-2.74-25.47-4.49a153.86,153.86,0,0,1-38-13,194.22,194.22,0,0,1-19-10.93c-6.85-4.46-8.86-12.62-5.77-20.22a13.67,13.67,0,0,0,.83-4.72c.09-3.31.32-6.54,2-9.5,2.51-4.43,7.38-6.26,12.53-5,3.53.83,6.26,3,9.3,4.72,2,1.08,2,1.11,2.89-1A35.9,35.9,0,0,0,41,110.41,13.63,13.63,0,0,1,44.83,102c1.53-1.74,3.1-3.45,4.77-5,4.46-4.25,6.6-9.79,8.47-15.41,1.32-3.94,2.16-8,3.15-12.09a10,10,0,0,0-1.17-8A33.2,33.2,0,0,0,51.46,52a6.67,6.67,0,0,0-4.75-1.24A34.15,34.15,0,0,1,39,50.5a18.92,18.92,0,0,0-12.72,2.16c-3.76,2.17-7.66,4.09-11.49,6.13C11.66,60.43,5.43,60,3.61,57.45,1,53.71-1.24,49.65.81,44.7a15.57,15.57,0,0,1,4.52-6.15c4.71-4,9.27-8.11,13.66-12.4,1.35-1.32,2.08-3.32,2.91-5.09,1.32-2.83,3.75-4.62,6-6.56S32.18,11,34.39,9.33a4.21,4.21,0,0,0,1.8-3.25,13.15,13.15,0,0,1,1-4.07C38,0,39.81-.61,41.58.7a46.13,46.13,0,0,1,5.45,5A3.19,3.19,0,0,0,49.63,7,11.08,11.08,0,0,1,56.7,9.3c6,4.27,11.84,9,18.29,12.5,7.12,3.89,13.16,9,19.47,14A102.6,102.6,0,0,0,105,42.46a2.84,2.84,0,0,0,2.51,0c2.68-1.73,5.21-1.15,7.91-.08,8.08,3.19,16.35,4.16,24.85,1.8a50.86,50.86,0,0,1,6.37-1.63,17.71,17.71,0,0,1,4.31.4,15.54,15.54,0,0,0,3.55.41c5-.61,9.92-1.52,14.9-2.06A36.73,36.73,0,0,1,185,42.68a3.39,3.39,0,0,0,2.39-.3,25.21,25.21,0,0,1,15.68-3c7.55,1,16.1,8,18.44,15.25s1.33,14.21-1.13,21.06c-1.36,3.8-3.35,7.37-5,11.07a2.51,2.51,0,0,0-.19,1.84c3,5.76,6,11.47,9.05,17.19a4.72,4.72,0,0,0,.6.81c1.33,1.74,2.68,2.62,5.24,2.07,7.36-1.59,13.53.92,18.6,6.38a2.56,2.56,0,0,0,1.85.82c10.23-1.22,14.47,8.29,13.4,15.8-1,7-4.45,12.28-10.16,16.65a190.85,190.85,0,0,1-34.81,21.39,194.81,194.81,0,0,1-30.7,11.41,178.9,178.9,0,0,1-30,5.78C149.33,187.81,140.4,188.13,131.5,188.7Zm-5.68-41c5-.37,9.92-.54,14.83-1.17a167.94,167.94,0,0,0,18.17-3c7.38-1.79,14.66-4,21.86-6.47a155.63,155.63,0,0,0,25.41-11.43,2.59,2.59,0,0,0,1.48-3c-.41-3-.73-5.94-.93-8.92-.34-4.92-2.37-8.47-7.11-10.54A65.93,65.93,0,0,0,176,97.64a65.87,65.87,0,0,1-9.37-1.24c-2.64-.51-5.18-1.8-7.83-2-5.78-.54-11.6-.64-17.41-.92-1.07,0-1.84.19-2,1.46a2.49,2.49,0,0,1-2.82,2.26c-3.45,0-6.89.22-10.33.35-2.75.11-3,0-4.06-2.55a2,2,0,0,0-2.44-1.48A65.64,65.64,0,0,0,101,98c-7.84,3-15.12,6.92-21.38,12.7C74.89,115,69,117.41,63.21,120c-7.44,3.41-6.93,2.21-7.42,10.94a2.33,2.33,0,0,0,1.74,2.65,214.77,214.77,0,0,0,34,10.07A176.73,176.73,0,0,0,125.82,147.71Zm-81.2-36.6c.52-.43.78-.61,1-.83l6.72-6.41c1.51-1.43,3.12-2.78,4.54-4.3,3.59-3.89,5.38-8.68,6.6-13.72.28-1.16.85-1.9,2.1-1.64s1.47,1.35,1.17,2.41c-.7,2.37-1.37,4.77-2.28,7.06-2.34,5.91-6.69,10.17-11.54,14.1-6.35,5.16-11.21,11.63-13.19,19.6-1.2,4.8-1,10-1.36,15a1.8,1.8,0,0,0,.68,1.27A22.34,22.34,0,0,0,49.38,148c1.25.18,1.79-.4,1.92-1.54.28-2.35.66-4.7.82-7.06.28-4.27.41-8.56.64-12.83.19-3.6,1.58-6.4,5.18-7.78,1.57-.61,3.07-1.4,4.6-2.12,5.38-2.5,10.88-4.84,15.29-8.91,7.3-6.74,16-10.82,25.22-14.07a60.45,60.45,0,0,1,15.81-3.47c1.25-.09,1.62-.72,1.07-1.81s-1.08-1.84-1.62-2.77c-1.87-3.24-3.57-6.5-3.36-10.45.17-3.49.07-7,.11-10.5a3.3,3.3,0,0,0-1.61-2.74c-1.62-1.33-3.5-2.73-4.37-4.54a59.47,59.47,0,0,1-3.27-9.7,2.75,2.75,0,0,0-1.55-2c-2.07-1-4.09-2.16-6.13-3.23-.53-.28-1.08-.5-1.88-.87,0,.72.07,1.14.12,1.56a7,7,0,0,1,.2,2.5c-.23.69-1.07,1.19-1.64,1.78-.53-.54-1.09-1.06-1.57-1.64-.15-.18,0-.55-.09-.83-.53-3-.85-6.25-3.19-8.37-3.29-3-7-5.58-10.46-8.33a5.8,5.8,0,0,0-1.21-.48,9.87,9.87,0,0,0,3.64,8.84c1.67,1.42,3.47,2.71,5.13,4.15a10.65,10.65,0,0,1,3.71,5.91c.26,1.2.09,2.25-1.15,2.62s-1.61-.74-2.13-1.65a22.89,22.89,0,0,0-3-4.38,38.46,38.46,0,0,0-4.16-3.45,14.52,14.52,0,0,1-5.57-11.65c0-2.67-.9-3.59-3.8-4.2a14.39,14.39,0,0,0,1.11,8.06c.44,1.09.73,2.34-.71,2.88s-2-.64-2.44-1.7a21.18,21.18,0,0,1-1.43-10,3.73,3.73,0,0,0-3.82-4c-.06.19-.2.42-.16.61.49,2.3.94,4.62,1.57,6.88.29,1,.28,1.85-.66,2.32a1.62,1.62,0,0,1-2.37-.92c-.21-.46-.44-.91-.61-1.39a23.67,23.67,0,0,1-1.31-9.15,2.93,2.93,0,0,0-.86-2.14,65.19,65.19,0,0,0-5.77-4.14,8.89,8.89,0,0,0-2.83-1c-1.32-.3-2.1.27-2,1.71.1,1,.26,2,.44,3s.15,2.18-1.11,2.46-1.92-.75-2.17-1.85a10.22,10.22,0,0,1-.47-3.34c.38-3-1.11-5-3.09-6.75-.71-.64-1.49-1.2-2.6-2.08a28.09,28.09,0,0,0-.29,3.88,3.89,3.89,0,0,1-1.85,3.7c-2.54,1.87-5,3.89-7.44,5.87a23.38,23.38,0,0,0-6.34,7.38,23.62,23.62,0,0,1-4.1,5.49c-3.38,3.4-7,6.59-10.49,9.84C8.49,40.4,8,41,8.47,42.34a9.17,9.17,0,0,1,.09,4c-.14,1.21-.84,2.21-2.28,1.87s-1.17-1.51-1-2.6a12.55,12.55,0,0,0,0-1.84c-2.91,3.68-2.5,6.69.36,9.79,1.63-.94,3.28-1.91,4.95-2.84,2.81-1.56,5.64-3.07,8.44-4.65,1-.56,1.86-.6,2.48.43s.13,1.92-.87,2.5l-1,.59c-3.15,1.76-6.31,3.5-9.45,5.29A6.85,6.85,0,0,0,9,56l.28.64a17.16,17.16,0,0,0,3.78-.81,78.8,78.8,0,0,0,7.31-3.9C27,48,33.8,45.59,41.62,47.41c1.55.36,3.26-.08,4.89,0a11.55,11.55,0,0,1,4.23.64c4.78,2.25,8.13,6.15,11.25,10.29a12.62,12.62,0,0,1,2.44,11.16c-1.2,4.8-2.24,9.66-3.75,14.36-2,6.09-4.67,11.84-9.49,16.36a49.18,49.18,0,0,0-4.95,5.55A6.35,6.35,0,0,0,44.62,111.11Zm81.3,74.19c3.57-.15,8.76-.46,14-.55A191.72,191.72,0,0,0,174.5,181a187.66,187.66,0,0,0,27.77-8A171.76,171.76,0,0,0,240.07,154c5.07-3.45,9.84-7.36,14.68-11.14a7.86,7.86,0,0,0,3-5c.7-4.05-2.17-6.93-6-5.62a29.9,29.9,0,0,0-7.33,3.76c-10.91,7.57-21.93,14.87-34.76,19-9,2.85-17.77,6.19-26.75,9-6.34,2-12.83,3.46-19.27,5.1a115.75,115.75,0,0,1-23.35,3.81,169.16,169.16,0,0,1-21.48-.07c-9.6-.8-19.16-2.23-28.68-3.72a156,156,0,0,1-16.68-3.67c-7.77-2.09-15.59-4.12-23.12-6.91a101,101,0,0,1-24-12.45,14.22,14.22,0,0,0-3.46-1.74c-3-1.1-5.42-.34-7,2.06-1.82,2.83-1.64,6.05.65,8.2a28.45,28.45,0,0,0,4.2,3.1c15,9.81,31.5,16.33,48.84,20.63,7.21,1.8,14.58,3,21.91,4.27C102.39,184.44,113.33,185.05,125.92,185.3Zm13.94-97.18c0,1.51.76,1.91,2,1.93,3.62.07,7.23.14,10.84.31A38.58,38.58,0,0,1,164,92.21a29.49,29.49,0,0,0,6.06,1.49c5.81.77,11.68,1.12,17.45,2.1a49.29,49.29,0,0,1,17.9,6.84c7,4.39,12.06,10.38,14.11,18.69a86.47,86.47,0,0,0,3.71,10.32c.2.52,1.06,1.25,1.45,1.16a12.76,12.76,0,0,0,7.83-4.64,2.63,2.63,0,0,0,.39-2.16,33.7,33.7,0,0,0-3.31-7c-2.69-3.8-4.63-8.16-8.3-11.25a6,6,0,0,1-1.15-1.85c-3.54-6.86-7-13.74-10.63-20.58-3.65-7-7.42-13.93-10.05-21.38a30.45,30.45,0,0,0-7.31-12c-3.25-3.17-6.67-6.28-11.37-6.89a55.49,55.49,0,0,0-11.3-.37c-4.87.38-9.69,1.42-14.55,2a2.7,2.7,0,0,0-2.67,2.65A18.91,18.91,0,0,1,146.16,61a4.07,4.07,0,0,0-1.2,2.57c-.13,3.49-.21,7,0,10.5a16.33,16.33,0,0,1-3.65,11.13A17.39,17.39,0,0,0,139.86,88.12Zm120.78,44.16c.06-1.41.22-2.55.15-3.67-.36-6.23-4.49-10.09-10-9.3a14.61,14.61,0,0,0-3.69,1.14c-4.63,2-8,5.61-11.33,9.22-2.06,2.26-4.17,4.31-7.06,5.33-2.44.86-5.07,1.24-7.41,2.29q-16.76,7.52-34.11,13.46c-14.76,5-29.7,9.24-45.29,10.79a145.77,145.77,0,0,1-32.28-.67c-6.33-.78-12.64-1.71-18.9-2.89-6.81-1.29-13.58-2.82-20.31-4.46-5-1.22-10-2.78-15-4.13a1.5,1.5,0,0,0-1.33.49c-.57,1.65-1.9,1.65-3.2,1.56a24.69,24.69,0,0,1-14.56-6.1c-.78-.66-1-2-1.46-3-.3-.61-.5-1.5-1-1.75q-5.3-2.64-10.71-5a6.78,6.78,0,0,0-7.75,1.12c-2.51,2.33-3.06,5.55-3.09,8.87a5.82,5.82,0,0,0,1.37-1.44,7.75,7.75,0,0,1,7.22-3.59c3,.2,5.45,1.62,7.93,3.11,3.86,2.33,7.71,4.69,11.69,6.79a102.55,102.55,0,0,0,22.58,9c8,2,16,4,24,5.64,7.51,1.53,15.08,2.89,22.69,3.77,11.8,1.37,23.68,2.06,35.48.17,8.56-1.37,17.11-3,25.52-5.06,8.08-2,16-4.56,24-7.21,7.69-2.58,15.29-5.44,22.83-8.42,8.63-3.42,16-9.08,23.62-14.14a56.46,56.46,0,0,1,8.94-4.71c4-1.73,6.5-1,9.42,2.26A5.9,5.9,0,0,0,260.64,132.28ZM128.29,159c4.5-.29,9-.44,13.5-.92a108.73,108.73,0,0,0,13.36-2c8.49-2,17-4.14,25.32-6.67,7.32-2.23,14.5-4.95,21.65-7.71,5.72-2.2,11.3-4.8,17-7.17,1-.43,1.28-1,.85-2a9.67,9.67,0,0,1-.44-1.28c-.4-1.45-1.1-2-2.72-1.47-2,.6-4.36,1.21-6-.27-1.85-1.65-3.2-1.15-4.82,0a10.47,10.47,0,0,1-1.18.66A192.21,192.21,0,0,1,163.12,146a160.68,160.68,0,0,1-25.81,4.44c-16.85,1.38-33.49-.4-49.92-4.18a207.18,207.18,0,0,1-29.9-9.06c-1.34-.53-1.85-.08-1.92,1.32a54.25,54.25,0,0,1-.52,5.55c-.19,1.2.13,1.76,1.29,2.08,5.22,1.45,10.36,3.21,15.63,4.38,9.34,2.09,18.75,4,28.17,5.69A196.13,196.13,0,0,0,128.29,159Zm13.14-95.26-1.65.36c-.49.11-1,.24-1.48.33a48.75,48.75,0,0,1-18.18-.14c-1.5-.28-1.73.22-1.72,1.52,0,3.39-.1,6.77-.06,10.16a9.37,9.37,0,0,0,.57,3.29c1.82,4.52,5,8.41,5.9,13.38.19,1.13,1.25,1.48,2.39,1.43,2.09-.1,4.18-.14,6.27-.22,2.85-.11,3.24-.52,3.32-3.39,0-.4,0-.79,0-1.19a10.32,10.32,0,0,1,2.39-7,10,10,0,0,0,2.41-7c-.13-3.16,0-6.33-.05-9.49C141.56,65.14,141.49,64.55,141.43,63.76ZM213,84c.43-.63.75-1,1-1.44a48.73,48.73,0,0,0,5.47-17c1.77-14.63-11.4-25.33-23.7-22.74a56.22,56.22,0,0,0-6,2c1.09,1.81,2.21,1.58,3.47,1.07a14.07,14.07,0,0,1,16.22,4.2c.79,1,1.26,2,.15,3s-1.81.06-2.61-.59a26.32,26.32,0,0,0-4.27-3.25,7.84,7.84,0,0,0-8,.14,5.32,5.32,0,0,0,1.89.91c3.72,1,7,2.56,9,6,2.23,3.9,1.9,8,.71,12.13a4.75,4.75,0,0,0,.16,3c1.7,3.68,3.59,7.27,5.43,10.89A13.26,13.26,0,0,0,213,84ZM116,46.49A8.9,8.9,0,0,0,123.77,55c1,.14,1.9.22,2.86.33,1.15.12,2.21.41,2.05,1.88s-1.32,1.51-2.43,1.45c-7.65-.41-13.37-4.75-13.84-12.68-.07-1.17-.75-1.45-1.72-1.25-1.23.25-2,1-1.63,2.29.52,2.19,1.06,4.38,1.74,6.52,1.12,3.56,3.68,5.68,7.18,6.79,5.61,1.79,11.35,1.82,17.1,1.28A20.74,20.74,0,0,0,141,60.12c5.26-2.18,7.39-6.63,8.15-11.95.38-2.65-.23-3.19-2.82-2.39-1.72.54-3.4,1.18-5.14,1.68-7.19,2-14.39,1.69-21.57-.07ZM35.2,137.35c.21-3.06.44-5.73.54-8.41a1.93,1.93,0,0,0-.91-1.28c-2.64-1.61-5.25-3.3-8-4.67-4.57-2.27-9.2-.76-11.19,3.51a9.06,9.06,0,0,0-.83,6.31,11.8,11.8,0,0,1,10.3-.17c2,.91,3.95,1.9,5.94,2.83C32.28,136.06,33.55,136.6,35.2,137.35ZM210.46,111l-.49.27a3,3,0,0,0-.12.77c.47,4.32.89,8.64,1.51,12.94.1.71,1,1.82,1.6,1.84a16.91,16.91,0,0,0,4.23-.73c.09,0,.14-.63.05-.9-1.06-3-2-6.13-3.29-9A34,34,0,0,0,210.46,111Zm34.8,6.09c-1-1.25-2.12-2-3.75-1.62a57.46,57.46,0,0,0-7.22,2.57,1.23,1.23,0,0,0-.53,1.06c.67,1.74,1.46,3.44,2.24,5.23Zm-7.57-4.56-.12-.66c-2.14,0-4.28,0-6.42,0-.72,0-1.9,0-1.44,1.2.38,1,.89,2.63,2.3,2.18A41.7,41.7,0,0,0,237.69,112.48ZM199.45,55.24l4,9.06A7.69,7.69,0,0,0,199.45,55.24Z"/><path class="cls-1" d="M56.75,34.93c0,3.58-1.41,5.53-4.49,6.78-.2.08-.36.31-.56.35-.53.11-1.06.16-1.59.24a6.34,6.34,0,0,1,0-2.46c.28-.64,1.19-1,1.79-1.49,1.69-1.43,1.93-2.74,1.12-4.8-1.18-3-2.28-6-3.38-9a2.76,2.76,0,0,1-.26-1.63c.23-.65.74-1.55,1.25-1.63a2.15,2.15,0,0,1,1.82,1c1.46,3.65,2.77,7.36,4.08,11.07A5.84,5.84,0,0,1,56.75,34.93Z"/><path class="cls-1" d="M33.44,24.15c2.28,0,2.9,1.16,2,3.12-.68,1.52-4.7,3.68-6.3,3.28a1.53,1.53,0,0,1-.85-1,4.22,4.22,0,0,1,3.05-4.94A18.88,18.88,0,0,1,33.44,24.15Z"/><path class="cls-1" d="M173.27,48.29c8.92.27,15.52,3.15,19.18,11,.55,1.17.59,2.12-.61,2.72s-1.9-.21-2.35-1.2c-3.5-7.71-11.63-10-18.87-8.84a18.4,18.4,0,0,1-3.32.55,2.63,2.63,0,0,1-2-1,1.43,1.43,0,0,1,1-2.1,8.7,8.7,0,0,1,1.28-.42C169.73,48.75,171.86,48.48,173.27,48.29Z"/></g></g></svg>