<svg xmlns="http://www.w3.org/2000/svg" viewBox="0 0 265.55 137.92"><defs><style>.cls-1{fill:#f6f6f6;}</style></defs><g id="Calque_2" data-name="Calque 2"><g id="Calque_1-2" data-name="Calque 1"><path class="cls-1" d="M46.48,40Q46,26.85,45.63,13.7c-.11-3.22.15-3.69,3.32-4.25,9.46-1.65,18.91-3.31,28.4-4.77C86,3.35,94.61,2.21,103.25,1.14A99.24,99.24,0,0,1,117.41,0c12,.3,22.75,4,31.75,12.13A5.09,5.09,0,0,0,153,13.56c10.08-.26,20.2-1,30.26-.45,18.83.94,34.33,8.79,45.65,24.14a2.49,2.49,0,0,0,3,1.06c9-2.35,18-4.62,27-7.15,2.27-.64,6.21,2.55,6.49,5.33a15.63,15.63,0,0,1,0,4.1,4.23,4.23,0,0,1-3,3.73q-18.57,6.34-37,13a5.32,5.32,0,0,0-2.64,2.31c-4.76,8.87-9.4,17.8-14.08,26.71-.19.36-.39.72-.59,1.08-1.36,2.47-2.36,2.73-4.73,1.11-7-4.8-14-9.6-21-14.46a3.67,3.67,0,0,0-3.76-.56q-31.31,11-62.68,21.83c-5.82,2-11.57,4.26-17.47,6.06a37.23,37.23,0,0,1-8.34,1.1q-14.49,1-29,1.79c-2,.1-2.25,1.16-2.52,2.76-1.95,11.24-6.63,20.85-16.76,27-11.26,6.9-31.72,5.67-39.1-12.9C-3,106.8.47,92.45,12.25,82.1c7.71-6.78,16.58-9.36,26.66-8.2a27.18,27.18,0,0,1,4.61,1c1.23.36,1.65,0,2-1.21a30.42,30.42,0,0,0,1.54-10.89c-.37-7.6-.5-15.21-.72-22.82ZM63.89,99.36l.11.5a8.27,8.27,0,0,0,1.11.07c7.75-.51,15.5-.9,23.23-1.57a49.62,49.62,0,0,0,11.3-1.88c14.61-4.88,29.12-10.11,43.67-15.19Q163,74.42,182.7,67.59l36.48-12.71c13.46-4.69,26.93-9.34,40.36-14.09a3.36,3.36,0,0,0,1.89-2.07c.48-2.32-1.09-3.36-3.86-2.66q-13.65,3.48-27.28,7a2.78,2.78,0,0,1-3.47-1.35,47.72,47.72,0,0,0-3.69-5.19C212.52,24,198.65,18.06,182.55,17.15c-18-1-36,.73-53.86,2.66-10,1.09-20,2.56-30,3.76-2,.24-2.74.9-2.65,3Q97.06,53,98,79.37a73.12,73.12,0,0,1,.1,7.4,3.24,3.24,0,0,1-1.55,2.46c-8.35,2.65-16.77,5.11-25.16,7.66C68.84,97.65,66.37,98.53,63.89,99.36Zm28.94-45.3h-.36c0-3,.07-5.89,0-8.84-.19-6.43-.47-12.87-.71-19.31,0-1,0-2.06-1.43-2.33-2.49-.46-5-1.06-7.43-1.6-9.92-2.13-19.84-4.24-29.74-6.4C50.32,15,50,15.17,50.06,18q.57,21.89,1.11,43.78c.15,5.89-.64,4.66,4.51,6.76,12,4.89,24,9.67,36,14.57,1.79.73,2.17.23,2.11-1.49C93.44,72.41,93.14,63.24,92.83,54.06ZM43.24,100.32c3.11-2.7,6-5.18,8.86-7.76a1.69,1.69,0,0,0,0-1.66c-4.9-5.23-12.3-9-20.43-6.24C18,89.33,7.8,106,14.09,121.85c3.86,9.75,15,14.18,24.12,9.38C48.1,126,52.46,117.06,54.44,106.6c.25-1.31-.38-1.72-1.62-1.64q-3.07.21-6.17.26c-1.67,0-2.43.75-2.59,2.46a12.65,12.65,0,0,1-5,9.12c-3.64,2.84-7.8,2.06-10.18-1.87-3.43-5.64-1.42-14.14,4.17-17.66,3.14-2,6.17-1.53,8.63,1.29C42.17,99.07,42.6,99.58,43.24,100.32ZM59.35,12l.13.6a1.31,1.31,0,0,0,.33.21c8.84,1.92,17.66,3.93,26.53,5.68,3.4.68,7,1.38,10.35,1,15.08-1.5,30.13-3.36,45.18-5.12a15.86,15.86,0,0,0,2.23-.57l.27-.64c-.46-.29-.92-.56-1.37-.86-7.67-5.07-16.07-8.33-25.28-8-8.75.27-17.5,1.44-26.21,2.52-7.89,1-15.73,2.36-23.58,3.62C65.06,10.88,62.21,11.47,59.35,12ZM88.79,87.15c-.41-.66-.43-.75-.48-.77Q70.18,79,52,71.58a1.65,1.65,0,0,0-1.33,0c-1.37,1-1.44,5.33-.15,6.46a33.15,33.15,0,0,1,8.07,11c.92,1.91.52,3.18-1,4.42S54.76,96,53.37,97.2l.41.71ZM185.9,71a19,19,0,0,0,1.88,1.77c5,3.47,10.09,6.86,15.08,10.38,1.53,1.09,2.34.84,3.17-.77,3.45-6.7,7-13.35,10.45-20a10.57,10.57,0,0,0,.56-1.58l-.41-.46Zm-174,55.73a16.41,16.41,0,0,1-.73-1.6c-.93-2.7-2.28-5.35-2.68-8.14C6.72,105,11,95.06,19.66,87.07c7.8-7.2,16.88-9.32,27-5.2a3.09,3.09,0,0,0,1.07,0C37.46,74.68,20.6,76.32,9.53,91.15.45,103.33,4,119.56,11.85,126.68ZM31.38,109a8.85,8.85,0,0,0,0,1c.2,1.83.63,3.6,2.71,4.13s3.41-.69,4.32-2.35c1.5-2.72,2.25-5.66,1.25-8.66a4.61,4.61,0,0,0-2.58-2.74c-.94-.25-2.52.57-3.3,1.4A10.11,10.11,0,0,0,31.38,109Z"/><path class="cls-1" d="M184.7,25.89c-5.82-.08-11.67-.56-17.45-.15-13,.91-26,2.19-38.94,3.46-6.54.65-13.06,1.61-19.59,2.44-1.4.18-2.74.08-3.08-1.58-.38-1.83.88-2.38,2.4-2.58,7.68-1,15.35-2.15,23-2.92,10.92-1.1,21.85-2.15,32.8-2.76,6.68-.37,13.41.11,20.12.23a2.43,2.43,0,0,1,1.56.41c.59.64,1.43,1.57,1.32,2.22s-1.2,1.35-1.86,2Z"/><path class="cls-1" d="M192.36,25.34c3.64-.12,11.27,4.61,12.35,7.49a2.65,2.65,0,0,1-.59,2.44,2.46,2.46,0,0,1-2.44-.14c-2.49-3-5.81-4.45-9.27-5.85A3,3,0,0,1,191,27C191,26.34,192,25.7,192.36,25.34Z"/></g></g></svg>