<svg xmlns="http://www.w3.org/2000/svg" viewBox="0 0 210.25 238.83"><defs><style>.cls-1{fill:#f6f6f6;}</style></defs><g id="Calque_2" data-name="Calque 2"><g id="Calque_1-2" data-name="Calque 1"><path class="cls-1" d="M187.07,136.31a18.29,18.29,0,0,0,3.27-1.45c2.7-1.89,5.27-4,8-5.85.77-.54,2-1.14,2.71-.89,1.22.43,1.22,1.72,1,3-1.25,7.25-3.2,14.24-7,20.63a30.36,30.36,0,0,1-13.79,12.77,3.75,3.75,0,0,0-1.71,1.37c-2.84,4.9-5.59,9.85-8.5,15a4.24,4.24,0,0,0,1.1.7c15.65,5.8,25.94,17.07,32.45,32.1a70,70,0,0,1,5.56,21.29c.32,3.41,0,3.75-3.5,3.75H86.17l-49.66,0c-.87,0-1.75,0-2.62,0-1.37,0-2.23-.84-2.07-2.13.68-5.56.78-11.22,3.2-16.47,3.08-6.7,7.87-12,13.49-16.55A100.44,100.44,0,0,1,77,187.79c2-.77,4.08-1.54,6.15-2.24,1.17-.39,1.23-.93.39-1.7a78.39,78.39,0,0,1-12.77-15.14,2.22,2.22,0,0,0-2-.53c-1.68.41-3.3,1.1-4.95,1.64-6.58,2.12-13-1.57-15.73-7.79a36.6,36.6,0,0,1-2.92-12.89c-.08-1.61-.42-1.88-2.12-1.58-3.22.58-6.61,1.25-9.78.81-6.33-.89-8.78-5.06-9.87-11.32-1.15-6.62,1.68-12.1,4.93-17.42,1.69-2.77,3.63-5.39,5.56-8a1.92,1.92,0,0,0,0-2.79Q19.68,91.45,5.47,74a38.23,38.23,0,0,0-3.25-3.37C-.13,68.39-.54,66.55.64,63.43A38,38,0,0,1,8.05,52c13.2-15,28.83-27,46.2-36.84C64.78,9.26,75.76,4.32,87.64,1.87,92.68.82,97.9.64,103,0a3.47,3.47,0,0,1,3.65,2c5.38,8.63,10.63,17.36,16.35,25.78C130.11,38.2,137.6,48.35,145,58.59c.91,1.27,2.11,2.31,3.11,3.51s2,1.26,3.33.23A62.26,62.26,0,0,0,165.52,47a3.13,3.13,0,0,1,.5-.79c.94-.79,1.91-2.15,2.89-2.17,1.74,0,2.56,1.74,2.42,3.22a15.55,15.55,0,0,1-1.57,6.18C167.17,58,163.07,61.26,159,64.52c-1.05.85-2.11,1.68-3.28,2.6a10.16,10.16,0,0,0,1.17,1.06c9.05,5.62,15.2,13.76,19.91,23.11a87.24,87.24,0,0,1,8.47,27.23c.79,5.49,1,11.06,1.51,16.59A9.35,9.35,0,0,0,187.07,136.31Zm-12,30.89c-.82-.3-1-.44-1.16-.42a44.91,44.91,0,0,1-16.53-1.06c-.32-.07-1.14.63-1.19,1-.17,1.48,0,3-.16,4.49-.4,4.86-3.85,7.29-8.57,6.21a3.21,3.21,0,0,0-2.38.42,40.87,40.87,0,0,1-10.63,5.81c-7.44,2.92-15,3.83-22.69,1.37-10.62-3.39-17.81-10.93-23.71-20-.6-.92-.93-1.94,0-2.91s1.92-.57,2.88,0c1.5.89,2.95,1.88,4.52,2.62,8.88,4.21,17.76.81,21.88-8.17a39,39,0,0,1,4.29-7.22c4.23-5.53,9.69-8.92,16.9-8.89,1.31,0,2.45.38,2.49,1.91s-1.14,1.87-2.45,1.85a15.75,15.75,0,0,0-8.2,2.24c-5,2.9-8,7.49-10,12.72-2.5,6.59-12.39,12.86-20.83,10.77a29.17,29.17,0,0,0-3-.43c.12.49.1.71.21.83,5.65,6.35,12.37,11,21,12,8.82,1,16.78-1.84,23.94-6.84,4.72-3.3,7.8-8,9.87-13.38.56-1.44,1.45-2.1,3-1.58a61.93,61.93,0,0,0,6.62,2A30.84,30.84,0,0,0,180,161c6.5-2.77,10.73-7.86,13.53-14.14,1.58-3.54,2.65-7.31,4-11l-.62-.42c-1.26.74-2.5,1.49-3.76,2.22-5.62,3.25-11.51,4.74-17.91,2.64-3.19-1-6.3-2.42-9.55-3.2-4.37-1.06-8.69-1.44-12.43,2.23-1.33,1.31-3.46,1.89-5.33,2.53-1.34.46-3.08,1-3.72-1.08-.44-1.45.42-2.11,3.07-2.6,4.69-.87,6.12-3.75,3.95-8a14.72,14.72,0,0,0-1.74-2.88q-3.31-3.93-6.79-7.72c-.89-1-1.25-2-.39-3s2.07-.75,3,.13c4.37,4.3,8.76,8.61,10.43,14.82a1.58,1.58,0,0,0,2,1.37c5-.59,9.78.48,14.5,2.1,2.8,1,5.69,1.73,8.57,2.43,1.57.38,2.32-.56,2.31-2.11,0-2.19.07-4.39-.13-6.56a112.24,112.24,0,0,0-4.94-24.94A69,69,0,0,0,165,80.17c-2.73-3.19-5.7-3.36-8.69-.43a30.41,30.41,0,0,0-2.67,3.37c-.33.44-.49,1.15-.91,1.38-.74.38-1.86.87-2.38.57s-.82-1.52-.84-2.34c0-.59.59-1.21.95-1.79a19.39,19.39,0,0,1,7.91-7.26l-7.06-4.28c-1.3-.79-2.39-.61-3.81.09-5.46,2.69-10.95,5.4-16.63,7.6-4.09,1.59-8.54,2.21-12.74,3.55A166.08,166.08,0,0,0,81,97.74a174.54,174.54,0,0,0-19.14,13.4c-8.61,7.11-10,16.36-4.89,26.27.77,1.48,1.86,2.8,2.61,4.29a2.25,2.25,0,0,1-.11,2,3.1,3.1,0,0,1-1.94.71,2.75,2.75,0,0,1-1.43-.4c-1.92-1-3.77-.48-5.61.24a2.22,2.22,0,0,0-1.67,2.56c.34,2.72.29,5.55,1,8.16a38.22,38.22,0,0,0,3.63,8.54A6.24,6.24,0,0,0,60,166.69a29.26,29.26,0,0,0,7.09-2.12c4.43-2,4.29-2,6.93,2,12.51,19.13,29.79,30,53,30.36,7.61.13,15.09-.6,22.07-4A52.53,52.53,0,0,0,167.66,178C170.28,174.67,172.5,171,175.07,167.2ZM126.27,39.89c-.4-.71-.63-1.2-.93-1.66Q114.78,21.78,104.21,5.3a2.9,2.9,0,0,0-2.93-1.5A84.58,84.58,0,0,0,77.54,8.65,145.9,145.9,0,0,0,45.77,24.78C32.37,33.63,20,43.68,9.67,56.08a91.14,91.14,0,0,0-5.38,7.64c-1,1.53-.88,2.82.6,4.27,3,3,5.91,6.11,8.62,9.37,5.7,6.87,11.28,13.85,16.85,20.83,1,1.22,1.72,1.28,2.6,0,.22-.31.48-.58.71-.87A178,178,0,0,1,85.5,53.71,109.3,109.3,0,0,1,124.2,40.5,15.92,15.92,0,0,0,126.27,39.89ZM121,235.06h83c2.33,0,2.59-.23,2-2.49-1.33-5.19-2.36-10.51-4.27-15.48-5.83-15.19-16-26.33-31.5-32.06-1.81-.67-3.28-.8-4.64.91-.84,1.06-2.1,1.78-3,2.8a3.35,3.35,0,0,0-.95,2.24c.69,5.45,1.55,10.88,2.33,16.32.62,4.33,1.28,8.66,1.79,13,.24,2.13-.9,3-2.82,2.33-8.09-2.72-16.18-5.43-24.25-8.23a4.2,4.2,0,0,0-3.88.39q-5.28,3.21-10.63,6.29c-4.43,2.56-8.87,5.1-13.36,7.54-2.41,1.31-3.84.42-4-2.32a27.3,27.3,0,0,1,0-3c.47-7.68.92-15.35,1.45-23,.09-1.37-.14-2.25-1.58-2.73a68,68,0,0,1-17-8.6,3.73,3.73,0,0,0-2.87-.5c-5.47,1.92-11,3.76-16.25,6.11-9.1,4.06-17.61,9.14-24.67,16.34-5.95,6.06-9.59,13.17-9.95,21.79-.1,2.38-.12,2.38,2.32,2.38Zm25.43-169c-1.78-2-3.18-3.46-4.39-5-3.94-5.15-7.82-10.37-11.72-15.56-.67-.9-1.24-1.86-2.67-1.62-3,.5-6,.75-8.88,1.36a116,116,0,0,0-37.08,15,179.55,179.55,0,0,0-45.63,40.16c-2,2.48-2,2.47-.05,5,1.43,1.82,1.48,1.81,3,.12A94.57,94.57,0,0,1,64.08,86,79.11,79.11,0,0,1,86.71,78,85.48,85.48,0,0,1,105,76.69a78.43,78.43,0,0,0,30.16-5.36C138.89,69.91,142.45,68,146.46,66.08Zm-41.25,15-.13-.51c-.54,0-1.08-.12-1.62-.13a74.39,74.39,0,0,0-35,7.44,88.08,88.08,0,0,0-36.42,32.48c-3,4.7-5.58,9.56-5,15.55.67,6.92,5.58,10.72,12.24,8.7,4.77-1.44,9.37-3.47,14.22-5.3-.29-.68-.51-1.24-.76-1.79C50,131.2,49.38,124.75,52,118.25c2.26-5.55,6.35-9.61,11.07-13.17A192.21,192.21,0,0,1,100.7,83.21C102.22,82.54,103.71,81.8,105.21,81.1ZM161.49,218c-.16-1.68-.22-3-.4-4.23-.9-6.31-1.85-12.6-2.73-18.91-.32-2.28-.55-2.49-2.47-1.32-7.46,4.54-15.5,7.22-24.26,7.11-5.66-.07-11.32-.58-17-1-2.37-.18-2.44-.31-2.6,2.06q-.64,9.91-1.17,19.84a11.24,11.24,0,0,0,.33,2.12c.68-.23,1.36-.45,2-.69a3.4,3.4,0,0,0,.48-.29c6.94-4.06,13.87-8.15,20.84-12.15a4.28,4.28,0,0,1,2.92-.72c6,2,12,4.17,18,6.26C157.34,216.73,159.22,217.28,161.49,218Z"/><path class="cls-1" d="M93.85,111a10.37,10.37,0,0,1-.06,2.79c-.21.7-1,1.73-1.47,1.73a2.57,2.57,0,0,1-2-1.32c-1.92-8.83,3.35-18.35,9.94-20.61a17.84,17.84,0,0,1,10.7-.33c.66.18,1.62,1.45,1.47,1.89a3.3,3.3,0,0,1-2,1.65,6.44,6.44,0,0,1-2.39-.21c-6.77-.67-10.36,1.6-13.37,8.34a9.38,9.38,0,0,0-.71,2.51c-.17,1.17-.16,2.37-.23,3.55Z"/><path class="cls-1" d="M69.1,155.31c0,4.24-2.24,6.93-6.81,8.13-3.35.88-6.29-.49-8.24-3.94a24.88,24.88,0,0,1-3-11.1c-.07-1.27.32-2.38,1.71-2.44s1.84,1.07,2.11,2.37a59.16,59.16,0,0,0,2.27,9c.93,2.47,2.59,3,4.82,2.23,2.89-.93,3.77-2.14,3.42-4.91-.19-1.5-.73-3.16,1.46-3.56,1.29-.23,2.2,1.24,2.29,3.48C69.11,154.81,69.1,155.06,69.1,155.31Z"/><path class="cls-1" d="M169,104.49a6,6,0,0,1-5.58,5.74,6.44,6.44,0,0,1-5.74-5.7,6.11,6.11,0,0,1,5.67-5.66A5.88,5.88,0,0,1,169,104.49Z"/><path class="cls-1" d="M117.11,122.94a5.92,5.92,0,0,1-5.8,5.45,6,6,0,0,1-5.42-5.84,5.9,5.9,0,0,1,5.83-5.41A5.81,5.81,0,0,1,117.11,122.94Z"/><path class="cls-1" d="M56,127.43a14,14,0,0,1,1.35-2.14,28.57,28.57,0,0,1,11.85-7.21c1.14-.4,2.34-.24,2.75,1.14s-.37,2-1.6,2.5a26,26,0,0,0-10.84,6.73,2.72,2.72,0,0,1-2.15.51C56.9,128.87,56.55,128.06,56,127.43Z"/><path class="cls-1" d="M69.23,126.17c.24.19,1.09.54,1.23,1.07a2.56,2.56,0,0,1-.45,2.15,74.69,74.69,0,0,1-6.21,4.68A2,2,0,0,1,62,134a2.39,2.39,0,0,1-.79-1.88C61.45,130.29,66.85,126.23,69.23,126.17Z"/><path class="cls-1" d="M35.48,92a10.44,10.44,0,0,1-1.84-1.44C30,86,26.39,81.36,22.78,76.73c-.83-1.07-1.39-2.18,0-3.23s2.22-.11,3,.86C29.4,79,33,83.57,36.59,88.25A3.34,3.34,0,0,1,37,90.62C37,91.11,36.14,91.47,35.48,92Z"/><path class="cls-1" d="M19.47,68.1c-.33.39-.67,1.11-1.21,1.32a2,2,0,0,1-1.83-.24c-1.9-2.13-3.73-4.32-5.41-6.63a2.18,2.18,0,0,1,.31-2.1c.43-.42,1.82-.62,2.11-.3,2.06,2.3,4,4.75,5.88,7.17C19.42,67.45,19.39,67.68,19.47,68.1Z"/><path class="cls-1" d="M47.17,228.78c.66-1.67,1.15-3.08,1.75-4.43a41,41,0,0,1,15.65-18.11,3.15,3.15,0,0,1,1.69-.69c.66.06,1.62.42,1.82.9a3.35,3.35,0,0,1-.35,2.18c-.13.34-.66.54-1,.78a37,37,0,0,0-15.09,18.48c-.22.58-.35,1.32-.78,1.67a3,3,0,0,1-2.06.75C48.17,230.18,47.71,229.33,47.17,228.78Z"/><path class="cls-1" d="M74.71,203.79c-.36-.31-1.19-.69-1.24-1.15a2.81,2.81,0,0,1,.62-2.26c2.37-1.58,4.86-3,7.35-4.34a5.1,5.1,0,0,1,2.46-.74,2.44,2.44,0,0,1,1.86,1.07,2.2,2.2,0,0,1-.56,2.07c-3.09,1.81-6.29,3.45-9.46,5.13A4.93,4.93,0,0,1,74.71,203.79Z"/></g></g></svg>