<svg xmlns="http://www.w3.org/2000/svg" viewBox="0 0 228.54 170.36"><defs><style>.cls-1{fill:#f6f6f6;}</style></defs><g id="Calque_2" data-name="Calque 2"><g id="Calque_1-2" data-name="Calque 1"><path class="cls-1" d="M228.54,77.67a59,59,0,0,1-5.81,24.14c-3.7,7.67-9.85,12.16-18.39,12.55-8.76.39-15.56-3.57-20.2-11-1.08-1.71-1.88-1.88-3.66-1.17q-28.44,11.43-57,22.62c-1.88.74-2.26,2-2.58,3.63-.68,3.51-1.38,7-2.15,10.49-1.39,6.25-4.64,11.58-8.42,16.62a41.25,41.25,0,0,1-11.31,10.84A24.48,24.48,0,0,1,81.6,170,38.36,38.36,0,0,1,58.85,157.5a27.71,27.71,0,0,1-6.48-13.17c-.29-1.43-1-1.62-2.33-1.81-4.27-.64-7.88,1.52-11.78,2.46-9.36,2.27-18.35,2.1-26.41-4.07-4.82-3.69-7.7-8.73-9.69-14.31-2.62-7.31-3-14.68-.26-22.06a26.56,26.56,0,0,1,5.51-8.91,4.3,4.3,0,0,0,1-2.14c1.1-6.93,3-13.48,7.81-18.9,3.34-3.79,7.76-5.92,12.2-7.94q18.45-8.42,37-16.58c11.44-5,23-9.86,34.46-14.76a12.86,12.86,0,0,1,1.69-.56,12.27,12.27,0,0,0,8.23-7.17,30.07,30.07,0,0,1,10.47-12C127,11,133.66,11.2,140.42,15.3a29.06,29.06,0,0,1,3.84,2.6c1.24,1.09,2.16.92,3.2-.18a14.78,14.78,0,0,1,2-1.79,10.34,10.34,0,0,0,3.7-5.49A15.68,15.68,0,0,1,168,0c15,.32,26.43,7.08,34.6,19.55a82.48,82.48,0,0,1,12.26,33.09,17.42,17.42,0,0,0,.64,3.15,2.6,2.6,0,0,0,1.28,1.47c7.75,2.69,10.79,8.69,11.6,16.28C228.48,75,228.48,76.4,228.54,77.67ZM12.38,92.1l.7.1c1-3.15,2.11-6.29,3.1-9.46.43-1.37,1.11-2.4,2.64-1.93,1.74.53,1.27,2,.84,3.14a94.06,94.06,0,0,0-5.33,20.72c-.59,4.71-1.37,9.44-.31,14.24a24.76,24.76,0,0,1,.72,7.4c-.34,3.64,1.36,5.59,4.36,6.92.54.24,1.07.52,1.62.75,9.55,4,19.64,4.7,29.81,5,1.2,0,1.48-.57,1.55-1.64.85-13.86,7-25.2,16.82-34.7a31.85,31.85,0,0,1,19.41-9,37.35,37.35,0,0,1,13.52,1.29c-.21-.75-.42-1.35-.53-2a14.28,14.28,0,0,1-.18-2,53.69,53.69,0,0,0-7-24c-.7-1.21-2.14-2.49-.3-3.85,1.11-.83,2.23-.1,3.49,2.09a59.66,59.66,0,0,1,7.58,25.85c.12,1.64.08,3.1-2.21,4.12a31,31,0,0,1,14.46,12.07c1-1.8,2.08-3.08,2.43-4.53.82-3.41,1.22-6.93,2-10.36a3.19,3.19,0,0,1,1.71-2c4.23-1.61,8.55-3,12.78-4.55,2.25-.84,4.73-1.17,6.45-3.24,1.44-1.72,3.4-2.74,5.73-1.89a5.83,5.83,0,0,1,4,5.42c.13,1.79.18,3.58.22,5.37,0,1.34.53,1.61,1.81,1.14q13.11-4.73,26.25-9.35c2.77-1,5.47-2.51,8.6-1.16,1,.44,1.27-.38,1.56-1.18a112.71,112.71,0,0,1,4.15-11c3.28-6.72,7.91-12.09,15.89-13.32,1-.15,1.12-.63,1-1.5-1.59-9.63-4.06-19-8.65-27.68-4.76-9-10.94-16.65-20.61-20.77-2.17-.93-4.5-1.5-6.75-2.24l-.34.62a14.63,14.63,0,0,1,1,1.61q1.68,3.74,3.28,7.5a56.8,56.8,0,0,0,2.6,6.21c4.13,7.19,7.36,14.68,8.51,23,1,7-.27,13.52-4.43,19.37-3.73,5.25-9,6.37-14,2.36-2.84-2.26-5-5.39-7.49-8.07a17.79,17.79,0,0,0-3.6-3.35c-4.39-2.63-8.83-5.2-13.39-7.53-9.13-4.68-18.4-9.09-28.66-10.73-2.33-.36-4.71-.32-7.07-.46l0,.64,4.16.92c4.53,1,8.79,2.62,12.24,5.9,1,.93,1.76,2,.61,3.24s-2.09.31-3.1-.49a24.13,24.13,0,0,0-4.39-3c-6.67-3.18-13.79-3.46-21-2.82-.2,0-.38.16-1,.47,3,.64,5.45,1.06,7.87,1.75a21.68,21.68,0,0,1,10.31,5.8c.8.86,1.22,1.85.24,2.84s-1.85.49-2.81-.23a31.16,31.16,0,0,0-5.59-3.77c-6.09-2.75-12.59-3-19.14-2.54-.4,0-.79.4-1.18.62a22.54,22.54,0,0,0,4.55,1.56,26.82,26.82,0,0,1,11.35,5.8c.91.83,1.24,1.84.42,2.84s-1.77.75-2.67,0C96.48,49.17,89,47.82,81,47.85a15.38,15.38,0,0,0-3.66.93l0,.62a17.17,17.17,0,0,0,1.8.7A24.62,24.62,0,0,1,91.26,57c.81.85,1.24,1.88.16,2.82a1.9,1.9,0,0,1-2.85-.31c-4.87-5.12-11.13-6.64-17.87-6.85a11.32,11.32,0,0,0-6.56,2.19c.57.28.87.46,1.2.59s.91.29,1.36.43A25.33,25.33,0,0,1,78.33,62.9c.72.8,1.23,1.7.27,2.67a1.77,1.77,0,0,1-2.82-.12C71.6,61,66.29,59,60.42,58.16a9.77,9.77,0,0,0-5.77.53c-8.92,4.12-17.85,8.24-26.83,12.22A24.4,24.4,0,0,0,13.64,86.73C13.11,88.49,12.8,90.31,12.38,92.1ZM148.7,21.55a7.49,7.49,0,0,0,.47.73c7,7.61,11.87,16.51,15.51,26.09,2.08,5.46,5,10.29,9.64,13.9,3.46,2.68,6.29,2.17,8.8-1.37a23.11,23.11,0,0,0,4-16.79,50.17,50.17,0,0,0-5.75-17.54c-2.39-4.5-5-8.86-6.15-13.95a13,13,0,0,0-4.75-7.19,6.42,6.42,0,0,0-6.58-1c-4.21,1.57-6.69,4.75-7.92,9a7.76,7.76,0,0,1-1.83,3.1C152.43,18.3,150.55,19.86,148.7,21.55ZM121.75,121.68c2.35-1,4.43-1.82,6.53-2.65q31-12.3,62.11-24.61a3.81,3.81,0,0,0,1.63-1c.56-.72-1.57-7-2.39-7.41a.86.86,0,0,0-.35-.09c-1.82,0-3.72-.29-5.43.15-3,.78-5.84,2-8.76,3.08-7.57,2.7-15.14,5.42-22.72,8.09-2.14.76-3.17,0-3.38-2.23-.1-1.13-.05-2.27-.16-3.4a59.92,59.92,0,0,0-.73-6,2.39,2.39,0,0,0-1.49-1.53c-.44-.12-1.29.52-1.64,1a6.37,6.37,0,0,1-3.37,2.73c-5,1.68-9.88,3.51-14.85,5.17a2.91,2.91,0,0,0-2.24,2.65,51.57,51.57,0,0,1-1,6.18,14.54,14.54,0,0,1-2.07,5.19c-1.81,2.38-2.61,4.51-1.36,7.48C121,116.63,121.19,119.09,121.75,121.68ZM87.67,165.51a19,19,0,0,0,11.7-3.72c5.65-4.25,9.6-9.9,13-16,2.71-4.92,3.86-10.37,4.78-15.84,1.07-6.37,1.06-12.69-2-18.66-3.11-6.12-7.7-10.07-14.85-10.43-5.86-.3-10.58,2.29-14.53,6.2C72.58,120.08,69.12,136,73,153.59,74.66,161.37,80.37,165.55,87.67,165.51ZM225.16,76.83l.49-.12c-.78-3.09-1.31-6.27-2.39-9.25-1.87-5.14-8.95-8.47-14.21-6.74a16.57,16.57,0,0,0-8,5.8c-3.21,4.11-4.92,8.91-6.5,13.81a13.36,13.36,0,0,0,.45,9.06c.51,1.39.8,2.87,1.23,4.29a2.16,2.16,0,0,1-1.51,2.95c-2.32.91-4.63,1.89-7,2.74-1.22.44-1.23,1.07-.69,2,5.89,10.75,21.07,12.54,29.24,3.43A27.79,27.79,0,0,0,221.58,95,57.85,57.85,0,0,0,225.16,76.83ZM94.75,97.67v-.39a12.34,12.34,0,0,0-2.13-.42c-6.19-.11-12,1.3-17,5-11.46,8.63-18.32,20-19.88,34.4a23,23,0,0,0,.93,10.24c2.58,7.39,7.71,12.46,14.5,16,.75.4,1.56.68,2.34,1a3.27,3.27,0,0,0-.6-1.81,29.84,29.84,0,0,1-4.28-13,61.29,61.29,0,0,1,3.53-28.14A38.26,38.26,0,0,1,90.89,99.27C92.13,98.64,93.46,98.2,94.75,97.67Zm17.17-66.48a8.81,8.81,0,0,0,1.33.24c7.55-.17,14.67,1.87,21.44,4.85,8.21,3.61,16.17,7.8,24.24,11.73.52.25,1.07.44,1.61.66l.46-.45c-2.15-4.23-4.14-8.55-6.5-12.66-4.09-7.11-9.26-13.26-16.49-17.47-5.62-3.26-11-3-16.19.84a30.06,30.06,0,0,0-8.26,9.27C113,29.09,112.56,30,111.92,31.19ZM8,102.12l-.36-.22a11.83,11.83,0,0,0-.91,1.39c-3.66,7.72-3.58,15.5-.58,23.42,4.53,12,13.94,17.62,26.58,15.75a15,15,0,0,0,2-.7,13.86,13.86,0,0,0-1.6-.64c-3.25-.75-6.55-1.33-9.75-2.25A24.87,24.87,0,0,1,13,133.4a5.48,5.48,0,0,1-1.85-4.24,82.41,82.41,0,0,0-.71-9.41c-.38-3-1.12-6-1.56-9S8.29,105,8,102.12Z"/><path class="cls-1" d="M28.5,122.34a104.52,104.52,0,0,1,6.56-33.89c.41-1.09,1.08-2.18,2.5-1.69s1.29,1.7.93,3c-1.58,5.48-3.3,10.93-4.57,16.48a65.14,65.14,0,0,0-1.44,19.89c.07.83.16,1.66.17,2.5,0,1.15-.65,2-1.71,1.79a2.48,2.48,0,0,1-1.76-1.51C28.77,126.48,28.65,124,28.5,122.34Z"/><path class="cls-1" d="M15.59,117.78A92.71,92.71,0,0,1,21.87,85c.43-1.15,1.05-2.19,2.44-1.69,1.57.55,1.39,1.84.91,3.13-4.09,11-6.48,22.41-6.14,34.25,0,1.31.16,2.62.26,3.93s-.17,2.26-1.52,2.41a2,2,0,0,1-2.19-2.1C15.5,122.56,15.59,120.17,15.59,117.78Z"/><path class="cls-1" d="M22.86,119.58A90.67,90.67,0,0,1,29,87c.53-1.38,1.28-2.31,2.77-1.65s1,1.93.58,3.09c-4.46,12.23-7,24.76-5.84,37.85.1,1.21,0,2.38-1.49,2.59s-2.06-.93-2.13-2.1C22.77,124.36,22.86,122,22.86,119.58Z"/><path class="cls-1" d="M37.07,122.92c-.16-11,2.24-21.6,5.85-32,.08-.22.22-.42.3-.64.44-1.24,1.13-2.27,2.61-1.68s1.2,1.86.73,3.15c-4.47,12.15-6.83,24.64-5.9,37.65,0,.18,0,.36,0,.53.06,1.19-.21,2.26-1.58,2.35s-1.82-.91-2-2.07a3.23,3.23,0,0,1,0-.53Z"/><path class="cls-1" d="M143.06,77.5c0,.54,0,1.07,0,1.61.06,1.25-.43,2.21-1.72,2.26s-1.75-.87-1.89-2.13c-.37-3.43-.72-6.86-1.32-10.26a48,48,0,0,0-6-15.76c-.2-.36-.42-.71-.63-1.07a1.59,1.59,0,0,1,.63-2.43,2.44,2.44,0,0,1,2.27.55,62.09,62.09,0,0,1,4,7.35A58.44,58.44,0,0,1,143.06,77.5Z"/><path class="cls-1" d="M51.42,115.66q-.33,6.89-.65,13.77c-.05,1.3-.1,2.75-1.85,2.67s-1.86-1.37-1.8-2.76q.56-13.86,1.1-27.73c.05-1.32.3-2.75,2-2.59s1.79,1.49,1.72,2.86q-.35,6.89-.65,13.77Z"/><path class="cls-1" d="M118.51,87.06a4.82,4.82,0,0,1-.25,1.91,2.55,2.55,0,0,1-1.68,1.21c-.56,0-1.2-.71-1.63-1.25-.25-.32-.18-.91-.2-1.39A53.73,53.73,0,0,0,107,61.48c-.59-1-.79-2,.28-2.68a1.75,1.75,0,0,1,2.73.73c2,4.06,4.24,8,5.59,12.3,1.54,4.9,2.22,10.08,3.28,15.13Z"/><path class="cls-1" d="M130.84,82v1.61a1.77,1.77,0,0,1-1.81,2c-1.21,0-1.63-.84-1.79-2-.6-4.35-1.11-8.73-2-13a42.3,42.3,0,0,0-5.51-13.29,4,4,0,0,1-.71-2.11c0-.49.77-1.3,1.19-1.31a2.7,2.7,0,0,1,2.1.84,81.57,81.57,0,0,1,3.93,7.39A60.59,60.59,0,0,1,130.84,82Z"/><path class="cls-1" d="M178.26,96.84a5.41,5.41,0,0,1-1.58,1.31c-4.82,1.88-9.67,3.67-14.53,5.46-5.57,2-11.17,4-16.74,6.13-1.23.47-2.31.55-2.88-.73-.63-1.43.33-2.21,1.58-2.67l14.21-5.27q8.44-3.12,16.9-6.21C177,94.2,178.22,94.78,178.26,96.84Z"/><path class="cls-1" d="M128.11,115.51c-.51-.5-1.36-.94-1.43-1.48s.32-1.86.81-2a64.53,64.53,0,0,1,7.79-2.45,1.67,1.67,0,0,1,1.14,3.09C133.8,113.69,131.08,114.51,128.11,115.51Z"/><path class="cls-1" d="M113.48,127.6c-.54,12.2-4.15,21.34-12.68,28.11a14.74,14.74,0,0,1-9.72,3.5c-4.89-.12-8.14-2.86-10.26-7-6.59-12.76-.22-33.14,12.39-39.95,7.59-4.1,15.1-1.5,18.16,6.6A58.29,58.29,0,0,1,113.48,127.6Zm-3.47-.1a50.14,50.14,0,0,0-1.44-6.64c-1.87-5.58-6.84-8.17-12.12-6.22a17.33,17.33,0,0,0-5.63,3.67c-4.17,3.89-6.51,8.91-8,14.35-1.4,5.26-1.9,10.55,0,15.85,2.46,7,9.13,9.24,15.2,5a21.83,21.83,0,0,0,4.79-4.51C107.46,143,109.59,136.09,110,127.5Z"/><path class="cls-1" d="M202.51,91.8a32,32,0,0,1,5.12-17.94A16,16,0,0,1,211.28,70c2.86-2.17,5.94-1.72,7.88,1.29a16.08,16.08,0,0,1,2.46,6c1.4,8.93,0,17.37-5.44,24.79a12.17,12.17,0,0,1-4.35,3.57c-2.62,1.3-5.33-.08-7.09-3.14C203.3,100.05,202.55,96.41,202.51,91.8Zm16.11-8.86c0-.29,0-.83,0-1.37-.13-2.61-.14-5.26-1.64-7.57-1.25-1.94-2.76-2.27-4.46-.74a12.27,12.27,0,0,0-2.73,3.48,36.08,36.08,0,0,0-3.55,19.74,12,12,0,0,0,1.28,4c1.13,2.29,3.09,2.62,4.93.85a13.31,13.31,0,0,0,2.35-3.12C217.38,93.58,218.21,88.43,218.62,82.94Z"/><path class="cls-1" d="M85.67,138.13c.32-6.61,2.49-11.61,7.39-15.11s9.42-2,11.73,3.37c2.95,6.92-.71,17.4-7.33,20.93-4.64,2.47-9.34.53-10.88-4.6A40.26,40.26,0,0,1,85.67,138.13Zm16.6-6.66c0-.24,0-.47,0-.71-.11-2.44-.66-4.69-3.2-5.67s-4.4.54-5.87,2.31a16.46,16.46,0,0,0-3.82,12.8,4.86,4.86,0,0,0,3,4.35,4.79,4.79,0,0,0,5.09-1.34A11,11,0,0,0,99,141.49,17.88,17.88,0,0,0,102.27,131.47Z"/><path class="cls-1" d="M217.62,85.78a14.53,14.53,0,0,1-3,8.4c-1,1.27-2.19,2.24-3.94,1.94s-2.53-1.8-2.95-3.27a13.32,13.32,0,0,1,2.17-12.15c1-1.34,2.28-2.38,4.09-2s2.43,1.82,2.84,3.35C217.23,83.41,217.42,84.77,217.62,85.78Zm-6.15,6.49c2.32-1.5,3.36-8.09,1.55-9.76C211,84.47,210,90.21,211.47,92.27Z"/></g></g></svg>