<svg xmlns="http://www.w3.org/2000/svg" viewBox="0 0 238.97 127.93"><defs><style>.cls-1{fill:#f6f6f6;}</style></defs><g id="Calque_2" data-name="Calque 2"><g id="Calque_1-2" data-name="Calque 1"><path class="cls-1" d="M80.77,80.18c-.63.43-1.28.83-1.88,1.3-9.52,7.41-19,14.86-29.56,20.82a27.48,27.48,0,0,1-11.78,3.51c-10.7.78-21.34-.16-32-.94a3.51,3.51,0,0,1-2.31-1.2A15.18,15.18,0,0,1,0,93.81,8.42,8.42,0,0,1,3.4,87.59a4.06,4.06,0,0,1,2.52-.75c3.53.07,7.07.25,10.59.49a2.22,2.22,0,0,0,2.58-1.75c.07-.23.12-.48.2-.7,1.21-3.25,1.21-3.25,4.75-3.25a9.19,9.19,0,0,1,2.73.06,4.7,4.7,0,0,1,2.53,1.64c1.9,3.3,3.51,4.06,6.8,2.16a110.12,110.12,0,0,0,11.62-7.56c1.19-.91,1.73-3,2-4.68.44-2.53,1.56-4.26,4-5.19a10,10,0,0,0,2.08-1.13c1.81-1.24,3.49-1.54,5.24.2a2.15,2.15,0,0,0,2,.29c2.62-1.29,5.18-2.7,7.7-4.16a3.64,3.64,0,0,0,2-4c-.7-3.81-1.49-7.61-2.34-11.4a2.07,2.07,0,0,0-1.2-1.24c-4.89-1.65-7.86-5.36-10.4-9.55-.09-.16-.17-.32-.25-.49-1.1-2.49-2.23-4.54-5.7-4.44-2.66.08-4.32-2.13-5-4.66A25,25,0,0,1,47,21.9c-.11-4.68,2.48-7.59,7.14-8a3.2,3.2,0,0,0,2.91-2C59.16,7.71,62,4.21,66.48,2.36c3.15-1.29,6.31-1,9.51-.23a10.46,10.46,0,0,0,2.14.39c8.17.29,16.34.57,24.52.78a8.6,8.6,0,0,0,3.14-.65,14.54,14.54,0,0,1,10.7-.12,34.42,34.42,0,0,0,5.64,1.39c.94.18,2,0,2.91.22,2.68.63,5,0,7.53-1.09,3.07-1.34,6-.27,8.89,1.28a11,11,0,0,0,4.37,1.54c11.32.62,22.66,1.39,34,1.49,8.71.08,17.44-.51,26.11-1.26,5.24-.45,10.44-1.46,15-4.62,3.42-2.36,6.14-1.82,9.2,1.09.4.38.74.91,1.21,1.1,4.61,1.8,5.57,6,6.49,10.08,1.24,5.46,1.7,11,.14,16.46a42,42,0,0,1-2.48,5.85,2.57,2.57,0,0,1-1,1.06c-2.18,1.24-4.35,2.49-6.59,3.61a5.76,5.76,0,0,1-6.26-.38c-2.5-1.92-5.38-2.21-8.24-2.62-8.89-1.26-17.84-1.88-26.81-.81-3.14.37-6.26.93-9.36,1.56-1.86.38-2.77,2.1-2.37,4.33a21.16,21.16,0,0,1,.13,8.5c-.11.47-.12,1-.23,1.44-.58,2.48-1.63,2.73-3.77,1.39a99.52,99.52,0,0,0-12-7,49.88,49.88,0,0,0-30.59-3.12A45.32,45.32,0,0,0,99.4,62.4a47.36,47.36,0,0,0-7.08,15.73c-.68,2.46-1.41,4.91-2.17,7.34-.59,1.88-1.62,2.24-3.32,1.26-.64-.36-1.25-.77-1.86-1.16-1.93-1.23-4.38-2.07-3.54-5.42Zm91.1-41.79a5.32,5.32,0,0,1,4.42-3.56c1.74-.29,3.47-.65,5.21-.95,11.74-2,23.44-1.36,35.11.65,1.89.33,2.07.15,2-1.8-.22-7.8-.43-15.59-.54-23.39,0-1.61-.5-1.86-2-1.5a73.65,73.65,0,0,1-8.75,1.86A217.46,217.46,0,0,1,171,11c-8.41-.35-16.81-.88-25.22-1.26-.7,0-1.95.38-2.06.81-.93,3.59-1.67,7.23-2.43,10.86-.24,1.17.31,1.51,1.45,1.33,2-.31,4-.62,6-.73a4.46,4.46,0,0,1,2.73.65c4.85,3.68,9.61,7.49,14.41,11.23C167.77,35.36,169.68,36.75,171.87,38.39Zm-85.37,44,.89,0c3.8-19.06,13.81-33.12,32.36-39.78,18.14-6.52,35.32-3.68,51.39,6.75,1.12-3.73.23-6.61-2.45-8.66-5.66-4.33-11.38-8.6-16.93-13.07A7.19,7.19,0,0,0,145.87,26c-6,.8-12.07,1.52-18.1,2.3-7.31,1-14.62,1.86-21.91,2.94a5.4,5.4,0,0,0-3.26,1.88q-9.12,12.56-18,25.32a5.68,5.68,0,0,0-1.08,3.33c.36,6.14.87,12.27,1.47,18.39C85.1,80.94,86,81.63,86.5,82.36ZM91.06,7V6.77c-3.23-.15-6.46-.26-9.69-.45C80,6.25,79.15,6.52,79,8.06c-.46,3.5-1.19,7-1.48,10.47A93.23,93.23,0,0,0,78.8,41.27c.21,1.32.81,1.81,2.1,1.45,3.81-1,7.65-2,11.42-3.2a5.28,5.28,0,0,0,2.34-1.87c2-2.67,3.87-5.47,5.87-8.15a5.09,5.09,0,0,1,2.08-1.63,1.79,1.79,0,0,0,1.32-2.05q-.39-8.4-.68-16.8c0-1.47-.67-2.07-2.13-2C97.77,7,94.41,7,91.06,7ZM50.53,22.24c.18,1.14.29,2.29.55,3.41.61,2.55,1.76,3.45,4.33,3a3.56,3.56,0,0,1,4.27,2.21c.4.82.78,1.65,1.24,2.44,2.73,4.77,5.33,9.63,11.88,10,2.06.11,2.46.09,2.17-1.92C73.35,30,72.61,18.62,75.23,7.26c.11-.48-.64-1.64-1-1.65-2.1,0-4.34-.25-6.27.39-4.42,1.5-6.73,5.26-8.43,9.31-.79,1.89-1.68,2.66-3.81,2.36C52.09,17.14,50.61,18.6,50.53,22.24ZM31.75,96.4h-.17a43.1,43.1,0,0,0,.06,4.55c.05.49.8,1.31,1.21,1.3a48.44,48.44,0,0,0,7.63-.55c6-1.11,10.67-4.82,15.65-8,.92-.58.69-1.28.23-2-1.84-2.94-3.72-5.85-5.48-8.83-.77-1.31-1.42-1.49-2.71-.59a83.11,83.11,0,0,1-8.42,5.42c-2.09,1.13-4.51,1.63-6.73,2.53a2.16,2.16,0,0,0-1.21,1.41A46.74,46.74,0,0,0,31.75,96.4ZM70.76,83c3-2.36,5.7-4.53,8.47-6.6a3.06,3.06,0,0,0,1.43-3.07c-.37-3.94-.57-7.89-1-11.83a5.5,5.5,0,0,1,1.07-4.08c2.62-3.59,5.16-7.23,7.72-10.85.33-.47.61-1,1.09-1.78L74.23,47.59a65.84,65.84,0,0,1,1.63,6.91c1.08,8.26,1,9.3-5.59,13.34-1.55,1-3.25,1.64-4.81,2.58-.4.24-.84,1.15-.68,1.46C66.64,75.48,68.61,79,70.76,83Zm58.15-66.06H129c-.16-2.37-.35-4.74-.48-7.11A1.48,1.48,0,0,0,127,8.14c-2.07-.16-4.13-.36-6.19-.58-1-.11-1.39.31-1.47,1.32q-.57,7.56-1.24,15.11c-.11,1.25.27,1.83,1.63,1.64,2.72-.4,5.43-.76,8.16-1,1.13-.12,1.45-.67,1.38-1.69C129.14,20.9,129,18.89,128.91,16.89Zm98.84,2.47c-.3-4.71-.52-8.91-.89-13.09-.07-.79-.73-2.12-1.2-2.16a5.36,5.36,0,0,0-3.13.88c-.48.31-.63,1.41-.61,2.15.18,9.36.43,18.73.65,28.09a2.33,2.33,0,0,0,2.54,2.48c1.7.09,1.91-1.13,2-2.45C227.3,29.79,227.54,24.32,227.75,19.36ZM52.63,77.82a5.07,5.07,0,0,0,.44,1.46c2.1,3.49,4.26,7,6.4,10.43a1.17,1.17,0,0,0,2,.38Q64,88.16,66.58,86.3a1.46,1.46,0,0,0,.56-2.17c-2.14-3.89-4.23-7.81-6.38-11.69a9.68,9.68,0,0,0-1.4-1.68c-.66-.73-1.33-.64-2.27-.31C53.66,71.65,53.05,74.5,52.63,77.82ZM111.44,5.3c-.47,0-.83,0-1.2.06-2.95.22-3.4.67-3.29,3.65.16,4.49.37,9,.6,13.49.25,4.93.26,4.91,5.09,4.12a1.77,1.77,0,0,0,1.74-1.9c.38-5.34.83-10.67,1.27-16,.2-2.46-.23-3-2.67-3.31C112.43,5.35,111.89,5.33,111.44,5.3ZM11.6,91v-.22c-1.52,0-3,0-4.56,0A2.93,2.93,0,0,0,4.1,92.5c-1,2.23,0,7,2,8.4a2.53,2.53,0,0,0,1.17.41c3,.24,6,.42,8.92.67,1.08.09,1.58-.25,1.57-1.39,0-2.68,0-5.35,0-8,0-1.21-.47-1.62-1.62-1.58C14.64,91,13.12,91,11.6,91ZM132.26,8.92c.24,4.3.43,8.63.76,12.94,0,.67.67,1.79,1.1,1.83,1.18.11,2.69.35,3.09-1.45.95-4.27,1.93-8.54,2.82-12.83a2.15,2.15,0,0,0-.52-1.76,5.67,5.67,0,0,0-5.45-1.28C132.83,6.74,132,7.45,132.26,8.92ZM27.92,95H28A38.22,38.22,0,0,0,28,89.57,7.57,7.57,0,0,0,26.39,86a2.16,2.16,0,0,0-3.71.65,5.81,5.81,0,0,0-.7,2c-.22,4.05-.36,8.11-.5,12.17,0,1.21.85,1.42,1.74,1.3,1.56-.2,3.4,1.09,4.62-.81.17-.27.07-.72.07-1.08C27.92,98.56,27.92,96.79,27.92,95ZM231.8,8.21l-.9.31c0,.57,0,1.15,0,1.72.14,3.16.42,6.32.42,9.48,0,4.26-.23,8.52-.32,12.78a5.18,5.18,0,0,0,.4,1.44,8.12,8.12,0,0,0,1.45-.88,2.29,2.29,0,0,0,.63-1.1,59.4,59.4,0,0,0,1.64-7.26c.51-4.35-.38-8.61-1.63-12.77A28.84,28.84,0,0,0,231.8,8.21Z"/><path class="cls-1" d="M138.07,127.9c-22.23.87-41.06-17.31-42.21-38.74C94.66,66.85,112.54,46.72,135.54,46a41.13,41.13,0,0,1,42.24,39.15C178.9,108.06,160.44,127.28,138.07,127.9Zm-1.25-3.75a36.87,36.87,0,0,0,37.27-37.74c-.2-20.6-16.77-36.77-37.67-36.67a37.21,37.21,0,0,0,.4,74.41Z"/><path class="cls-1" d="M164.89,87a28.36,28.36,0,0,1-28.17,28.15c-15.21,0-28.18-13.07-28.15-28.3s13-27.87,28.21-28C151.81,58.71,165.24,71.89,164.89,87Zm-3.69,0a24.44,24.44,0,1,0-24.43,24.47A24.1,24.1,0,0,0,161.2,87Z"/><path class="cls-1" d="M146.5,87a9.69,9.69,0,1,1-9.71-9.74A10.19,10.19,0,0,1,146.5,87Zm-15.58,0c0,3.64,2.29,6,5.9,6A6,6,0,1,0,136.87,81,5.61,5.61,0,0,0,130.92,87Z"/></g></g></svg>