<svg xmlns="http://www.w3.org/2000/svg" viewBox="0 0 220.78 177.59"><defs><style>.cls-1{fill:#f6f6f6;}</style></defs><g id="Calque_2" data-name="Calque 2"><g id="Calque_1-2" data-name="Calque 1"><path class="cls-1" d="M152.15,144.73c-1.34,4.39-2.05,9-4.07,12.86-3.16,6.08-7.19,11.71-10.89,17.51a5,5,0,0,1-5.08,2.43,25,25,0,0,0-4.24,0c-1.9.12-3.44-.35-4.41-2.12a4.36,4.36,0,0,1,.73-5.34c4.18-4.3,4.86-9.86,5.66-15.32a10.47,10.47,0,0,0-.93-5.75c-2.43-5-5.28-9.79-7.85-14.73-.8-1.54-1.93-1.25-3.16-1.07-8.29,1.22-16.57,2.61-24.9,3.6-5.33.64-10.74.71-16.12,1,.58,5.07,1.56,10.23,1.64,15.41a149.49,149.49,0,0,1-1.12,16.34,12.77,12.77,0,0,1-1.25,3.77c-1.24,2.79-3,4.61-6.52,4.2a60.14,60.14,0,0,0-7.23,0c-3.38,0-4.83-2-3.68-5.21A5,5,0,0,1,60.11,170c2-1.38,1.86-3.12,1.18-5q-2.51-6.88-5.11-13.73a15.27,15.27,0,0,0-1.48-2.41c-1.84,4.48-3.28,8.83-5.37,12.84-2.53,4.84-5.53,9.45-8.54,14a4.84,4.84,0,0,1-3.28,1.7c-2.73.25-5.49,0-8.23.1-2.4.05-3.47-1.27-3.78-3.43a6.94,6.94,0,0,1,2.69-6.63,8.76,8.76,0,0,0,3.36-6.15c1.2-10.47,2.31-21,3.39-31.43.57-5.49.18-10.69-3.65-15.26-4.84-5.76-10.06-10.77-17.48-13.08a35.17,35.17,0,0,1-8.62-3.72C-.17,94.4-2.37,86.46,3.45,81.15a8.66,8.66,0,0,0,2.16-4.47c1.22-5.81,4.58-10,9.25-13.42A7.64,7.64,0,0,0,17,60c1-2.45,1.54-5.11,2.7-7.47a6,6,0,0,1,9.85-1.67c2.86,3,5.82,6.12,7.7,9.73,5.78,11.09,15.47,15.74,27.07,17.64,11.93,2,23.85,1,35.78-.21,13.63-1.36,27.27-2.84,40.94-3.67,5.65-.34,11.38,1,17.09,1.29a18.4,18.4,0,0,0,7.94-1.07A40.44,40.44,0,0,0,186.87,54.6a26.76,26.76,0,0,0,2.29-10.32c.22-6.8-.49-13.63-.32-20.44.26-10.21,5.3-17.7,14.39-22.19A19.21,19.21,0,0,1,211.4,0a9.34,9.34,0,0,1,8.81,6.56,9.58,9.58,0,0,1-3.21,11,49.74,49.74,0,0,1-6.3,4c-2.85,1.61-4.53,3.93-4.58,7.2a90.07,90.07,0,0,0,.18,12.19c2,16.54-4,30-15.47,41.38-4.41,4.36-9.48,8-14.36,11.91A3.51,3.51,0,0,0,174.88,98a88.24,88.24,0,0,1,.16,27.05,30.64,30.64,0,0,0,1,12.78c2.53,8.22,1.61,15.95-1.61,23.56-1.87,4.42-4.2,8.65-6.43,12.91a5.59,5.59,0,0,1-5.95,3.21,23.12,23.12,0,0,0-4,0c-2,.13-3.61-.28-4.62-2.19a4.43,4.43,0,0,1,.47-5.37c2.16-2.23,2.39-5,2.9-7.72.32-1.71.66-3.43,1-5.15C158.8,150.94,157.51,148.12,152.15,144.73Zm8,27.3c2.23.72,3.79-.32,4.75-2.67.44-1.07,1.14-2,1.66-3.07,4.62-9.21,7.38-18.51,3.95-29-1.31-4-1.22-8.76-.65-13a83.84,83.84,0,0,0-.19-25.79c-.66-3.76.83-6.21,3.71-8.51,5.38-4.29,10.85-8.56,15.61-13.49,8.82-9.13,13.4-20.06,12.24-33a117.83,117.83,0,0,1-.48-14.18c.17-5.5,2.57-9.86,7.72-12.47a33.09,33.09,0,0,0,5.42-3.52c1.58-1.23,2.3-3.18,1.24-4.88a6.85,6.85,0,0,0-3.85-2.93,9.19,9.19,0,0,0-5.29.75c-5.87,2.63-10.21,7.08-11.12,13.46a72.61,72.61,0,0,0-.3,17.86A36.05,36.05,0,0,1,184.18,67.8c-8.86,9.2-18.46,15.29-32.62,12.44-13-2.62-26.32.15-39.45,1.69-14,1.63-27.9,3.44-42,2.28-16.11-1.33-30-6.34-38-22-1.29-2.54-3.52-4.6-5.37-6.84-1.23-1.49-2.25-1.23-2.82.57-.74,2.37-1.54,4.74-2.05,7.16A5.23,5.23,0,0,1,19.16,67c-4.58,2.66-7.71,6.33-8.52,11.9a12,12,0,0,1-3.1,5.73c-3,3.31-2.91,6.63.89,9.1a23.07,23.07,0,0,0,5.89,2.56C26.62,100,35,108,39.87,119.64c2.5,6,5.54,11.63,10.33,16a52.51,52.51,0,0,1,16.85,31.44,32.12,32.12,0,0,1,0,4.91c4.23.37,4.45.29,5.39-4.27a62.68,62.68,0,0,0-.34-25c-1-4.87-2.55-9.62-3.95-14.39-.5-1.72-.56-3.27,1.28-4s3.15.35,3.78,2.17a19.4,19.4,0,0,1,1,3.08c.32,2,1.43,2.58,3.4,2.64,9.53.29,18.9-.91,28.26-2.43,9.83-1.6,19.69-3,29.62-4.47a8.37,8.37,0,0,0-.21-1.14c-.59-1.72-.39-3.29,1.46-3.91,2-.67,2.78.76,3.65,2.41a36.27,36.27,0,0,0,5.22,8.09c4.05,4.28,8.54,8.13,12.86,12.14,3.79,3.51,5.65,7.75,4.85,12.94-.37,2.38-.88,4.73-1.36,7.09C161.39,165.91,160.77,168.87,160.12,172Zm-29.3.3c.73-.32,2.12-.47,2.74-1.24,6.81-8.46,12.18-17.6,13.26-28.74a4.4,4.4,0,0,0-1.49-4.11c-2-1.88-3.67-4.06-5.52-6.08-.48-.53-1.11-1.39-1.62-1.35-4,.26-8,.71-12.29,1.13,2.75,5.17,5.2,9.88,7.76,14.52a12.79,12.79,0,0,1,1.55,9.14C134,161.14,132.35,166.59,130.82,172.33Zm-90.66-40c-.22,3.4-.26,6.48-.65,9.53-1.33,10.33-.43,21.26-8.07,30.76,2.4-.55,5.18-.33,6.07-1.53a67.24,67.24,0,0,0,12.34-26.17,3,3,0,0,0-.34-2.3C46.54,139.21,43.43,135.9,40.16,132.34Z"/><path class="cls-1" d="M15.79,80.87l-2.67-2.18A26.89,26.89,0,0,1,16.67,76c.2-.11,1.93,1.64,1.78,2A14.25,14.25,0,0,1,15.79,80.87Z"/><circle class="cls-1" cx="15.79" cy="78.42" r="2.8"/></g></g></svg>