<svg xmlns="http://www.w3.org/2000/svg" viewBox="0 0 214.84 239.36"><defs><style>.cls-1{fill:#f6f6f6;}</style></defs><g id="Calque_2" data-name="Calque 2"><g id="Calque_1-2" data-name="Calque 1"><path class="cls-1" d="M1.4,217.67c-.39-2-1-3.49-.88-4.89,1.6-19,9.49-34.26,26.9-43.55,11.17-6,22.22-12.11,32.1-20.12,9-7.27,16.8-15.54,21.81-26.08,3.83-8.08,3.92-16.73,3.23-25.45-.47-6-1-12-.94-18A30,30,0,0,1,85.8,69.49c2.11-5.4,6.93-6.5,11.61-3.23,7.46,5.22,15.78,6.58,24.73,5,14.46-2.59,27.77-8.09,40.7-14.88,4.89-2.57,7.25-6.56,8.94-11.32a137.09,137.09,0,0,0,6.36-25.48,27.19,27.19,0,0,1,4.71-12c5.26-7.33,11.91-8.58,20-7a22.35,22.35,0,0,1,4.76,1.58c5.25,2.37,7.54,6.85,7.16,13.54A42.82,42.82,0,0,1,210.24,32c-2.61,5.39-5.83,10.5-8.22,16s-4.09,11.12-5.93,16.75a3.76,3.76,0,0,0,.69,2.8c2.67,3.9,5.18,7.86,6.42,12.5a8.66,8.66,0,0,1-.77,6.93c-2.68,5-4.59,10.47-6.73,15.78a7,7,0,0,0-.21,2.68c.1,4.58,0,9.18.43,13.75a51,51,0,0,0,1.76,7.9A91.79,91.79,0,0,1,199.62,164c-.24,1.52-.82,3-1,4.52a12.31,12.31,0,0,0-.07,4.36c1.19,4.94.15,8.63-3.9,11.62-3,2.21-6,4.58-9.33,6.1-3.17,1.44-6.79,1.93-10.24,2.73a43.64,43.64,0,0,1-7,1.29,49.62,49.62,0,0,1-9-.14c-6.65-.8-13.12-.95-19.16,2.65-2.4,1.43-3.74,3.36-3.61,6.13a5.69,5.69,0,0,1-2.69,5.18c-4.23,3.18-8.3,6.59-12.45,9.86a15.14,15.14,0,0,1-7.72,3.32,6.8,6.8,0,0,0-3.86,1.87c-2.25,2.36-4.88,4.06-8,4.19-4.25.18-8,1.76-11.8,3.26-2.85,1.12-5.84,2-9.06,1.6a5.41,5.41,0,0,0-3.35.68c-3.67,2.34-7.72,2.68-11.89,2.79a26.55,26.55,0,0,0-5.52.8,104,104,0,0,1-27.7,2.47A71.69,71.69,0,0,1,4.79,233l-.18-.07c-3.12-1.1-5-3-4.46-6.62A21.66,21.66,0,0,0,0,222.59C-.07,219.42-.06,219.42,1.4,217.67Zm191.77-92.36a13.59,13.59,0,0,0-1.71,1.5q-6.28,8.24-12.52,16.51c-.77,1-1.2,2.35-2.09,3.24a2.68,2.68,0,0,1-2.43.6c-.57-.35-.82-1.58-.82-2.43a3.73,3.73,0,0,1,1-1.85c5.18-6.92,10.34-13.86,15.62-20.7a7,7,0,0,0,1.72-4.93c-.26-4.45-.38-8.91-.5-13.37a6.52,6.52,0,0,1,.33-2.65c2.14-5,4.06-10.22,6.68-15a7.27,7.27,0,0,0,.14-7.61c-1.84-3.39-3.9-6.66-6-9.89-.8-1.22-1.33-2.2-.73-3.71.76-1.91,1.08-4,1.84-5.91,2.32-5.93,4.6-11.89,7.21-17.69,2.41-5.33,5.46-10.38,7.79-15.74,1.89-4.32,3-8.93,2.1-13.78-.77-4.11-3.52-5.26-6.57-2.37a19.94,19.94,0,0,0-4.43,6.24,220.29,220.29,0,0,0-12.32,36c-1.34,5.23-1.15,10,2,14.74,2.21,3.28,3.66,7.09,5.2,10.77,1.16,2.74.19,5.17-1.92,6.15-1.86.85-3.6,2-5.49,2.73a25.47,25.47,0,0,1-6.23,1.74c-4.26.48-8.07-1.44-11.94-2.82-7.27-2.58-12.29-1.22-16.75,5.1a53.77,53.77,0,0,0-5.31,9.41c-3,6.9-5.6,14-8.64,20.9-2.76,6.22-6.18,12.08-11.42,16.63-2.4,2.09-5.11,3.64-8.36,3.62-7.26-.06-14.47-.71-21.31-3.36-6.68-2.58-11.26-8.27-7.53-16.66a27.12,27.12,0,0,0,2.57-9.46,26.86,26.86,0,0,1,.75-4.78A33.23,33.23,0,0,0,93.2,92.3c-1.35-7.15-1.76-14.37,1.62-21.25a2.22,2.22,0,0,0-.62-2c-2.07-1.57-4.6-.48-5.25,2.67a53.37,53.37,0,0,0-1.33,11.65c.13,8.32.9,16.64,1.11,25a35.66,35.66,0,0,1-2.68,13.8c-3.71,9.47-10,17.11-17.26,24-9.88,9.44-21.3,16.71-33.26,23.19-5.67,3.06-11.56,5.8-16.29,10.35C10,188.53,5.63,199.56,4.46,212.06A3.74,3.74,0,0,0,7.72,216c7.09,1,14.17,2.29,21.3,2.88,17.47,1.42,34.86,1,51.91-3.71,8-2.2,15.7-5.06,22.38-10.23,3.67-2.84,7.47-5.53,11.39-8,9.72-6.15,19.73-11.86,30.71-15.41,6.91-2.23,14.16-3.39,21.24-5.13a173.21,173.21,0,0,0,27-9.32,3.11,3.11,0,0,0,1.57-1.94,86.17,86.17,0,0,0,1.41-10A84.75,84.75,0,0,0,195,133.36C194.54,130.8,193.87,128.28,193.17,125.31Zm10.5-120c-4.12-2.45-13.23-1.94-17.2,3.54A25.39,25.39,0,0,0,182,20.29a123.78,123.78,0,0,1-7.16,27.46c-1.64,4.19-3.45,8.28-7.78,10.7C153.39,66.09,139.18,72.11,123.69,75c-7.8,1.44-15.26,1-22.56-2.07-2.38-1-3-.77-3.88,1.7a24.59,24.59,0,0,0-1,11.67c.54,4.09,1.81,8.18,1.68,12.24-.26,8.44-1.47,16.81-4.87,24.69-1.56,3.6-.68,6.55,2.51,8.84a15.46,15.46,0,0,0,3,1.65c5.52,2.3,11.4,2.53,17.25,3.11,4.25.42,7.36-1.3,10.12-4.18a44.41,44.41,0,0,0,8.58-13.27c3-6.92,5.65-14,8.61-20.92a46.76,46.76,0,0,1,7.94-13c3.49-3.91,7.77-6.12,13.06-5.29a59.85,59.85,0,0,1,10.24,2.69c4.53,1.58,8.76,2.1,12.7-1.38a6.59,6.59,0,0,1,2.56-1.29c1.37-.4,1.63-1.11,1-2.3-1.95-3.92-3.63-8-5.93-11.72s-2.6-7.76-1.63-11.89c1.32-5.64,2.54-11.33,4.32-16.84,2.37-7.35,5.08-14.6,7.93-21.79A21.37,21.37,0,0,1,203.67,5.35ZM4.12,225.05c-.77,2.63,1,3.89,3.56,5a66.64,66.64,0,0,0,17.69,4.74,96.55,96.55,0,0,0,28-.71c4.81-.79,9.48-2.35,14.5-2.15,2.13.09,4.31-1,6.47-1.62s4.4-1.72,6.6-1.73A22.75,22.75,0,0,0,91.14,226,18.66,18.66,0,0,1,99.31,224a8.57,8.57,0,0,0,6.46-2.59,12.25,12.25,0,0,1,7.18-3.87,11.82,11.82,0,0,0,5.12-1.94c4.31-3.17,8.47-6.57,12.55-10a5,5,0,0,0,1.64-3.25c.05-3.55,1.69-5.95,4.5-7.85,7.14-4.83,15-4.86,23.12-3.82a28.27,28.27,0,0,0,7.85-.05c3.8-.59,7.48-2.1,11.28-2.46,5.64-.52,9.56-3.74,13.58-7.12,2.64-2.22,2.95-4.73,1.93-7.81-.46-1.39-1-1.73-2.37-1.18-3.41,1.38-6.79,2.86-10.31,3.89-8.1,2.37-16.26,4.54-24.41,6.7-3.62,1-7.39,1.41-10.9,2.65-11.75,4.13-22.55,10.17-32.88,17.07-4.67,3.11-9,6.85-13.82,9.6-12.07,6.83-25.43,9.48-39.06,10.86-17.29,1.75-34.46.31-51.54-2.43C4.38,219.55,4,219.81,4.12,225.05Z"/><path class="cls-1" d="M44.62,212c-1.49-.12-2.75-.6-2.84-2.17s1.23-1.84,2.54-2c8.29-1.18,16.7-1.89,24.85-3.7,13.39-3,26.14-7.65,36-17.89,1-1,2.11-1.38,3.22-.3s.49,2.14-.36,3.05a54.44,54.44,0,0,1-17.18,12,108.11,108.11,0,0,1-29.38,8.67C55.87,210.54,50.24,211.25,44.62,212Z"/><path class="cls-1" d="M155.07,106.45c3.32,0,5.35,2,5.35,5.23,0,4.34-2.8,7.89-6.17,7.83s-5.9-3-5.9-6.69C148.35,108.94,150.93,106.49,155.07,106.45Zm-3,6.88c.72.62,1.34,1.56,2.16,1.78,1.26.34,2.38-1.12,2.17-2.89a2.46,2.46,0,0,0-1.43-1.75C153.65,110.15,152.4,111.51,152,113.33Z"/><path class="cls-1" d="M146.59,135.21c-3.36-.05-5.85-3-5.78-6.87s2.95-6.32,6.92-6.21a5.25,5.25,0,0,1,5.25,5.5C152.91,131.93,150.1,135.25,146.59,135.21Zm2.27-7.87c-.35-.24-1-1-1.63-1-1.44,0-2.66.87-2.42,2.37a3.76,3.76,0,0,0,1.94,2.41C147.68,131.52,148.88,129.61,148.86,127.34Z"/><path class="cls-1" d="M168,95.86c-.05,4.33-2.83,7.63-6.37,7.54-3.21-.07-5.89-3.19-5.82-6.75.08-3.71,2.95-6.36,6.87-6.34C165.94,90.32,168,92.51,168,95.86Zm-8.15,1.72a6.42,6.42,0,0,0,2,1.7c.94.35,2.2-1.56,2.23-3.09a1.55,1.55,0,0,0-1.76-1.78C160.84,94.5,160,95.34,159.85,97.58Z"/><path class="cls-1" d="M143.06,143.5c-.06,3.81-3.32,7.23-6.89,7.2-2.83,0-5.43-3.29-5.35-6.73a6.56,6.56,0,0,1,6.94-6.29C141,137.74,143.11,140,143.06,143.5Zm-3.58-.11c-.78-.58-1.41-1.43-2.11-1.49a2.19,2.19,0,0,0-2.5,2.29,2.33,2.33,0,0,0,2.22,2.65C139.4,146.94,138.24,144.69,139.48,143.39Z"/><path class="cls-1" d="M155.6,169.74c-.68-.6-1.64-1-1.73-1.62a2.6,2.6,0,0,1,.8-2.26c3.9-2,6.23-5.51,8.71-8.86.82-1.1,1.72-2.23,3.15-1.21s1,2.39,0,3.52c-2.55,2.89-5.09,5.79-7.75,8.56A14.5,14.5,0,0,1,155.6,169.74Z"/><path class="cls-1" d="M26.53,213.2c-3.87-.92-7.75-1.81-11.61-2.78-1.25-.31-2.08-1.15-1.66-2.57s1.51-1.41,2.68-1.2c4.3.77,8.59,1.55,12.89,2.29,1.21.21,2.06.89,1.76,2.05a3.55,3.55,0,0,1-1.85,1.74,5.29,5.29,0,0,1-2.11.05Z"/></g></g></svg>