<svg xmlns="http://www.w3.org/2000/svg" viewBox="0 0 192.91 204.98"><defs><style>.cls-1{fill:#f6f6f6;}</style></defs><g id="Calque_2" data-name="Calque 2"><g id="Calque_1-2" data-name="Calque 1"><path class="cls-1" d="M161.71,119.79c-.07.67-.15,1.18-.17,1.7-.16,3.25-.25,6.51-.48,9.76a4.2,4.2,0,0,1-.86,2.34c-3.15,3.63-6.83,6.61-11.61,7.68A15.4,15.4,0,0,1,135.85,139a4.64,4.64,0,0,1-2.22-4.55c.18-1.76,0-3.55,0-5.71-1.54.66-2.79,1.22-4,1.75a73.82,73.82,0,0,1-20.82,5.55c-1.8.2-2.65.81-2.79,2.71-.79,10.58-5.69,19.68-10.57,28.76a18.33,18.33,0,0,0-2.37,9.24c.06,7.19-.86,14.28-3.78,21a6.42,6.42,0,0,1-3,3.22c-5.38,2.9-11,4.51-17.18,3.86a19.73,19.73,0,0,1-12.76-6.48c-1.4-1.51-1.42-3.45-1.15-5.38A26.63,26.63,0,0,1,59.9,181.5a13.51,13.51,0,0,0,2.5-6.09c.74-6.47,1.41-12.94,2.09-19.42a1.88,1.88,0,0,0-.09-.61l-.5-.15a57.82,57.82,0,0,0-1.94,6.3c-1.13,5.91-2.13,11.84-3,17.78a4,4,0,0,1-2.26,3.32c-4.06,1.8-8.13,3.56-12.26,5.19-2.66,1.05-5.43,1.83-8.13,2.78-3.94,1.38-8.57-1.3-10-4.43a23.85,23.85,0,0,1-2.08-12.53,8,8,0,0,1,4-5.87,6.48,6.48,0,0,0,3.14-6.33c-.13-2.54-.33-5.08-.54-7.61-.38-4.51-.71-9,1.19-13.3a5.35,5.35,0,0,1,1.43-2.14c2.93-2.23,4-5.52,5-8.76,1.17-3.83,2.06-7.75,3-11.65.55-2.32,0-2.69-2.32-2.21-1.4.29-2.84.36-4.39.54.18.48.31.82.42,1.17.49,1.6-.19,2.54-1.86,2.59a34.08,34.08,0,0,1-31.93-20,14.55,14.55,0,0,1-.81-9.69,7.65,7.65,0,0,0,.14-3.52c-1.33-5.35.85-9.12,5-12.25a16.72,16.72,0,0,0,3.25-3.51c3.27-4.45,6.46-9,9.67-13.48.5-.7,1-1.41,1.44-2.16,1.37-2.39,1.15-4.21-.64-6.22-2.84-3.18-3.66-7.07-3.65-11.17a4.93,4.93,0,0,1,1.14-2.8c3.78-4.67,7.5-9.41,11.57-13.84,2-2.19,3.28-4.34,3.3-7.37,0-3.63.39-7.27.66-10.89C32.58,0,33.7-.69,36.69.63c2.67,1.19,5.22,2.62,7.82,4,.9.46,1.76,1,2.92,1.64.1-1,.2-1.72.23-2.44.14-2.62,1.07-3.32,3.71-2.72A23.22,23.22,0,0,1,62,7,58.24,58.24,0,0,1,76.76,29C79.57,36.12,84.07,42.13,89,47.88,90.78,50,92.73,52,94.56,54a2.83,2.83,0,0,0,2.91.92C108.63,53,119.78,51,131,49.32c3.83-.58,7.65-1,11-3,5.66-3.53,8.67-8.88,9.83-15.25.89-4.91,1.36-9.89,2-14.83.22-1.7,1.27-2.35,2.86-1.67a20.19,20.19,0,0,1,12,13.29c1,3.4,1.2,7,1.73,10.55.16,1.07.09,2.18.31,3.23A5.28,5.28,0,0,0,174.35,46c6.08,2.19,9.83,6.76,12,12.69,2.8,7.65,2.69,15.39.49,23.18A29.15,29.15,0,0,0,187,98.18a122.62,122.62,0,0,1,3.77,16.28c1.08,7.68,1.69,15.43,2.15,23.17a13.16,13.16,0,0,1-9.45,13.48c-3.66,1.15-7.39.64-11.12,0-6-1-7.71-5.56-7.69-10.23,0-3.52.43-7,.76-10.55s.21-7-2.49-9.73c-.19-.2-.38-.4-.58-.58A2.76,2.76,0,0,0,161.71,119.79Zm-110-9c-3.59-3.27-3.85-7-1.76-10.78a36.28,36.28,0,0,1,3.85-5.21c.75-.94,1.84-1.38,2.82-.41s.29,1.84-.43,2.7a28.18,28.18,0,0,0-3.1,4.15c-1.62,2.93-1.21,5.53,1.26,7.23,2.27,1.55,2.2,2.7.07,4.57a9.94,9.94,0,0,1-1.73,1.21,11.2,11.2,0,0,1-6.28,1.32c-.72,0-1.28,0-1.52,1-1.18,5.06-2.34,10.12-3.78,15.11-1,3.43-2.41,6.72-5.32,9.14a3.63,3.63,0,0,0-1.2,2.23c-.27,3.33-.47,6.67-.47,10,0,2.86.47,5.73.43,8.59,0,3.66-1,6.93-4.55,9a5.08,5.08,0,0,0-2.6,5.53c.28,1.82.38,3.68.79,5.47a8.5,8.5,0,0,0,2.94,5.29c1.44,1.07,2.26.83,2.83-.79.9-2.56,1.85-5.09,2.65-7.68,2.77-9,5.73-17.84,8.13-26.89,1.62-6.11,2.51-12.42,3.54-18.67.4-2.47,1.13-3.23,3.65-2.64A57.53,57.53,0,0,1,58.8,132a72,72,0,0,1,8.36,3.89,4,4,0,0,1,2.13,4.66c-.44,2.45-.56,5-.83,7.44-1.08,9.81-2.1,19.63-3.32,29.42a17.15,17.15,0,0,1-2,5.07c-1.34,2.77-3,5.4-4.18,8.23-1.54,3.7-.87,5.51,2.43,7.76,6.12,4.18,12.57,4.07,19.24,1.5,3.32-1.27,5.88-3,6.93-6.79a72,72,0,0,0,2.25-19.48,9.61,9.61,0,0,1,.88-4c1.29-2.8,2.86-5.47,4.24-8.24,3.5-7,7-14,7.62-22.13.13-2,.5-4.37,1.68-5.83,4.65-5.78,8.22-11.94,9.3-19.4a2.14,2.14,0,0,1,1.66-1.29c.52,0,1.24.92,1.41,1.55a5.27,5.27,0,0,1-.18,2.41,40,40,0,0,1-6.1,14.08c-.3.46-.55,1-.89,1.57a6.44,6.44,0,0,0,.9.13,7.09,7.09,0,0,0,1.13-.11,74.74,74.74,0,0,0,20.64-6.72,17.89,17.89,0,0,1,3.37-1.54c7.05-1.82,13.72-4.48,19.52-8.94,6.83-5.27,10.86-12.14,11.38-20.88a30.41,30.41,0,0,0-1.26-11.41c-.35-1.07-.56-2.27.89-2.7s2,.51,2.25,1.7c.49,2.49,1.13,5,1.37,7.49A30.09,30.09,0,0,1,162.87,112c-1.77,2.18-2,1.79.18,4,1,1,2,2,2.86,3.11a11.75,11.75,0,0,1,2.85,8.43c-.11,2-.3,4.11-.38,6.17-.12,3.19-.29,6.39-.22,9.59,0,1.88.92,3.61,2.93,4.05a38,38,0,0,0,7.7,1,10,10,0,0,0,10-6.63,15.25,15.25,0,0,0,.67-7.69c-.8-7.28-1.45-14.58-2.49-21.83a66.82,66.82,0,0,0-2.85-12,31.58,31.58,0,0,1-.67-18.74c1.65-6.09,2.4-12.13,1-18.31-1.62-7.06-5.4-12.33-12.59-14.69a5.32,5.32,0,0,1-2.38-1.76,13.12,13.12,0,0,1-2.39-8c-.06-4.09-.45-8.12-2.21-11.9A16.73,16.73,0,0,0,157,18.51c-.23,1.61-.41,3-.61,4.33-.76,5.14-1.08,10.39-3.28,15.2-3.28,7.15-8.45,12.17-16.39,13.76-3.24.64-6.55.92-9.81,1.42-6.6,1-13.2,2-19.77,3.1a97.33,97.33,0,0,0-10,2.18,3.18,3.18,0,0,1-3.75-.9c-2.5-2.79-5.14-5.45-7.57-8.3-4.8-5.62-9.24-11.54-11.94-18.5A61.12,61.12,0,0,0,63.85,13.44c-3-3.53-6.27-6.61-10.61-8.4-1.81-.74-2.3-.41-2.42,1.54-.21,3.41-.46,6.82-.72,10.22C50,18,49.73,19.11,48.3,19c-1.61-.07-1.57-1.35-1.51-2.54.09-1.68.26-3.36.24-5a2.39,2.39,0,0,0-.76-1.77c-2.93-1.85-5.94-3.57-8.94-5.32-1.14-.66-1.73-.24-1.8,1-.13,2.39-.28,4.77-.4,7.16-.35,6.84-.35,6.84-5.05,11.76-.45.48-.93.93-1.35,1.42-3,3.39-5.93,6.77-8.84,10.2a3.42,3.42,0,0,0-.95,2c.12,3.57.64,7,3.39,9.71a5,5,0,0,1,1.26,1.83c1.2,3.36.37,6.41-1.67,9.19-3.16,4.34-6.51,8.55-9.48,13-1.66,2.49-3.2,4.86-5.84,6.49a6.21,6.21,0,0,0-2.78,7.23,15.78,15.78,0,0,0,1.79,4.08c.76,1.27.66,2.68-.57,2.7-2.23,0-1.89,1.47-1.74,2.75a11.5,11.5,0,0,0,.86,3.45c4.12,8.57,10.25,14.86,19.88,17,2,.45,4.1.7,6.48,1.09a14.73,14.73,0,0,0-.59-1.79c-.47-.87-.9-1.87.1-2.45a3.42,3.42,0,0,1,2.53-.23,11.75,11.75,0,0,0,7.16.23,12.88,12.88,0,0,1,4.76-.13C46.94,112.42,49.3,112.59,51.66,110.79ZM37.35,186.54a6.21,6.21,0,0,0,1.28-.14c5.24-2.05,10.48-4.09,15.69-6.22a2.44,2.44,0,0,0,1.23-1.57c1.12-5.74,2-11.53,3.23-17.24,1-4.72,2.49-9.33,5.83-13.06a2.28,2.28,0,0,0,.58-1.12c.27-2.26.59-4.52.67-6.79a2.9,2.9,0,0,0-1-2.15c-3.66-2.47-7.89-3.47-12.12-4.41-.34-.08-1.14.56-1.22,1-1.13,5.4-1.88,10.9-3.29,16.23-2.27,8.57-4.94,17-7.5,25.53C39.71,179.82,38.54,183,37.35,186.54ZM158,117.23l-1.48.91c-1.82,1.16-3.57,2.48-5.49,3.45a3.91,3.91,0,0,0-2.27,3.43c-.41,3.61-.91,7.2-1.34,10.81a20.41,20.41,0,0,0,0,2.23c3.72-.59,6.27-2.81,8.9-5,1.7-1.4,1.61-3.17,1.62-5,0-.66.06-1.31.06-2C158,123.25,158,120.39,158,117.23ZM145.4,124.8a2.94,2.94,0,0,0-.85-.07c-2.11.68-4.24,1.31-6.29,2.14a2.43,2.43,0,0,0-1.1,1.72A39.89,39.89,0,0,0,137,133c-.08,3,.65,4,3.48,4.77.52.15,1.06.26,1.57.41,1.17.36,1.76-.11,1.91-1.27.22-1.66.45-3.32.65-5C144.88,129.55,145.13,127.2,145.4,124.8Z"/><path class="cls-1" d="M36.6,50.26c1.36,2.52,3.18,4.52,6.19,5.12,1.14.22,2.21.52,2,2-.15,1.1-1.43,1.62-2.92,1.26-4-1-6.58-3.7-8.44-7.11-.85-1.56-1.79-2.3-3.54-2.07a10.77,10.77,0,0,1-2.27,0c-1-.07-1.83-.56-1.61-1.6.13-.62.91-1.11,1.43-1.64.09-.09.31-.07.47-.07,7.35,0,14.68.27,21.42,3.64a20.69,20.69,0,0,1,4.34,3.34,1.7,1.7,0,0,1,.12,2.72c-1,.89-1.87.28-2.62-.59-2.69-3.12-6.43-4-10.22-4.85-1.36-.28-2.75-.41-4.12-.61Z"/><path class="cls-1" d="M98,136.67c-.93,3.49-1.67,6.54-2.57,9.55A113.78,113.78,0,0,1,86,168.63a3.21,3.21,0,0,1-2,1.56c-1.31.17-1.78-1.37-1-3,1.52-3.12,3.1-6.2,4.55-9.35a105.66,105.66,0,0,0,6.94-21.11c.25-1.11.79-2,1.93-1.63C97.11,135.3,97.57,136.19,98,136.67Z"/><path class="cls-1" d="M82.87,72.79A16.08,16.08,0,0,1,78.28,84.4c-.18.2-.38.39-.57.58a1.71,1.71,0,0,1-2.59.22c-.82-.78-.42-1.62.15-2.47,1.27-1.92,2.82-3.77,3.6-5.89,1.69-4.62.47-9.08-1.63-13.32-.41-.83-.9-1.61-1.37-2.41-.56-1-.91-2,.22-2.72s2-.11,2.6.91C81.15,63.39,83,67.7,82.87,72.79Z"/><path class="cls-1" d="M163.51,52.46c6.84,1,11.92,3.89,15,9.76.42.81.72,1.68,1.08,2.53a1.66,1.66,0,0,1-1,2.39c-1.06.43-1.73-.23-2.12-1.19-.22-.55-.4-1.12-.66-1.66a14.31,14.31,0,0,0-10.65-8.14l-1.6-.32c-1-.19-1.69-.79-1.37-1.78C162.42,53.37,163.17,52.86,163.51,52.46Z"/><path class="cls-1" d="M71.19,79.32a20.17,20.17,0,0,1-3.94,11.31,1.68,1.68,0,0,1-2.52.61c-.91-.61-.78-1.47-.27-2.43a40.85,40.85,0,0,0,3-6.43,10.12,10.12,0,0,0-.64-7.89,1.55,1.55,0,0,1,.66-2.23A1.49,1.49,0,0,1,68.72,72a1.64,1.64,0,0,1,.94.91C70.54,74.58,71.11,78.77,71.19,79.32Z"/><path class="cls-1" d="M158.39,58.45c2.25,1.14,4.3,2,6.15,3.17a13,13,0,0,1,5.26,6.64,1.57,1.57,0,0,1-.71,2.21,1.52,1.52,0,0,1-2.27-.87c-1.63-4-4.79-6.26-8.81-7.56a2.24,2.24,0,0,1-1.15-1.79C156.88,59.69,157.74,59.17,158.39,58.45Z"/><path class="cls-1" d="M107.75,115.71c-1.45,4.92-2.46,9.55-5.69,13.21-.66.75-1.51,1.4-2.53.59a1.57,1.57,0,0,1-.24-2.45c2.92-3.22,3.9-7.28,5-11.27.29-1,.9-1.75,2-1.42C106.9,114.56,107.33,115.31,107.75,115.71Z"/><path class="cls-1" d="M10.35,91.18C9.81,90.72,9.16,90.43,9,90a2.18,2.18,0,0,1,.3-1.75A16.68,16.68,0,0,1,12,85.82c2.18-1.68,4.38-3.33,6.62-4.93,1-.69,2.13-.9,2.79.37s-.21,1.84-1.21,2.56c-2.68,1.91-5.21,4-7.82,6C11.75,90.29,11.12,90.66,10.35,91.18Z"/></g></g></svg>