<svg height="511pt" viewBox="-77 1 511 511.999" width="511pt" xmlns="http://www.w3.org/2000/svg"><path d="m329.171875 239.515625v37.125h18.558594c5.691406 0 10.304687-4.613281 10.304687-10.300781v-16.519532c0-5.691406-4.613281-10.304687-10.304687-10.304687zm0 0" fill="#4a4a68"/><path d="m29.363281 239.515625v37.125h-18.5625c-5.6875 0-10.300781-4.613281-10.300781-10.300781v-16.519532c0-5.691406 4.613281-10.304687 10.300781-10.304687zm0 0" fill="#4a4a68"/><path d="m28.363281 30.90625v450.1875c0 17.070312 13.835938 30.90625 30.902344 30.90625h240c17.070313 0 30.90625-13.839844 30.90625-30.90625v-450.1875c0-17.070312-13.835937-30.90625-30.90625-30.90625h-240c-17.066406 0-30.902344 13.835938-30.902344 30.90625zm0 0" fill="#7addd8"/><path d="m299.265625 0h-31.308594c17.066407 0 30.902344 13.835938 30.902344 30.90625v450.1875c0 17.070312-13.835937 30.90625-30.902344 30.90625h31.308594c17.070313 0 30.90625-13.839844 30.90625-30.90625v-450.1875c0-17.070312-13.835937-30.90625-30.90625-30.90625zm0 0" fill="#40c6c2"/><path d="m28.363281 244.59375v236.5c0 17.070312 13.835938 30.90625 30.902344 30.90625h240c17.070313 0 30.90625-13.839844 30.90625-30.90625v-236.5c0-18.207031-14.757813-32.960938-32.960937-32.960938h-235.886719c-18.207031 0-32.960938 14.753907-32.960938 32.960938zm0 0" fill="#40c6c2"/><path d="m297.210938 211.632812h-31.3125c18.203124 0 32.960937 14.753907 32.960937 32.960938v236.5c0 17.070312-13.835937 30.90625-30.902344 30.90625h31.308594c17.070313 0 30.90625-13.839844 30.90625-30.90625v-236.5c0-18.207031-14.757813-32.960938-32.960937-32.960938zm0 0" fill="#1f9b92"/><path d="m136.371094 93.164062c-8.921875-8.917968-20.78125-13.832031-33.398438-13.832031-12.617187 0-24.476562 4.914063-33.398437 13.832031-8.921875 8.921876-13.832031 20.785157-13.832031 33.398438 0 12.617188 4.910156 24.476562 13.832031 33.398438 8.921875 8.921874 20.78125 13.835937 33.398437 13.835937 12.617188 0 24.476563-4.914063 33.398438-13.835937 8.921875-8.921876 13.832031-20.78125 13.832031-33.398438 0-12.613281-4.910156-24.476562-13.832031-33.398438zm0 0" fill="#4a4a68"/><path d="m74.878906 162.160156c-1.921875 0-3.839844-.734375-5.304687-2.199218-2.929688-2.929688-2.929688-7.675782 0-10.605469l23.316406-23.316407c2.929687-2.929687 7.679687-2.929687 10.605469 0 2.929687 2.929688 2.929687 7.679688 0 10.605469l-23.316406 23.316407c-1.464844 1.464843-3.382813 2.199218-5.300782 2.199218zm0 0" fill="#ebf9ff"/><path d="m288.957031 93.164062c-8.917969-8.917968-20.78125-13.832031-33.398437-13.832031-12.613282 0-24.476563 4.914063-33.394532 13.832031-8.921874 8.921876-13.835937 20.785157-13.835937 33.398438 0 12.617188 4.914063 24.476562 13.835937 33.398438 8.917969 8.921874 20.78125 13.835937 33.394532 13.835937 12.617187 0 24.480468-4.914063 33.398437-13.835937 18.417969-18.414063 18.417969-48.378907 0-66.796876zm0 0" fill="#4a4a68"/><path d="m227.464844 162.160156c-1.917969 0-3.839844-.734375-5.300782-2.199218-2.929687-2.929688-2.929687-7.675782 0-10.605469l23.3125-23.316407c2.929688-2.929687 7.679688-2.929687 10.609376 0 2.925781 2.929688 2.925781 7.679688 0 10.605469l-23.316407 23.316407c-1.464843 1.464843-3.382812 2.199218-5.304687 2.199218zm0 0" fill="#ebf9ff"/><path d="m179.265625 20.679688c-11.179687 0-20.273437 9.09375-20.273437 20.273437s9.09375 20.277344 20.273437 20.277344 20.277344-9.097657 20.277344-20.277344-9.097657-20.273437-20.277344-20.273437zm0 0" fill="#e8626c"/><path d="m58.027344 321.007812v144.847657c0 9.101562 7.378906 16.480469 16.480468 16.480469h209.519532c9.101562 0 16.480468-7.378907 16.480468-16.480469v-144.847657c0-9.101562-7.378906-16.480468-16.480468-16.480468h-209.519532c-9.101562 0-16.480468 7.378906-16.480468 16.480468zm0 0" fill="#4a4a68"/><g fill="#ebf9ff"><path d="m94.820312 280.046875c-2.035156 0-4.0625-.824219-5.542968-2.449219l-13.1875-14.464844c-2.605469-2.863281-2.605469-7.242187 0-10.105468l13.1875-14.464844c2.789062-3.0625 7.53125-3.28125 10.59375-.492188 3.0625 2.789063 3.28125 7.535157.492187 10.59375l-8.582031 9.414063 8.582031 9.414063c2.789063 3.0625 2.570313 7.804687-.492187 10.597656-1.4375 1.308594-3.246094 1.957031-5.050782 1.957031zm0 0"/><path d="m276.902344 280.046875c-2.039063 0-4.066406-.824219-5.546875-2.449219l-13.183594-14.464844c-2.609375-2.863281-2.609375-7.242187 0-10.105468l13.183594-14.464844c2.789062-3.0625 7.535156-3.28125 10.59375-.492188 3.0625 2.789063 3.28125 7.535157.492187 10.59375l-8.578125 9.414063 8.578125 9.414063c2.792969 3.0625 2.570313 7.804687-.492187 10.597656-1.4375 1.308594-3.246094 1.957031-5.046875 1.957031zm0 0"/></g></svg>
